Commissioner-LoudBoldItalic.ufo
<glyph name="numbersign" format="2">
  <advance width="1398.578947368421"/>
  <unicode hex="0023"/>
  <outline>
    <contour>
      <point x="-26.210526315789476" y="247.21052631578948" type="line"/>
      <point x="113.47368421052633" y="251.8421052631579"/>
      <point x="259.31578947368416" y="256.4736842105263"/>
      <point x="359.57894736842104" y="259.10526315789474" type="curve"/>
      <point x="838.5263157894736" y="259.10526315789474" type="line"/>
      <point x="936.1578947368422" y="256.4736842105263"/>
      <point x="1082.0" y="251.8421052631579"/>
      <point x="1219.0526315789475" y="247.21052631578948" type="curve"/>
      <point x="1271.842105263158" y="500.6842105263158" type="line"/>
      <point x="1133.4736842105262" y="496.0526315789474"/>
      <point x="986.3157894736843" y="491.42105263157896"/>
      <point x="887.3684210526316" y="488.7894736842105" type="curve"/>
      <point x="408.42105263157896" y="488.7894736842105" type="line"/>
      <point x="309.4736842105263" y="491.42105263157896"/>
      <point x="164.94736842105266" y="496.0526315789474"/>
      <point x="26.578947368421055" y="500.6842105263158" type="curve"/>
    </contour>
    <contour>
      <point x="77.63157894736842" y="0.0" type="curve"/>
      <point x="366.10526315789474" y="0.0" type="line"/>
      <point x="412.8947368421053" y="136.63157894736844"/>
      <point x="454.3157894736842" y="261.8421052631579"/>
      <point x="512.4736842105264" y="431.1578947368421" type="curve"/>
      <point x="693.3157894736842" y="895.0526315789474" type="line"/>
      <point x="770.6315789473686" y="1076.9473684210525"/>
      <point x="816.6842105263158" y="1185.0526315789473"/>
      <point x="880.0" y="1332.3157894736842" type="curve"/>
      <point x="598.1052631578947" y="1332.3157894736842" type="line"/>
      <point x="547.3684210526316" y="1183.1578947368423"/>
      <point x="509.2105263157895" y="1072.3684210526317"/>
      <point x="449.6842105263158" y="895.0526315789473" type="curve"/>
      <point x="268.84210526315786" y="431.1578947368421" type="line"/>
      <point x="192.8947368421053" y="259.89473684210526"/>
      <point x="135.6315789473684" y="131.3684210526316"/>
    </contour>
    <contour>
      <point x="195.36842105263156" y="825.6315789473683" type="line"/>
      <point x="335.0526315789474" y="830.2631578947369"/>
      <point x="482.2105263157895" y="834.8947368421052"/>
      <point x="581.1578947368421" y="837.5263157894736" type="curve"/>
      <point x="1060.1052631578948" y="837.5263157894736" type="line"/>
      <point x="1159.0526315789473" y="834.8947368421052"/>
      <point x="1303.5789473684213" y="830.2631578947369"/>
      <point x="1440.6315789473686" y="825.6315789473683" type="curve"/>
      <point x="1494.7368421052631" y="1079.1052631578948" type="line"/>
      <point x="1355.0526315789475" y="1074.4736842105265"/>
      <point x="1209.2105263157894" y="1069.842105263158"/>
      <point x="1108.9473684210527" y="1067.2105263157896" type="curve"/>
      <point x="630.0" y="1067.2105263157896" type="line"/>
      <point x="532.3684210526314" y="1069.842105263158"/>
      <point x="386.5263157894737" y="1074.4736842105265"/>
      <point x="249.4736842105263" y="1079.1052631578948" type="curve"/>
    </contour>
    <contour>
      <point x="577.1052631578948" y="0.0" type="curve"/>
      <point x="865.578947368421" y="0.0" type="line"/>
      <point x="912.3684210526316" y="136.63157894736844"/>
      <point x="953.7894736842105" y="261.8421052631579"/>
      <point x="1011.9473684210526" y="431.1578947368421" type="curve"/>
      <point x="1192.7894736842106" y="895.0526315789474" type="line"/>
      <point x="1270.1052631578946" y="1076.9473684210525"/>
      <point x="1316.1578947368423" y="1185.0526315789473"/>
      <point x="1379.4736842105262" y="1332.3157894736842" type="curve"/>
      <point x="1097.5789473684213" y="1332.3157894736842" type="line"/>
      <point x="1046.842105263158" y="1183.1578947368423"/>
      <point x="1008.6842105263158" y="1072.3684210526317"/>
      <point x="949.1578947368421" y="895.0526315789473" type="curve"/>
      <point x="768.3157894736843" y="431.1578947368421" type="line"/>
      <point x="692.3684210526314" y="259.89473684210526"/>
      <point x="635.1052631578948" y="131.3684210526316"/>
    </contour>
  </outline>
</glyph>
<glyph name="dollar" format="2">
  <advance width="1151.3684210526317"/>
  <unicode hex="0024"/>
  <outline>
    <contour>
      <point x="519.8947368421052" y="-25.894736842105264" type="curve" smooth="yes"/>
      <point x="855.1052631578948" y="-25.894736842105264"/>
      <point x="1008.9473684210527" y="86.26315789473685"/>
      <point x="1062.7894736842106" y="340.89473684210526" type="curve" smooth="yes"/>
      <point x="1106.6842105263158" y="548.421052631579"/>
      <point x="1024.1052631578948" y="668.4736842105264"/>
      <point x="737.8947368421053" y="787.9473684210526" type="curve" smooth="yes"/>
      <point x="569.9473684210527" y="858.5263157894738"/>
      <point x="509.5789473684211" y="917.421052631579"/>
      <point x="528.4736842105264" y="1007.7894736842105" type="curve" smooth="yes"/>
      <point x="548.7368421052632" y="1103.7368421052631"/>
      <point x="639.9473684210526" y="1131.9473684210527"/>
      <point x="738.8421052631579" y="1131.9473684210527" type="curve"/>
      <point x="774.9473684210526" y="1131.9473684210527"/>
      <point x="942.8947368421052" y="1073.3157894736842"/>
      <point x="1099.4736842105262" y="1006.6842105263158" type="curve"/>
      <point x="1186.6842105263158" y="1282.5263157894738" type="line"/>
      <point x="1042.5789473684213" y="1325.7894736842106"/>
      <point x="808.9473684210527" y="1397.2631578947369"/>
      <point x="696.7368421052631" y="1397.2631578947369" type="curve" smooth="yes"/>
      <point x="392.6842105263158" y="1397.2631578947369"/>
      <point x="238.05263157894737" y="1281.3684210526317"/>
      <point x="189.5263157894737" y="1047.4210526315787" type="curve" smooth="yes"/>
      <point x="138.94736842105263" y="805.2631578947368"/>
      <point x="260.8421052631579" y="690.7894736842105"/>
      <point x="491.36842105263156" y="595.1578947368421" type="curve" smooth="yes"/>
      <point x="652.9473684210526" y="528.0526315789474"/>
      <point x="742.7368421052631" y="467.6842105263158"/>
      <point x="723.8421052631579" y="373.9473684210526" type="curve" smooth="yes"/>
      <point x="700.8421052631579" y="265.0"/>
      <point x="622.1052631578948" y="234.1578947368421"/>
      <point x="506.7368421052632" y="234.1578947368421" type="curve"/>
      <point x="451.5263157894737" y="234.1578947368421"/>
      <point x="273.8947368421052" y="299.4210526315789"/>
      <point x="94.63157894736841" y="376.7894736842105" type="curve"/>
      <point x="9.421052631578942" y="89.73684210526315" type="line"/>
      <point x="193.78947368421052" y="31.578947368421055"/>
      <point x="417.26315789473693" y="-25.894736842105264"/>
    </contour>
    <contour>
      <point x="294.2631578947368" y="-274.0" type="curve"/>
      <point x="558.3157894736842" y="-274.0" type="line"/>
      <point x="583.5789473684212" y="-136.5263157894737"/>
      <point x="610.8421052631579" y="9.526315789473685"/>
      <point x="631.4736842105262" y="128.5263157894737" type="curve"/>
      <point x="391.1578947368421" y="128.5263157894737" type="line"/>
      <point x="363.2631578947369" y="10.842105263157896"/>
      <point x="328.10526315789474" y="-135.21052631578948"/>
    </contour>
    <contour>
      <point x="630.4210526315791" y="1256.578947368421" type="curve"/>
      <point x="873.3684210526316" y="1256.578947368421" type="line"/>
      <point x="897.9473684210526" y="1361.6315789473686"/>
      <point x="928.4736842105261" y="1487.1052631578946"/>
      <point x="957.0" y="1606.0" type="curve"/>
      <point x="694.2631578947369" y="1606.0" type="line"/>
      <point x="672.3157894736842" y="1487.1052631578946"/>
      <point x="650.3684210526317" y="1364.2631578947369"/>
    </contour>
  </outline>
</glyph>
<glyph name="ampersand" format="2">
  <advance width="1547.106796116505"/>
  <unicode hex="0026"/>
  <outline>
    <contour>
      <point x="1026.3495145631073" y="0.0" type="curve"/>
      <point x="1437.650485436893" y="0.0" type="line"/>
      <point x="1319.7475728155339" y="148.33009708737865"/>
      <point x="1207.631067961165" y="288.873786407767"/>
      <point x="1094.2524271844661" y="431.41747572815535" type="curve"/>
      <point x="767.2233009708738" y="874.0388349514562" type="line" smooth="yes"/>
      <point x="696.2912621359225" y="969.495145631068"/>
      <point x="677.4563106796118" y="1046.6407766990294"/>
      <point x="696.504854368932" y="1131.883495145631" type="curve" smooth="yes"/>
      <point x="714.0776699029127" y="1208.6990291262136"/>
      <point x="766.2718446601942" y="1243.747572815534"/>
      <point x="843.8252427184466" y="1247.747572815534" type="curve"/>
      <point x="924.6407766990291" y="1241.0097087378642"/>
      <point x="979.8834951456311" y="1183.9611650485438"/>
      <point x="964.3106796116505" y="1100.621359223301" type="curve" smooth="yes"/>
      <point x="952.7378640776698" y="1042.543689320388"/>
      <point x="847.8252427184466" y="962.9708737864075"/>
      <point x="739.2233009708739" y="888.5631067961165" type="curve"/>
      <point x="863.2427184466019" y="722.2135922330095" type="line"/>
      <point x="1006.388349514563" y="825.4757281553397"/>
      <point x="1200.2718446601941" y="953.1650485436893"/>
      <point x="1225.5339805825242" y="1077.7864077669904" type="curve" smooth="yes"/>
      <point x="1269.747572815534" y="1288.4271844660193"/>
      <point x="1091.9417475728155" y="1455.4757281553398"/>
      <point x="834.2330097087379" y="1455.4757281553398" type="curve" smooth="yes"/>
      <point x="628.4271844660194" y="1455.4757281553398"/>
      <point x="443.57281553398064" y="1372.116504854369"/>
      <point x="399.8834951456311" y="1157.5728155339807" type="curve" smooth="yes"/>
      <point x="368.621359223301" y="1005.4757281553398"/>
      <point x="421.24271844660194" y="855.5728155339806"/>
      <point x="506.60194174757277" y="738.7378640776699" type="curve" smooth="yes"/>
      <point x="849.1067961165048" y="272.0" type="line"/>
      <point x="906.6796116504854" y="183.26213592233012"/>
      <point x="968.7766990291262" y="88.7378640776699"/>
    </contour>
    <contour>
      <point x="455.76699029126206" y="-24.21359223300971" type="curve" smooth="yes"/>
      <point x="568.271844660194" y="-24.21359223300971"/>
      <point x="729.1067961165049" y="71.55339805825244"/>
      <point x="893.9611650485438" y="165.43689320388347" type="curve"/>
      <point x="924.1747572815533" y="165.43689320388347" type="line"/>
      <point x="916.6019417475728" y="217.02912621359224" type="line"/>
      <point x="798.1553398058252" y="374.42718446601936" type="line"/>
      <point x="696.9126213592233" y="302.6601941747572"/>
      <point x="563.4951456310681" y="224.6990291262136"/>
      <point x="528.3495145631067" y="224.6990291262136" type="curve"/>
      <point x="387.86407766990294" y="231.4368932038835"/>
      <point x="334.93203883495147" y="328.15533980582524"/>
      <point x="358.50485436893206" y="434.33009708737865" type="curve" smooth="yes"/>
      <point x="381.33980582524276" y="538.0776699029126"/>
      <point x="456.77669902912623" y="603.9611650485438"/>
      <point x="581.2621359223302" y="658.7961165048544" type="curve"/>
      <point x="476.0776699029126" y="835.7864077669904" type="line"/>
      <point x="281.02912621359224" y="768.3106796116505"/>
      <point x="102.50485436893202" y="655.0485436893205"/>
      <point x="55.24271844660192" y="428.95145631067965" type="curve" smooth="yes"/>
      <point x="7.029126213592216" y="199.5728155339806"/>
      <point x="144.3883495145631" y="-24.21359223300971"/>
    </contour>
    <contour>
      <point x="1131.8446601941748" y="333.45631067961165" type="line"/>
      <point x="1260.485436893204" y="447.7669902912621"/>
      <point x="1389.6504854368932" y="562.0776699029127"/>
      <point x="1519.0291262135925" y="677.1262135922331" type="curve"/>
      <point x="1264.8543689320386" y="866.6601941747573" type="line"/>
      <point x="1173.0679611650487" y="748.1359223300973"/>
      <point x="1083.8058252427186" y="633.3980582524273"/>
      <point x="988.2330097087378" y="509.82524271844665" type="curve"/>
    </contour>
  </outline>
</glyph>
<glyph name="quotesingle" format="2">
  <advance width="456.7894736842105"/>
  <unicode hex="0027"/>
  <outline>
    <contour>
      <point x="158.21052631578948" y="791.2105263157895" type="curve"/>
      <point x="387.2105263157895" y="793.2105263157895" type="line"/>
      <point x="452.2105263157895" y="1027.8947368421052"/>
      <point x="521.9473684210527" y="1258.6315789473686"/>
      <point x="591.0526315789473" y="1489.3157894736842" type="curve"/>
      <point x="253.47368421052627" y="1482.0526315789473" type="line"/>
      <point x="224.21052631578942" y="1255.3157894736842"/>
      <point x="194.26315789473688" y="1027.8947368421052"/>
    </contour>
  </outline>
</glyph>
<glyph name="parenleft" format="2">
  <advance width="829.3157894736842"/>
  <unicode hex="0028"/>
  <outline>
    <contour>
      <point x="394.3684210526316" y="-268.7368421052632" type="curve"/>
      <point x="647.9473684210527" y="-180.94736842105263" type="line"/>
      <point x="501.84210526315786" y="106.63157894736842"/>
      <point x="378.6315789473684" y="362.00000000000006"/>
      <point x="441.36842105263156" y="666.2105263157895" type="curve" smooth="yes"/>
      <point x="504.1052631578947" y="971.7368421052633"/>
      <point x="740.7368421052633" y="1200.8947368421052"/>
      <point x="994.0" y="1464.9473684210527" type="curve"/>
      <point x="748.3684210526316" y="1562.1052631578948" type="line"/>
      <point x="520.8421052631578" y="1347.9473684210527"/>
      <point x="210.57894736842104" y="1093.736842105263"/>
      <point x="130.68421052631578" y="703.7894736842105" type="curve" smooth="yes"/>
      <point x="50.78947368421052" y="314.5263157894737"/>
      <point x="260.89473684210526" y="-21.210526315789476"/>
    </contour>
  </outline>
</glyph>
<glyph name="asterisk" format="2">
  <advance width="988.3684210526316"/>
  <unicode hex="002A"/>
  <outline>
    <contour>
      <point x="873.3157894736843" y="640.1052631578946" type="curve"/>
      <point x="1019.3684210526316" y="800.0" type="line"/>
      <point x="896.2105263157894" y="892.1052631578947"/>
      <point x="769.7368421052632" y="983.578947368421"/>
      <point x="646.578947368421" y="1075.6842105263156" type="curve"/>
      <point x="543.8947368421054" y="1192.2631578947369"/>
      <point x="441.15789473684214" y="1310.1052631578946"/>
      <point x="339.7894736842105" y="1425.3157894736842" type="curve"/>
      <point x="194.42105263157893" y="1264.1052631578946" type="line"/>
      <point x="316.8947368421052" y="1170.6842105263158"/>
      <point x="440.7368421052631" y="1080.5263157894735"/>
      <point x="566.5263157894736" y="986.4210526315788" type="curve"/>
      <point x="668.5789473684212" y="871.2105263157896"/>
      <point x="771.9473684210527" y="754.0"/>
    </contour>
    <contour>
      <point x="203.4736842105263" y="781.5789473684209" type="line"/>
      <point x="344.1052631578948" y="846.1052631578948"/>
      <point x="484.10526315789474" y="910.6315789473684"/>
      <point x="625.421052631579" y="975.8421052631578" type="curve"/>
      <point x="775.3157894736843" y="1009.3684210526314"/>
      <point x="926.5263157894736" y="1043.5263157894738"/>
      <point x="1076.421052631579" y="1077.0526315789475" type="curve"/>
      <point x="1008.3157894736843" y="1283.8421052631577" type="line"/>
      <point x="869.0" y="1219.315789473684"/>
      <point x="729.0" y="1154.7894736842104"/>
      <point x="588.3684210526316" y="1090.2631578947369" type="curve"/>
      <point x="437.7894736842105" y="1054.7368421052631"/>
      <point x="285.2631578947368" y="1021.8947368421052"/>
      <point x="135.3684210526316" y="988.3684210526316" type="curve"/>
    </contour>
    <contour>
      <point x="403.2105263157894" y="603.9999999999999" type="curve"/>
      <point x="616.6315789473684" y="557.736842105263" type="line"/>
      <point x="634.1052631578947" y="712.3157894736842"/>
      <point x="648.9473684210526" y="865.578947368421"/>
      <point x="665.7368421052631" y="1020.8421052631578" type="curve"/>
      <point x="713.578947368421" y="1167.4736842105262"/>
      <point x="760.7368421052631" y="1314.1052631578946"/>
      <point x="808.5789473684212" y="1461.421052631579" type="curve"/>
      <point x="596.4736842105264" y="1506.3684210526314" type="line"/>
      <point x="579.0" y="1353.1052631578946"/>
      <point x="564.1578947368421" y="1198.5263157894738"/>
      <point x="547.3684210526316" y="1045.3157894736842" type="curve"/>
      <point x="499.52631578947364" y="897.3157894736842"/>
      <point x="451.0526315789473" y="751.3157894736842"/>
    </contour>
  </outline>
</glyph>
<glyph name="plus" format="2">
  <advance width="1199.4736842105262"/>
  <unicode hex="002B"/>
  <outline>
    <contour>
      <point x="362.7368421052631" y="102.36842105263158" type="curve"/>
      <point x="668.2631578947369" y="102.36842105263158" type="line"/>
      <point x="693.5789473684209" y="242.10526315789474"/>
      <point x="719.578947368421" y="386.57894736842104"/>
      <point x="737.5263157894738" y="485.5263157894737" type="curve"/>
      <point x="789.6315789473684" y="731.3157894736842" type="line"/>
      <point x="814.842105263158" y="832.8947368421053"/>
      <point x="850.1052631578947" y="976.1052631578948"/>
      <point x="884.0000000000001" y="1114.4736842105262" type="curve"/>
      <point x="578.4736842105262" y="1114.4736842105262" type="line"/>
      <point x="553.842105263158" y="979.4210526315791"/>
      <point x="525.8421052631579" y="828.2631578947369"/>
      <point x="507.8947368421052" y="731.3157894736842" type="curve"/>
      <point x="455.78947368421046" y="485.5263157894737" type="line"/>
      <point x="432.578947368421" y="387.2631578947368"/>
      <point x="397.3157894736841" y="241.42105263157896"/>
    </contour>
    <contour>
      <point x="92.1578947368421" y="461.2631578947368" type="line"/>
      <point x="231.8421052631579" y="465.8947368421052"/>
      <point x="379.0" y="470.52631578947364"/>
      <point x="477.9473684210526" y="473.1578947368421" type="curve"/>
      <point x="710.0526315789474" y="473.1578947368421" type="line"/>
      <point x="809.0" y="470.52631578947364"/>
      <point x="953.5263157894738" y="465.8947368421052"/>
      <point x="1090.5789473684213" y="461.2631578947368" type="curve"/>
      <point x="1153.2631578947369" y="755.5789473684212" type="line"/>
      <point x="1014.8947368421052" y="750.9473684210526"/>
      <point x="867.0526315789473" y="746.3157894736843"/>
      <point x="768.1052631578947" y="743.6842105263158" type="curve"/>
      <point x="536.0" y="743.6842105263158" type="line"/>
      <point x="437.0526315789474" y="746.3157894736843"/>
      <point x="293.2105263157895" y="750.9473684210526"/>
      <point x="154.8421052631579" y="755.5789473684212" type="curve"/>
    </contour>
  </outline>
</glyph>
<glyph name="comma" format="2">
  <advance width="508.2631578947369"/>
  <unicode hex="002C"/>
  <outline>
    <contour>
      <point x="-118.47368421052633" y="-314.0" type="curve"/>
      <point x="44.68421052631578" y="-310.6842105263158" type="line"/>
      <point x="131.31578947368422" y="-210.9473684210526"/>
      <point x="332.94736842105266" y="19.210526315789476"/>
      <point x="353.5263157894737" y="126.05263157894737" type="curve" smooth="yes"/>
      <point x="374.0526315789474" y="235.26315789473685"/>
      <point x="347.5263157894737" y="323.21052631578954"/>
      <point x="237.7368421052632" y="348.3157894736842" type="curve"/>
      <point x="68.0" y="335.7894736842105" type="line"/>
      <point x="59.99999999999999" y="247.0"/>
      <point x="51.368421052631575" y="158.21052631578948"/>
      <point x="42.05263157894736" y="77.31578947368422" type="curve"/>
      <point x="-4.631578947368423" y="-44.57894736842104"/>
      <point x="-68.42105263157896" y="-197.31578947368422"/>
    </contour>
  </outline>
</glyph>
<glyph name="hyphen" format="2">
  <advance width="853.1578947368421"/>
  <unicode hex="002D"/>
  <outline>
    <contour>
      <point x="90.8421052631579" y="454.6842105263158" type="line"/>
      <point x="208.6315789473684" y="459.31578947368416"/>
      <point x="333.8421052631579" y="463.9473684210526"/>
      <point x="418.2105263157895" y="466.57894736842104" type="curve"/>
      <point x="502.5789473684211" y="463.9473684210526"/>
      <point x="625.1578947368422" y="459.31578947368416"/>
      <point x="742.9473684210527" y="454.6842105263158" type="curve"/>
      <point x="804.3157894736842" y="749.0000000000001" type="line"/>
      <point x="685.2105263157895" y="744.3684210526316"/>
      <point x="560.6315789473684" y="739.7368421052632"/>
      <point x="474.9473684210526" y="737.1052631578948" type="curve"/>
      <point x="391.89473684210526" y="739.7368421052632"/>
      <point x="268.6842105263158" y="744.3684210526316"/>
      <point x="152.21052631578948" y="749.0000000000001" type="curve"/>
    </contour>
  </outline>
</glyph>
<glyph name="period" format="2">
  <advance width="534.578947368421"/>
  <unicode hex="002E"/>
  <outline>
    <contour>
      <point x="181.15789473684214" y="-27.210526315789473" type="curve" smooth="yes"/>
      <point x="300.94736842105266" y="-27.210526315789473"/>
      <point x="363.842105263158" y="29.000000000000007"/>
      <point x="387.0526315789474" y="143.68421052631578" type="curve" smooth="yes"/>
      <point x="406.2631578947369" y="247.73684210526315"/>
      <point x="347.89473684210526" y="343.57894736842104"/>
      <point x="210.94736842105266" y="343.57894736842104" type="curve" smooth="yes"/>
      <point x="78.68421052631581" y="343.57894736842104"/>
      <point x="28.26315789473684" y="289.3684210526316"/>
      <point x="10.368421052631573" y="197.89473684210526" type="curve" smooth="yes"/>
      <point x="-14.15789473684211" y="76.0"/>
      <point x="47.47368421052632" y="-27.210526315789473"/>
    </contour>
  </outline>
</glyph>
<glyph name="slash" format="2">
  <advance width="937.8421052631579"/>
  <unicode hex="002F"/>
  <outline>
    <contour>
      <point x="-84.57894736842105" y="0.0" type="curve"/>
      <point x="277.0" y="0.0" type="line"/>
      <point x="357.21052631578954" y="148.0"/>
      <point x="423.4210526315789" y="272.0"/>
      <point x="522.3684210526316" y="456.0" type="curve"/>
      <point x="810.2105263157895" y="948.0" type="line"/>
      <point x="928.3157894736843" y="1136.6842105263158"/>
      <point x="1009.0526315789474" y="1264.6842105263158"/>
      <point x="1111.7894736842106" y="1426.0" type="curve"/>
      <point x="751.5263157894738" y="1426.0" type="line"/>
      <point x="668.6315789473683" y="1272.6842105263158"/>
      <point x="600.4210526315788" y="1144.0"/>
      <point x="496.7894736842105" y="953.3157894736842" type="curve"/>
      <point x="205.63157894736844" y="456.0" type="line"/>
      <point x="89.52631578947366" y="275.94736842105266"/>
      <point x="10.789473684210533" y="149.94736842105263"/>
    </contour>
  </outline>
</glyph>
<glyph name="one" format="2">
  <advance width="923.8947368421052"/>
  <unicode hex="0031"/>
  <outline>
    <contour>
      <point x="195.63157894736844" y="840.0526315789473" type="line"/>
      <point x="364.89473684210526" y="919.4736842105264"/>
      <point x="532.7894736842106" y="998.2105263157895"/>
      <point x="704.6842105263157" y="1078.9473684210527" type="curve"/>
      <point x="777.8947368421052" y="1385.157894736842" type="line"/>
      <point x="573.6842105263157" y="1303.1052631578948"/>
      <point x="373.42105263157896" y="1223.0526315789473"/>
      <point x="170.5263157894737" y="1141.0" type="curve"/>
    </contour>
    <contour>
      <point x="292.05263157894734" y="0.0" type="curve"/>
      <point x="666.0" y="0.0" type="line"/>
      <point x="688.1052631578949" y="142.10526315789474"/>
      <point x="706.8947368421054" y="265.5263157894737"/>
      <point x="732.3157894736843" y="431.4736842105263" type="curve"/>
      <point x="830.9473684210527" y="896.6315789473684" type="line"/>
      <point x="872.8947368421053" y="1058.7368421052631"/>
      <point x="915.4736842105264" y="1217.421052631579"/>
      <point x="956.6842105263158" y="1375.8947368421052" type="curve"/>
      <point x="777.8947368421052" y="1385.157894736842" type="line"/>
      <point x="566.2105263157895" y="1242.578947368421" type="line"/>
      <point x="541.4736842105265" y="1105.1052631578948"/>
      <point x="516.6842105263158" y="962.1052631578947"/>
      <point x="493.3157894736842" y="832.1578947368421" type="curve"/>
      <point x="409.1578947368421" y="431.4736842105263" type="line"/>
      <point x="363.2631578947368" y="265.5263157894737"/>
      <point x="331.3157894736842" y="142.10526315789474"/>
    </contour>
  </outline>
</glyph>
<glyph name="two" format="2">
  <advance width="1141.2631578947369"/>
  <unicode hex="0032"/>
  <outline>
    <contour>
      <point x="-19.05263157894737" y="0.0" type="line"/>
      <point x="950.1578947368421" y="0.0" type="line"/>
      <point x="1015.4736842105262" y="306.7894736842105" type="line"/>
      <point x="880.4210526315788" y="296.89473684210526"/>
      <point x="747.315789473684" y="287.0"/>
      <point x="606.3157894736842" y="275.7894736842105" type="curve"/>
      <point x="360.8947368421053" y="275.7894736842105" type="line"/>
      <point x="394.63157894736844" y="205.10526315789477" type="line"/>
      <point x="620.1052631578947" y="355.94736842105266" type="line"/>
      <point x="935.0526315789473" y="565.6842105263158"/>
      <point x="1088.578947368421" y="719.421052631579"/>
      <point x="1133.3157894736842" y="932.4736842105264" type="curve" smooth="yes"/>
      <point x="1189.842105263158" y="1200.578947368421"/>
      <point x="1033.2105263157896" y="1405.157894736842"/>
      <point x="701.9473684210526" y="1405.157894736842" type="curve" smooth="yes"/>
      <point x="610.6315789473683" y="1405.157894736842"/>
      <point x="385.1052631578947" y="1343.5263157894735"/>
      <point x="246.21052631578948" y="1306.842105263158" type="curve"/>
      <point x="210.0" y="979.4736842105264" type="line"/>
      <point x="361.1578947368421" y="1044.2631578947364"/>
      <point x="587.421052631579" y="1133.2631578947369"/>
      <point x="622.9999999999999" y="1133.2631578947369" type="curve"/>
      <point x="762.8947368421053" y="1128.6315789473686"/>
      <point x="824.5263157894736" y="1048.421052631579"/>
      <point x="798.3157894736842" y="928.0526315789473" type="curve" smooth="yes"/>
      <point x="762.157894736842" y="757.8947368421052"/>
      <point x="571.0526315789474" y="611.421052631579"/>
      <point x="278.6842105263158" y="399.2105263157895" type="curve"/>
      <point x="195.73684210526315" y="345.57894736842104"/>
      <point x="114.05263157894737" y="292.5789473684211"/>
      <point x="31.10526315789474" y="238.94736842105263" type="curve"/>
    </contour>
  </outline>
</glyph>
<glyph name="three" format="2">
  <advance width="1169.2815533980583"/>
  <unicode hex="0033"/>
  <outline>
    <contour>
      <point x="487.4757281553398" y="-26.95145631067961" type="curve" smooth="yes"/>
      <point x="848.1359223300971" y="-26.95145631067961"/>
      <point x="1008.3495145631068" y="94.31067961165046"/>
      <point x="1057.8252427184466" y="329.1650485436894" type="curve" smooth="yes"/>
      <point x="1103.0873786407767" y="542.7378640776698"/>
      <point x="970.6796116504854" y="666.8349514563107"/>
      <point x="848.6796116504855" y="703.0485436893205" type="curve"/>
      <point x="853.4174757281553" y="728.73786407767" type="line"/>
      <point x="1000.2524271844661" y="756.0"/>
      <point x="1121.3009708737864" y="823.3592233009708"/>
      <point x="1157.3009708737864" y="994.0970873786409" type="curve" smooth="yes"/>
      <point x="1204.0388349514562" y="1216.3106796116504"/>
      <point x="1029.398058252427" y="1405.6893203883496"/>
      <point x="714.5242718446602" y="1405.6893203883496" type="curve" smooth="yes"/>
      <point x="625.0485436893204" y="1405.6893203883496"/>
      <point x="402.00000000000006" y="1343.0679611650487"/>
      <point x="263.66990291262135" y="1307.0679611650487" type="curve"/>
      <point x="226.6019417475728" y="983.2815533980583" type="line"/>
      <point x="377.009708737864" y="1046.3300970873784"/>
      <point x="604.8155339805826" y="1132.9708737864078"/>
      <point x="639.6504854368933" y="1132.9708737864078" type="curve"/>
      <point x="771.5145631067961" y="1127.495145631068"/>
      <point x="838.5436893203884" y="1065.514563106796"/>
      <point x="815.7087378640776" y="957.6504854368932" type="curve" smooth="yes"/>
      <point x="794.1359223300971" y="858.8349514563107"/>
      <point x="711.3203883495146" y="819.0679611650487"/>
      <point x="540.6407766990292" y="814.3300970873787" type="curve"/>
      <point x="488.7378640776699" y="819.0679611650487"/>
      <point x="437.04854368932035" y="823.8058252427186"/>
      <point x="388.4077669902913" y="827.2815533980582" type="curve"/>
      <point x="333.5533980582524" y="569.7475728155341" type="line"/>
      <point x="391.66990291262135" y="573.2233009708738"/>
      <point x="445.35922330097094" y="577.2233009708738"/>
      <point x="503.47572815533977" y="580.6990291262136" type="curve"/>
      <point x="675.4174757281554" y="577.2233009708738"/>
      <point x="760.2330097087379" y="506.8349514563107"/>
      <point x="735.6116504854369" y="392.34951456310677" type="curve" smooth="yes"/>
      <point x="714.7766990291262" y="295.22330097087377"/>
      <point x="643.5339805825244" y="249.24271844660197"/>
      <point x="490.9514563106796" y="244.5048543689321" type="curve"/>
      <point x="439.70873786407765" y="244.5048543689321"/>
      <point x="220.5242718446602" y="326.4077669902913"/>
      <point x="72.64077669902913" y="388.5048543689321" type="curve"/>
      <point x="-12.330097087378634" y="91.88349514563107" type="line"/>
      <point x="135.0291262135922" y="45.78640776699029"/>
      <point x="397.9029126213593" y="-26.95145631067961"/>
    </contour>
  </outline>
</glyph>
<glyph name="four" format="2">
  <advance width="1230.2330097087379"/>
  <unicode hex="0034"/>
  <outline>
    <contour>
      <point x="531.1067961165047" y="0.0" type="curve"/>
      <point x="905.3398058252428" y="0.0" type="line"/>
      <point x="925.8640776699029" y="132.95145631067962"/>
      <point x="941.1262135922331" y="243.37864077669903"/>
      <point x="965.6504854368932" y="403.2815533980583" type="curve"/>
      <point x="1069.4368932038835" y="894.2135922330096" type="line"/>
      <point x="1110.9126213592233" y="1052.73786407767"/>
      <point x="1153.1262135922332" y="1210.2135922330099"/>
      <point x="1196.6019417475727" y="1376.2135922330099" type="curve"/>
      <point x="817.6310679611651" y="1376.2135922330099" type="line"/>
      <point x="748.7961165048545" y="1291.902912621359"/>
      <point x="679.9611650485435" y="1209.5922330097087"/>
      <point x="613.1262135922331" y="1127.2815533980583" type="curve"/>
      <point x="399.24271844660194" y="890.6601941747573" type="line"/>
      <point x="294.4077669902913" y="780.5631067961165"/>
      <point x="152.31067961165047" y="630.6796116504855"/>
      <point x="53.4757281553398" y="526.5825242718446" type="curve"/>
      <point x="3.6699029126213514" y="286.504854368932" type="line"/>
      <point x="732.7184466019418" y="286.504854368932" type="line"/>
      <point x="850.0970873786407" y="281.02912621359224"/>
      <point x="1021.1650485436892" y="274.8155339805825"/>
      <point x="1129.0679611650482" y="270.07766990291253" type="curve"/>
      <point x="1194.5631067961162" y="579.8640776699029" type="line"/>
      <point x="1083.9223300970873" y="575.126213592233"/>
      <point x="910.1165048543688" y="567.6504854368933"/>
      <point x="788.7378640776699" y="562.1747572815534" type="curve"/>
      <point x="753.5728155339806" y="547.4174757281553" type="line"/>
      <point x="311.7669902912622" y="547.4174757281553" type="line"/>
      <point x="333.8834951456311" y="507.53398058252435" type="line"/>
      <point x="403.45631067961165" y="589.8446601941748"/>
      <point x="475.0291262135923" y="674.1553398058252"/>
      <point x="544.6019417475728" y="756.4660194174758" type="curve"/>
      <point x="825.1067961165048" y="1064.9708737864078" type="line"/>
      <point x="910.6796116504854" y="1152.3300970873786"/>
      <point x="992.7766990291262" y="1238.2135922330096"/>
      <point x="1080.3495145631068" y="1327.5728155339807" type="curve"/>
      <point x="817.7475728155339" y="1239.4368932038835" type="line"/>
      <point x="794.6990291262136" y="1101.126213592233"/>
      <point x="772.9126213592232" y="967.3398058252427"/>
      <point x="751.126213592233" y="829.0291262135922" type="curve"/>
      <point x="671.2427184466019" y="449.18446601941747" type="line"/>
      <point x="641.9611650485436" y="403.2815533980583" type="line"/>
      <point x="598.2718446601942" y="244.11650485436894"/>
      <point x="568.0582524271844" y="134.2135922330097"/>
    </contour>
  </outline>
</glyph>
<glyph name="six" format="2">
  <advance width="1237.0679611650487"/>
  <unicode hex="0036"/>
  <outline>
    <contour>
      <point x="597.378640776699" y="-26.95145631067961" type="curve" smooth="yes"/>
      <point x="932.3495145631068" y="-26.95145631067961"/>
      <point x="1093.3980582524273" y="174.31067961165047"/>
      <point x="1141.3980582524273" y="399.5728155339806" type="curve" smooth="yes"/>
      <point x="1200.1359223300972" y="674.7378640776699"/>
      <point x="1049.1844660194174" y="886.7184466019417"/>
      <point x="792.0388349514564" y="886.7184466019417" type="curve" smooth="yes"/>
      <point x="711.8446601941747" y="886.7184466019417"/>
      <point x="581.6699029126212" y="825.1650485436893"/>
      <point x="485.8834951456311" y="768.5436893203884" type="curve"/>
      <point x="450.9320388349515" y="769.8058252427184" type="line"/>
      <point x="358.05825242718447" y="672.2135922330098"/>
      <point x="349.3203883495146" y="641.6893203883495"/>
      <point x="407.24271844660194" y="548.1941747572815" type="curve"/>
      <point x="484.3689320388351" y="609.7475728155341"/>
      <point x="601.9999999999999" y="652.2524271844659"/>
      <point x="667.3592233009709" y="658.9902912621359" type="curve"/>
      <point x="802.0388349514564" y="652.2524271844659"/>
      <point x="857.7087378640776" y="556.504854368932"/>
      <point x="832.8737864077669" y="442.3300970873787" type="curve" smooth="yes"/>
      <point x="808.7766990291261" y="327.41747572815535"/>
      <point x="729.7475728155341" y="251.24271844660197"/>
      <point x="606.3300970873785" y="244.5048543689321" type="curve"/>
      <point x="456.81553398058253" y="259.4563106796117"/>
      <point x="376.621359223301" y="391.5145631067961"/>
      <point x="440.71844660194176" y="690.9514563106795" type="curve" smooth="yes"/>
      <point x="507.864077669903" y="1011.8446601941747"/>
      <point x="621.4174757281555" y="1126.2330097087379"/>
      <point x="829.3786407766991" y="1132.9708737864078" type="curve"/>
      <point x="856.9514563106796" y="1132.9708737864078"/>
      <point x="1040.5436893203882" y="1075.281553398058"/>
      <point x="1159.1650485436892" y="1027.7087378640779" type="curve"/>
      <point x="1249.087378640777" y="1316.8543689320388" type="line"/>
      <point x="1141.9223300970873" y="1347.378640776699"/>
      <point x="903.378640776699" y="1405.6893203883496"/>
      <point x="829.3786407766991" y="1405.6893203883496" type="curve" smooth="yes"/>
      <point x="505.06796116504853" y="1405.6893203883496"/>
      <point x="241.14563106796115" y="1247.3009708737866"/>
      <point x="132.19417475728153" y="731.8058252427184" type="curve" smooth="yes"/>
      <point x="35.24271844660192" y="269.47572815533977"/>
      <point x="206.93203883495147" y="-26.95145631067961"/>
    </contour>
  </outline>
</glyph>
<glyph name="seven" format="2">
  <advance width="1103.578947368421"/>
  <unicode hex="0037"/>
  <outline>
    <contour>
      <point x="60.36842105263158" y="0.0" type="curve"/>
      <point x="473.31578947368433" y="0.0" type="line"/>
      <point x="559.6842105263157" y="152.26315789473685"/>
      <point x="642.1052631578948" y="302.57894736842104"/>
      <point x="727.7894736842105" y="453.4736842105263" type="curve"/>
      <point x="892.8947368421053" y="711.2631578947369" type="line"/>
      <point x="989.2105263157895" y="856.3684210526316"/>
      <point x="1078.1578947368423" y="989.4210526315788"/>
      <point x="1172.421052631579" y="1131.7894736842104" type="curve"/>
      <point x="1223.8947368421052" y="1375.8947368421052" type="line"/>
      <point x="234.0" y="1375.8947368421052" type="line"/>
      <point x="168.68421052631578" y="1065.157894736842" type="line"/>
      <point x="322.99999999999994" y="1076.3684210526317"/>
      <point x="478.63157894736844" y="1088.8947368421054"/>
      <point x="632.9473684210527" y="1100.1052631578948" type="curve"/>
      <point x="888.8421052631579" y="1100.1052631578948" type="line"/>
      <point x="803.1052631578948" y="1163.5263157894738" type="line"/>
      <point x="748.8421052631578" y="1070.0"/>
      <point x="694.6315789473684" y="975.8421052631579"/>
      <point x="641.7368421052631" y="882.3157894736842" type="curve"/>
      <point x="394.4210526315789" y="500.89473684210526" type="line"/>
      <point x="284.84210526315786" y="335.94736842105266"/>
      <point x="171.9473684210526" y="167.63157894736844"/>
    </contour>
  </outline>
</glyph>
<glyph name="less" format="2">
  <advance width="1159.4736842105262"/>
  <unicode hex="003C"/>
  <outline>
    <contour>
      <point x="971.8684210526317" y="89.10526315789473" type="curve"/>
      <point x="1036.5526315789475" y="390.05263157894734" type="line"/>
      <point x="928.7631578947369" y="429.10526315789474"/>
      <point x="816.1315789473683" y="470.8947368421053"/>
      <point x="706.9736842105264" y="510.6315789473684" type="curve"/>
      <point x="534.7631578947369" y="582.578947368421" type="line"/>
      <point x="540.078947368421" y="607.7368421052631" type="line"/>
      <point x="740.5526315789474" y="677.0526315789473" type="line"/>
      <point x="866.5526315789473" y="715.4736842105264"/>
      <point x="998.0263157894738" y="757.2631578947368"/>
      <point x="1122.6578947368423" y="795.0" type="curve"/>
      <point x="1191.2894736842104" y="1126.3684210526317" type="line"/>
      <point x="1038.9736842105265" y="1067.1052631578948"/>
      <point x="898.5526315789473" y="1012.4736842105265"/>
      <point x="774.1315789473684" y="964.5263157894738" type="curve"/>
      <point x="566.6578947368421" y="890.3157894736842" type="line"/>
      <point x="444.92105263157896" y="850.9473684210526"/>
      <point x="303.18421052631584" y="804.8947368421052"/>
      <point x="155.5" y="758.2105263157895" type="curve"/>
      <point x="90.81578947368422" y="457.2631578947368" type="line"/>
      <point x="218.5" y="410.57894736842104"/>
      <point x="341.5526315789474" y="364.52631578947364"/>
      <point x="445.92105263157896" y="325.1578947368421" type="curve"/>
      <point x="622.6578947368421" y="250.94736842105263" type="line"/>
      <point x="725.7631578947368" y="203.0"/>
      <point x="843.5526315789475" y="147.68421052631578"/>
    </contour>
  </outline>
</glyph>
<glyph name="equal" format="2">
  <advance width="1159.4736842105262"/>
  <unicode hex="003D"/>
  <outline>
    <contour>
      <point x="54.73684210526314" y="218.36842105263156" type="line"/>
      <point x="194.421052631579" y="222.99999999999997"/>
      <point x="341.57894736842104" y="227.6315789473684"/>
      <point x="440.5263157894737" y="230.26315789473682" type="curve"/>
      <point x="606.3157894736842" y="230.26315789473682" type="line"/>
      <point x="705.2631578947368" y="227.6315789473684"/>
      <point x="849.7894736842104" y="222.99999999999997"/>
      <point x="986.842105263158" y="218.36842105263156" type="curve"/>
      <point x="1049.5263157894738" y="512.6842105263158" type="line"/>
      <point x="911.1578947368421" y="508.0526315789474"/>
      <point x="763.3157894736842" y="503.42105263157896"/>
      <point x="664.3684210526316" y="500.7894736842105" type="curve"/>
      <point x="498.5789473684211" y="500.7894736842105" type="line"/>
      <point x="399.63157894736844" y="503.42105263157896"/>
      <point x="255.78947368421058" y="508.0526315789474"/>
      <point x="117.42105263157893" y="512.6842105263158" type="curve"/>
    </contour>
    <contour>
      <point x="156.52631578947367" y="704.1578947368421" type="line"/>
      <point x="296.2105263157895" y="708.7894736842106"/>
      <point x="443.36842105263156" y="713.421052631579"/>
      <point x="542.3157894736842" y="716.0526315789474" type="curve"/>
      <point x="708.1052631578947" y="716.0526315789474" type="line"/>
      <point x="807.0526315789473" y="713.421052631579"/>
      <point x="951.578947368421" y="708.7894736842106"/>
      <point x="1088.6315789473686" y="704.1578947368421" type="curve"/>
      <point x="1151.3157894736842" y="998.4736842105264" type="line"/>
      <point x="1012.9473684210526" y="993.8421052631578"/>
      <point x="865.1052631578947" y="989.2105263157895"/>
      <point x="766.1578947368421" y="986.578947368421" type="curve"/>
      <point x="600.3684210526316" y="986.578947368421" type="line"/>
      <point x="501.42105263157896" y="989.2105263157895"/>
      <point x="357.5789473684211" y="993.8421052631578"/>
      <point x="219.21052631578948" y="998.4736842105264" type="curve"/>
    </contour>
  </outline>
</glyph>
<glyph name="greater" format="2">
  <advance width="1159.4736842105262"/>
  <unicode hex="003E"/>
  <outline>
    <contour>
      <point x="14.105263157894736" y="89.10526315789473" type="line"/>
      <point x="166.42105263157896" y="148.3684210526316"/>
      <point x="306.8421052631579" y="203.0"/>
      <point x="431.2631578947368" y="250.94736842105263" type="curve"/>
      <point x="638.7368421052632" y="325.1578947368421" type="line"/>
      <point x="760.4736842105262" y="364.52631578947364"/>
      <point x="902.2105263157895" y="410.57894736842104"/>
      <point x="1049.8947368421054" y="457.2631578947368" type="curve"/>
      <point x="1114.578947368421" y="758.2105263157895" type="line"/>
      <point x="986.8947368421053" y="804.8947368421053"/>
      <point x="863.8421052631578" y="850.9473684210526"/>
      <point x="759.4736842105264" y="890.3157894736842" type="curve"/>
      <point x="582.7368421052632" y="964.5263157894738" type="line"/>
      <point x="479.63157894736844" y="1012.4736842105264"/>
      <point x="361.842105263158" y="1067.7894736842106"/>
      <point x="233.5263157894737" y="1126.3684210526317" type="curve"/>
      <point x="168.8421052631579" y="825.421052631579" type="line"/>
      <point x="276.63157894736844" y="786.3684210526316"/>
      <point x="389.2631578947368" y="744.5789473684212"/>
      <point x="498.4210526315789" y="704.8421052631579" type="curve"/>
      <point x="670.6315789473683" y="632.8947368421052" type="line"/>
      <point x="665.3157894736842" y="607.7368421052631" type="line"/>
      <point x="464.84210526315786" y="538.421052631579" type="line"/>
      <point x="338.84210526315786" y="500.00000000000006"/>
      <point x="207.3684210526316" y="458.2105263157895"/>
      <point x="82.73684210526316" y="420.4736842105263" type="curve"/>
    </contour>
  </outline>
</glyph>
<glyph name="at" format="2">
  <advance width="1785.5263157894738"/>
  <unicode hex="0040"/>
  <outline>
    <contour>
      <point x="970.3157894736842" y="-290.0526315789474" type="curve" smooth="yes"/>
      <point x="1100.9473684210525" y="-290.0526315789474"/>
      <point x="1351.0" y="-209.26315789473685"/>
      <point x="1536.9473684210527" y="-156.47368421052633" type="curve"/>
      <point x="1536.9473684210527" y="53.05263157894738" type="line"/>
      <point x="1299.1578947368419" y="-37.52631578947368"/>
      <point x="1051.2631578947367" y="-105.63157894736841"/>
      <point x="970.3157894736842" y="-110.94736842105263" type="curve"/>
      <point x="443.6842105263158" y="-102.3157894736842"/>
      <point x="206.10526315789474" y="236.6315789473684"/>
      <point x="301.36842105263156" y="672.578947368421" type="curve" smooth="yes"/>
      <point x="373.57894736842104" y="1005.7368421052631"/>
      <point x="599.1578947368421" y="1207.2631578947369"/>
      <point x="960.3157894736842" y="1215.8947368421052" type="curve"/>
      <point x="1365.578947368421" y="1207.2631578947369"/>
      <point x="1593.8947368421054" y="948.1578947368421"/>
      <point x="1521.157894736842" y="547.3157894736842" type="curve" smooth="yes"/>
      <point x="1511.7368421052631" y="496.2105263157895"/>
      <point x="1378.2105263157896" y="326.7894736842106"/>
      <point x="1315.4736842105262" y="308.36842105263156" type="curve"/>
      <point x="1233.7368421052631" y="315.68421052631584"/>
      <point x="1205.4736842105262" y="364.4736842105263"/>
      <point x="1238.0526315789473" y="520.7894736842105" type="curve"/>
      <point x="1271.157894736842" y="678.2631578947369" type="line"/>
      <point x="1301.6842105263158" y="774.6315789473684"/>
      <point x="1334.2631578947367" y="877.2105263157895"/>
      <point x="1366.1578947368423" y="971.7894736842105" type="curve"/>
      <point x="1120.578947368421" y="959.2105263157895" type="line"/>
      <point x="1086.6315789473683" y="859.6842105263158" type="line"/>
      <point x="1066.1052631578948" y="859.6842105263158" type="line"/>
      <point x="997.421052631579" y="928.2105263157895"/>
      <point x="903.6842105263158" y="982.4736842105264"/>
      <point x="841.3157894736842" y="982.4736842105264" type="curve" smooth="yes"/>
      <point x="655.9473684210526" y="982.4736842105264"/>
      <point x="525.0526315789474" y="822.1052631578947"/>
      <point x="483.6315789473684" y="618.421052631579" type="curve" smooth="yes"/>
      <point x="432.31578947368416" y="365.3157894736842"/>
      <point x="540.1052631578947" y="138.10526315789474"/>
      <point x="763.6842105263157" y="138.10526315789474" type="curve" smooth="yes"/>
      <point x="813.2631578947368" y="138.10526315789474"/>
      <point x="906.8947368421053" y="192.8947368421053"/>
      <point x="1000.8421052631578" y="263.68421052631584" type="curve"/>
      <point x="1020.0526315789473" y="263.68421052631584" type="line"/>
      <point x="1057.7368421052631" y="188.26315789473682"/>
      <point x="1159.7368421052631" y="120.73684210526315"/>
      <point x="1329.4736842105262" y="120.73684210526315" type="curve" smooth="yes"/>
      <point x="1413.9473684210525" y="120.73684210526315"/>
      <point x="1679.5263157894738" y="352.0526315789473"/>
      <point x="1710.1052631578948" y="509.0" type="curve" smooth="yes"/>
      <point x="1805.3157894736842" y="998.5263157894736"/>
      <point x="1483.0526315789473" y="1395.0"/>
      <point x="963.6315789473684" y="1395.0" type="curve" smooth="yes"/>
      <point x="573.1052631578947" y="1395.0"/>
      <point x="212.26315789473685" y="1185.1052631578948"/>
      <point x="113.05263157894737" y="713.4736842105264" type="curve" smooth="yes"/>
      <point x="0.6315789473684212" y="182.42105263157896"/>
      <point x="319.52631578947364" y="-290.0526315789474"/>
    </contour>
    <contour>
      <point x="838.7894736842105" y="357.3157894736842" type="curve"/>
      <point x="742.0526315789474" y="361.3157894736842"/>
      <point x="702.2631578947369" y="460.2105263157895"/>
      <point x="725.8947368421052" y="574.2631578947369" type="curve" smooth="yes"/>
      <point x="748.1052631578947" y="679.8947368421052"/>
      <point x="809.3684210526316" y="753.3157894736843"/>
      <point x="904.5263157894736" y="758.6315789473684" type="curve"/>
      <point x="946.3157894736842" y="754.0"/>
      <point x="994.5263157894736" y="727.5263157894736"/>
      <point x="1028.4736842105265" y="697.0526315789473" type="curve"/>
      <point x="974.7368421052631" y="447.2105263157895" type="line"/>
      <point x="930.7368421052631" y="393.15789473684214"/>
      <point x="877.7894736842105" y="365.2631578947369"/>
    </contour>
  </outline>
</glyph>
<glyph name="A" format="2">
  <advance width="1447.842105263158"/>
  <unicode hex="0041"/>
  <anchor x="619.2631578947369" y="0.0" name="bottom"/>
  <anchor x="1319.9473684210527" y="0.0" name="ogonek"/>
  <anchor x="916.6315789473684" y="1426.0" name="top"/>
  <outline>
    <contour>
      <point x="-89.36842105263158" y="0.0" type="curve"/>
      <point x="332.21052631578954" y="0.0" type="line"/>
      <point x="394.78947368421046" y="149.10526315789474"/>
      <point x="463.3684210526316" y="312.78947368421046"/>
      <point x="525.2631578947368" y="460.5263157894737" type="curve"/>
      <point x="851.3157894736843" y="1134.2631578947369" type="line"/>
      <point x="876.4736842105264" y="1134.2631578947369" type="line"/>
      <point x="926.3157894736842" y="457.2105263157894" type="line"/>
      <point x="928.0" y="312.1578947368421"/>
      <point x="929.7368421052631" y="146.36842105263156"/>
      <point x="931.4210526315788" y="0.0" type="curve"/>
      <point x="1327.842105263158" y="0.0" type="line"/>
      <point x="1302.4736842105262" y="147.3684210526316"/>
      <point x="1271.7894736842106" y="327.94736842105266"/>
      <point x="1245.7368421052631" y="479.42105263157896" type="curve"/>
      <point x="1190.6842105263158" y="974.0" type="line"/>
      <point x="1183.1052631578948" y="1144.6315789473683"/>
      <point x="1176.8947368421052" y="1278.7368421052631"/>
      <point x="1170.6842105263158" y="1426.0" type="curve"/>
      <point x="668.5789473684209" y="1426.0" type="line"/>
      <point x="598.3684210526314" y="1278.0000000000002"/>
      <point x="534.8421052631579" y="1142.6842105263158"/>
      <point x="455.2631578947368" y="974.6842105263158" type="curve"/>
      <point x="194.8421052631579" y="486.0" type="line"/>
      <point x="104.7894736842105" y="332.6842105263158"/>
      <point x="1.3684210526315752" y="154.68421052631578"/>
    </contour>
    <contour>
      <point x="349.42105263157896" y="291.52631578947364" type="line"/>
      <point x="1044.6842105263158" y="291.52631578947364" type="line"/>
      <point x="1067.2105263157896" y="548.8947368421053" type="line"/>
      <point x="439.0526315789474" y="548.8947368421053" type="line"/>
    </contour>
  </outline>
</glyph>
<glyph name="C" format="2">
  <advance width="1365.7631578947369"/>
  <unicode hex="0043"/>
  <anchor x="686.5" y="0.0" name="bottom"/>
  <anchor x="979.6578947368421" y="1426.0" name="top"/>
  <outline>
    <contour>
      <point x="768.921052631579" y="-27.210526315789473" type="curve" smooth="yes"/>
      <point x="845.1315789473683" y="-27.210526315789473"/>
      <point x="1065.3947368421054" y="19.578947368421048"/>
      <point x="1177.5" y="54.36842105263158" type="curve"/>
      <point x="1228.8684210526317" y="383.7894736842105" type="line"/>
      <point x="1090.078947368421" y="323.0"/>
      <point x="882.9210526315791" y="255.8947368421053"/>
      <point x="827.4473684210527" y="255.8947368421053" type="curve"/>
      <point x="530.9736842105264" y="263.21052631578954"/>
      <point x="429.44736842105266" y="507.99999999999994"/>
      <point x="481.8157894736842" y="757.0526315789474" type="curve" smooth="yes"/>
      <point x="542.8157894736843" y="1047.8947368421052"/>
      <point x="734.5526315789474" y="1155.6315789473683"/>
      <point x="931.5526315789473" y="1162.9473684210525" type="curve"/>
      <point x="974.3947368421054" y="1162.9473684210525"/>
      <point x="1178.2894736842104" y="1103.6842105263158"/>
      <point x="1365.657894736842" y="1031.7368421052633" type="curve"/>
      <point x="1459.3947368421052" y="1352.421052631579" type="line"/>
      <point x="1300.6052631578948" y="1398.3157894736844"/>
      <point x="1052.6052631578948" y="1455.2631578947369"/>
      <point x="965.8157894736843" y="1455.2631578947369" type="curve" smooth="yes"/>
      <point x="502.6052631578947" y="1455.2631578947369"/>
      <point x="222.28947368421052" y="1229.2631578947369"/>
      <point x="133.60526315789474" y="803.2631578947369" type="curve" smooth="yes"/>
      <point x="40.34210526315788" y="359.6315789473684"/>
      <point x="268.6578947368421" y="-27.210526315789473"/>
    </contour>
  </outline>
</glyph>
<glyph name="D" format="2">
  <advance width="1472.7368421052631"/>
  <unicode hex="0044"/>
  <anchor x="601.2631578947369" y="0.0" name="bottom"/>
  <anchor x="783.0526315789474" y="714.0" name="center"/>
  <anchor x="901.2631578947369" y="1426.0" name="top"/>
  <outline>
    <contour>
      <point x="10.684210526315782" y="0.0" type="curve"/>
      <point x="184.0" y="0.0"/>
      <point x="355.9473684210526" y="-12.526315789473685"/>
      <point x="575.3684210526316" y="-12.526315789473685" type="curve"/>
      <point x="1134.2105263157896" y="-12.526315789473685"/>
      <point x="1352.7894736842106" y="259.31578947368416"/>
      <point x="1436.157894736842" y="663.3684210526316" type="curve" smooth="yes"/>
      <point x="1521.4736842105265" y="1079.8421052631577"/>
      <point x="1310.2105263157894" y="1435.8947368421052"/>
      <point x="857.8947368421053" y="1435.8947368421052" type="curve"/>
      <point x="662.8421052631579" y="1435.8947368421052"/>
      <point x="467.4210526315789" y="1426.0"/>
      <point x="310.6842105263158" y="1426.0" type="curve"/>
      <point x="286.57894736842104" y="1270.6315789473686"/>
      <point x="266.4736842105263" y="1138.4736842105262"/>
      <point x="237.05263157894734" y="947.3157894736843" type="curve"/>
      <point x="134.42105263157893" y="464.1578947368421" type="line"/>
      <point x="85.89473684210526" y="283.57894736842104"/>
      <point x="51.94736842105262" y="154.15789473684208"/>
    </contour>
    <contour>
      <point x="448.0" y="275.1578947368421" type="line"/>
      <point x="462.1578947368421" y="355.89473684210526"/>
      <point x="478.9473684210526" y="442.42105263157896"/>
      <point x="498.4210526315789" y="551.0" type="curve"/>
      <point x="565.5263157894736" y="868.4210526315788" type="line"/>
      <point x="592.9473684210526" y="980.9473684210526"/>
      <point x="613.0526315789473" y="1063.5263157894738"/>
      <point x="635.157894736842" y="1150.842105263158" type="curve"/>
      <point x="776.1052631578947" y="1150.842105263158" type="line"/>
      <point x="1051.3157894736844" y="1140.8947368421052"/>
      <point x="1135.6842105263158" y="942.0000000000001"/>
      <point x="1082.6842105263158" y="694.4736842105264" type="curve" smooth="yes"/>
      <point x="1030.3157894736844" y="445.3684210526316"/>
      <point x="924.736842105263" y="286.4210526315789"/>
      <point x="606.3157894736842" y="275.1578947368421" type="curve"/>
    </contour>
  </outline>
</glyph>
<glyph name="E" format="2">
  <advance width="1199.271844660194"/>
  <unicode hex="0045"/>
  <anchor x="515.6796116504854" y="0.0" name="bottom"/>
  <anchor x="991.1747572815534" y="0.0" name="ogonek"/>
  <anchor x="815.6796116504854" y="1426.0" name="top"/>
  <anchor x="269.368932038835" y="1426.0" name="topleft"/>
  <outline>
    <contour>
      <point x="10.378640776699031" y="0.0" type="curve"/>
      <point x="401.0388349514563" y="0.0" type="line"/>
      <point x="413.9902912621359" y="54.757281553398066" type="line"/>
      <point x="437.03883495145635" y="206.54368932038835"/>
      <point x="456.8252427184466" y="340.8543689320388"/>
      <point x="484.61165048543694" y="519.0679611650486" type="curve"/>
      <point x="562.7087378640778" y="894.504854368932" type="line"/>
      <point x="612.3980582524272" y="1079.4563106796115"/>
      <point x="647.8737864077672" y="1214.7184466019417"/>
      <point x="690.0873786407767" y="1371.2427184466019" type="curve"/>
      <point x="701.0388349514564" y="1426.0" type="line"/>
      <point x="310.37864077669906" y="1426.0" type="line"/>
      <point x="285.3300970873786" y="1270.7378640776699"/>
      <point x="265.54368932038835" y="1138.4271844660195"/>
      <point x="237.01941747572815" y="946.7378640776699" type="curve"/>
      <point x="134.28155339805826" y="464.31067961165047" type="line"/>
      <point x="85.33009708737866" y="284.09708737864077"/>
      <point x="51.85436893203883" y="154.31067961165047"/>
    </contour>
    <contour>
      <point x="336.2815533980583" y="0.0" type="line"/>
      <point x="998.1262135922331" y="0.0" type="line"/>
      <point x="1064.145631067961" y="307.14563106796123" type="line"/>
      <point x="932.0485436893205" y="298.9320388349515"/>
      <point x="790.1650485436893" y="289.4563106796117"/>
      <point x="632.2815533980583" y="279.9805825242719" type="curve"/>
      <point x="395.56310679611653" y="279.9805825242719" type="line"/>
    </contour>
    <contour>
      <point x="418.5728155339806" y="588.6990291262136" type="line"/>
      <point x="677.7184466019418" y="588.6990291262136" type="line"/>
      <point x="845.0776699029126" y="582.4854368932039"/>
      <point x="959.3883495145632" y="577.747572815534"/>
      <point x="1080.9611650485435" y="574.2718446601942" type="curve"/>
      <point x="1142.766990291262" y="865.8252427184467" type="line"/>
      <point x="1024.4563106796118" y="861.0873786407768"/>
      <point x="906.8834951456311" y="855.611650485437"/>
      <point x="733.3106796116505" y="848.1359223300972" type="curve"/>
      <point x="472.90291262135923" y="848.1359223300972" type="line"/>
    </contour>
    <contour>
      <point x="555.8349514563107" y="1146.0194174757282" type="line"/>
      <point x="790.0291262135923" y="1146.0194174757282" type="line"/>
      <point x="974.4368932038836" y="1135.0679611650485"/>
      <point x="1102.3203883495146" y="1126.3300970873788"/>
      <point x="1226.4174757281553" y="1118.854368932039" type="curve"/>
      <point x="1290.4368932038833" y="1426.0" type="line"/>
      <point x="614.3786407766991" y="1426.0" type="line"/>
    </contour>
  </outline>
</glyph>
<glyph name="F" format="2">
  <advance width="1161.7368421052631"/>
  <unicode hex="0046"/>
  <outline>
    <contour>
      <point x="10.684210526315782" y="0.0" type="curve"/>
      <point x="401.7894736842106" y="0.0" type="line"/>
      <point x="425.89473684210526" y="152.78947368421052"/>
      <point x="444.00000000000006" y="282.84210526315786"/>
      <point x="472.10526315789474" y="464.1578947368421" type="curve"/>
      <point x="562.8947368421053" y="894.0" type="line"/>
      <point x="611.4210526315791" y="1079.2105263157896"/>
      <point x="650.0000000000001" y="1214.578947368421"/>
      <point x="691.2631578947369" y="1371.3157894736842" type="curve"/>
      <point x="701.7894736842105" y="1426.0" type="line"/>
      <point x="310.6842105263158" y="1426.0" type="line"/>
      <point x="286.57894736842104" y="1270.6315789473686"/>
      <point x="266.4736842105263" y="1138.4736842105262"/>
      <point x="237.05263157894734" y="947.3157894736843" type="curve"/>
      <point x="134.42105263157893" y="464.1578947368421" type="line"/>
      <point x="85.89473684210526" y="283.57894736842104"/>
      <point x="51.94736842105262" y="154.15789473684208"/>
    </contour>
    <contour>
      <point x="406.10526315789474" y="559.7894736842105" type="line"/>
      <point x="658.3157894736843" y="559.7894736842105" type="line"/>
      <point x="825.2631578947369" y="553.2105263157895"/>
      <point x="938.1052631578949" y="548.578947368421"/>
      <point x="1060.315789473684" y="544.6315789473684" type="curve"/>
      <point x="1125.6315789473683" y="852.7894736842105" type="line"/>
      <point x="1007.4736842105262" y="848.1578947368421"/>
      <point x="890.6315789473683" y="842.2105263157895"/>
      <point x="716.421052631579" y="834.9473684210526" type="curve"/>
      <point x="463.5263157894737" y="834.9473684210526" type="line"/>
    </contour>
    <contour>
      <point x="548.7368421052632" y="1139.0" type="line"/>
      <point x="775.7368421052632" y="1139.0" type="line"/>
      <point x="961.5263157894736" y="1127.7894736842106"/>
      <point x="1088.5263157894738" y="1119.842105263158"/>
      <point x="1212.1052631578946" y="1112.578947368421" type="curve"/>
      <point x="1277.421052631579" y="1426.0" type="line"/>
      <point x="608.7894736842106" y="1426.0" type="line"/>
    </contour>
  </outline>
</glyph>
<glyph name="H" format="2">
  <advance width="1514.4736842105262"/>
  <unicode hex="0048"/>
  <anchor x="652.578947368421" y="0.0" name="bottom"/>
  <anchor x="802.578947368421" y="714.0" name="center"/>
  <anchor x="952.578947368421" y="1426.0" name="top"/>
  <anchor x="275.89473684210526" y="1426.0" name="topleft"/>
  <outline>
    <contour>
      <point x="894.1578947368421" y="0.0" type="curve"/>
      <point x="1293.157894736842" y="0.0" type="line"/>
      <point x="1315.9473684210527" y="150.1578947368421"/>
      <point x="1335.3684210526314" y="280.2105263157894"/>
      <point x="1363.4736842105265" y="464.1578947368421" type="curve"/>
      <point x="1466.1052631578948" y="947.3157894736843" type="line"/>
      <point x="1516.6315789473683" y="1137.842105263158"/>
      <point x="1551.8947368421052" y="1269.2631578947369"/>
      <point x="1593.157894736842" y="1426.0" type="curve"/>
      <point x="1194.157894736842" y="1426.0" type="line"/>
      <point x="1170.0526315789475" y="1270.6315789473686"/>
      <point x="1149.9473684210527" y="1138.4736842105262"/>
      <point x="1120.5263157894738" y="947.3157894736843" type="curve"/>
      <point x="1017.8947368421053" y="464.1578947368421" type="line"/>
      <point x="969.3684210526316" y="283.57894736842104"/>
      <point x="935.421052631579" y="154.15789473684208"/>
    </contour>
    <contour>
      <point x="10.684210526315782" y="0.0" type="curve"/>
      <point x="409.6842105263158" y="0.0" type="line"/>
      <point x="432.47368421052624" y="150.1578947368421"/>
      <point x="451.89473684210526" y="280.2105263157894"/>
      <point x="479.99999999999994" y="464.1578947368421" type="curve"/>
      <point x="582.6315789473684" y="947.3157894736843" type="line"/>
      <point x="633.1578947368421" y="1137.842105263158"/>
      <point x="668.421052631579" y="1269.2631578947369"/>
      <point x="709.6842105263158" y="1426.0" type="curve"/>
      <point x="310.6842105263158" y="1426.0" type="line"/>
      <point x="286.57894736842104" y="1270.6315789473686"/>
      <point x="266.4736842105263" y="1138.4736842105262"/>
      <point x="237.05263157894734" y="947.3157894736843" type="curve"/>
      <point x="134.42105263157893" y="464.1578947368421" type="line"/>
      <point x="85.89473684210526" y="283.57894736842104"/>
      <point x="51.94736842105262" y="154.15789473684208"/>
    </contour>
    <contour>
      <point x="409.0" y="574.2631578947369" type="line"/>
      <point x="1139.5263157894738" y="574.2631578947369" type="line"/>
      <point x="1200.8947368421052" y="861.2631578947369" type="line"/>
      <point x="470.3684210526316" y="861.2631578947369" type="line"/>
    </contour>
  </outline>
</glyph>
<glyph name="I" format="2">
  <advance width="650.7368421052631"/>
  <unicode hex="0049"/>
  <anchor x="213.78947368421052" y="0.0" name="bottom"/>
  <anchor x="416.2631578947368" y="0.0" name="ogonek"/>
  <anchor x="513.7894736842105" y="1426.0" name="top"/>
  <anchor x="260.7894736842105" y="1426.0" name="topleft"/>
  <outline>
    <contour>
      <point x="17.26315789473682" y="0.0" type="curve"/>
      <point x="422.8421052631579" y="0.0" type="line"/>
      <point x="445.6315789473684" y="150.1578947368421"/>
      <point x="465.0526315789474" y="280.2105263157894"/>
      <point x="493.1578947368421" y="464.1578947368421" type="curve"/>
      <point x="595.7894736842106" y="947.3157894736843" type="line"/>
      <point x="646.3157894736843" y="1137.842105263158"/>
      <point x="681.5789473684212" y="1269.2631578947369"/>
      <point x="722.842105263158" y="1426.0" type="curve"/>
      <point x="317.2631578947368" y="1426.0" type="line"/>
      <point x="293.1578947368421" y="1270.6315789473686"/>
      <point x="273.05263157894734" y="1138.4736842105262"/>
      <point x="243.63157894736838" y="947.3157894736843" type="curve"/>
      <point x="140.99999999999997" y="464.1578947368421" type="line"/>
      <point x="92.4736842105263" y="283.57894736842104"/>
      <point x="58.52631578947366" y="154.15789473684208"/>
    </contour>
  </outline>
</glyph>
<glyph name="J" format="2">
  <advance width="655.1578947368421"/>
  <unicode hex="004A"/>
  <anchor x="222.78947368421052" y="0.0" name="bottom"/>
  <anchor x="522.7894736842105" y="1426.0" name="top"/>
  <outline>
    <contour>
      <point x="-148.89473684210526" y="-309.4736842105263" type="curve"/>
      <point x="174.63157894736847" y="-309.4736842105263" type="line"/>
      <point x="253.89473684210526" y="-212.05263157894737"/>
      <point x="423.36842105263156" y="16.94736842105263"/>
      <point x="446.4736842105263" y="127.89473684210527" type="curve" smooth="yes"/>
      <point x="483.1052631578948" y="300.3157894736842"/>
      <point x="501.2631578947369" y="482.0"/>
      <point x="540.5263157894736" y="668.3157894736842" type="curve"/>
      <point x="600.2105263157895" y="947.3157894736843" type="line"/>
      <point x="650.7368421052631" y="1137.842105263158"/>
      <point x="686.0000000000001" y="1269.2631578947369"/>
      <point x="727.2631578947369" y="1426.0" type="curve"/>
      <point x="328.2631578947369" y="1426.0" type="line"/>
      <point x="304.15789473684214" y="1270.6315789473686"/>
      <point x="284.0526315789474" y="1138.4736842105262"/>
      <point x="254.6315789473684" y="947.3157894736843" type="curve"/>
      <point x="190.1578947368421" y="645.7368421052631" type="line"/>
      <point x="73.78947368421052" y="128.47368421052633" type="line"/>
      <point x="-8.578947368421046" y="-32.10526315789473"/>
      <point x="-77.36842105263158" y="-169.73684210526315"/>
    </contour>
  </outline>
</glyph>
<glyph name="K" format="2">
  <advance width="1409.842105263158"/>
  <unicode hex="004B"/>
  <anchor x="616.578947368421" y="0.0" name="bottom"/>
  <anchor x="916.578947368421" y="1426.0" name="top"/>
  <outline>
    <contour>
      <point x="849.6842105263157" y="0.0" type="curve"/>
      <point x="1295.1052631578948" y="0.0" type="line"/>
      <point x="1216.6842105263158" y="129.84210526315786"/>
      <point x="1091.3684210526314" y="338.2105263157895"/>
      <point x="999.5263157894736" y="490.0526315789474" type="curve"/>
      <point x="813.0" y="829.5789473684212" type="line"/>
      <point x="811.7368421052631" y="675.1578947368421" type="line"/>
      <point x="1094.0526315789475" y="966.2631578947369" type="line"/>
      <point x="1248.5263157894738" y="1117.4736842105265"/>
      <point x="1402.3684210526314" y="1266.736842105263"/>
      <point x="1566.263157894737" y="1426.0" type="curve"/>
      <point x="1093.6315789473686" y="1426.0" type="line"/>
      <point x="984.3157894736842" y="1294.9473684210527"/>
      <point x="907.4736842105262" y="1199.4210526315792"/>
      <point x="821.1578947368421" y="1093.842105263158" type="curve"/>
      <point x="619.2105263157895" y="876.5263157894738" type="line"/>
      <point x="539.1578947368421" y="876.5263157894738" type="line"/>
      <point x="483.0526315789474" y="606.6315789473684" type="line"/>
      <point x="567.6842105263157" y="606.6315789473684" type="line"/>
      <point x="702.3157894736842" y="339.36842105263156" type="line"/>
      <point x="747.7894736842106" y="235.15789473684214"/>
      <point x="794.0" y="128.26315789473685"/>
    </contour>
    <contour>
      <point x="10.684210526315782" y="0.0" type="curve"/>
      <point x="408.3684210526316" y="0.0" type="line"/>
      <point x="431.1578947368421" y="150.1578947368421"/>
      <point x="450.5789473684211" y="280.2105263157894"/>
      <point x="478.6842105263158" y="464.1578947368421" type="curve"/>
      <point x="581.3157894736843" y="947.3157894736843" type="line"/>
      <point x="631.8421052631579" y="1137.842105263158"/>
      <point x="667.1052631578948" y="1269.2631578947369"/>
      <point x="708.3684210526317" y="1426.0" type="curve"/>
      <point x="310.6842105263158" y="1426.0" type="line"/>
      <point x="286.57894736842104" y="1270.6315789473686"/>
      <point x="266.4736842105263" y="1138.4736842105262"/>
      <point x="237.05263157894734" y="947.3157894736843" type="curve"/>
      <point x="134.42105263157893" y="464.1578947368421" type="line"/>
      <point x="85.89473684210526" y="283.57894736842104"/>
      <point x="51.94736842105262" y="154.15789473684208"/>
    </contour>
  </outline>
</glyph>
<glyph name="L" format="2">
  <advance width="1149.1052631578948"/>
  <unicode hex="004C"/>
  <anchor x="505.05263157894734" y="0.0" name="bottom"/>
  <anchor x="926.578947368421" y="717.9473684210526" name="center"/>
  <anchor x="657.3684210526317" y="1426.0" name="top"/>
  <anchor x="717.6315789473683" y="998.5263157894736" name="topright"/>
  <outline>
    <contour>
      <point x="10.684210526315782" y="0.0" type="curve"/>
      <point x="409.6842105263158" y="0.0" type="line"/>
      <point x="422.2105263157895" y="55.36842105263158" type="line"/>
      <point x="435.78947368421046" y="208.1578947368421"/>
      <point x="455.2105263157895" y="339.57894736842104"/>
      <point x="492.52631578947364" y="519.5263157894736" type="curve"/>
      <point x="582.6315789473684" y="947.3157894736843" type="line"/>
      <point x="633.1578947368421" y="1137.842105263158"/>
      <point x="668.421052631579" y="1269.2631578947369"/>
      <point x="709.6842105263158" y="1426.0" type="curve"/>
      <point x="310.6842105263158" y="1426.0" type="line"/>
      <point x="286.57894736842104" y="1270.6315789473686"/>
      <point x="266.4736842105263" y="1138.4736842105262"/>
      <point x="237.05263157894734" y="947.3157894736843" type="curve"/>
      <point x="134.42105263157893" y="464.1578947368421" type="line"/>
      <point x="85.89473684210526" y="283.57894736842104"/>
      <point x="51.94736842105262" y="154.15789473684208"/>
    </contour>
    <contour>
      <point x="336.4210526315789" y="0.0" type="line"/>
      <point x="986.2105263157895" y="0.0" type="line"/>
      <point x="1056.7894736842106" y="335.7894736842105" type="line"/>
      <point x="913.7894736842106" y="324.57894736842104"/>
      <point x="794.1578947368421" y="316.0"/>
      <point x="588.9473684210526" y="300.1578947368421" type="curve"/>
      <point x="400.4210526315789" y="300.1578947368421" type="line"/>
    </contour>
  </outline>
</glyph>
<glyph name="M" format="2">
  <advance width="1928.3157894736844"/>
  <unicode hex="004D"/>
  <anchor x="857.8421052631579" y="0.0" name="bottom"/>
  <anchor x="1157.842105263158" y="1426.0" name="top"/>
  <outline>
    <contour>
      <point x="-33.57894736842106" y="0.0" type="curve"/>
      <point x="347.0526315789474" y="0.0" type="line"/>
      <point x="396.31578947368416" y="188.63157894736844"/>
      <point x="444.2105263157895" y="367.2631578947368"/>
      <point x="484.6842105263158" y="522.2631578947369" type="curve"/>
      <point x="594.0526315789474" y="851.1578947368421" type="line"/>
      <point x="617.1578947368421" y="851.1578947368421" type="line"/>
      <point x="675.8947368421052" y="496.6842105263158" type="line"/>
      <point x="693.0000000000001" y="331.5263157894737"/>
      <point x="710.8421052631579" y="148.15789473684208"/>
      <point x="725.2105263157895" y="0.0" type="curve"/>
      <point x="1005.6315789473684" y="0.0" type="line"/>
      <point x="1081.7894736842102" y="150.26315789473685"/>
      <point x="1170.2105263157894" y="327.5263157894737"/>
      <point x="1257.2105263157896" y="498.05263157894734" type="curve"/>
      <point x="1449.157894736842" y="851.1578947368421" type="line"/>
      <point x="1472.2631578947367" y="851.1578947368421" type="line"/>
      <point x="1442.7368421052631" y="522.2631578947369" type="line"/>
      <point x="1417.421052631579" y="367.2105263157895"/>
      <point x="1390.105263157895" y="192.68421052631578"/>
      <point x="1360.1052631578948" y="0.0" type="curve"/>
      <point x="1750.5789473684213" y="0.0" type="line"/>
      <point x="1755.368421052632" y="151.4736842105263"/>
      <point x="1759.4736842105262" y="290.8421052631579"/>
      <point x="1764.2631578947369" y="464.1578947368421" type="curve"/>
      <point x="1804.3157894736842" y="944.6842105263158" type="line"/>
      <point x="1827.578947368421" y="1118.0526315789475"/>
      <point x="1846.842105263158" y="1267.2631578947369"/>
      <point x="1866.7894736842104" y="1426.0" type="curve"/>
      <point x="1463.7368421052631" y="1426.0" type="line"/>
      <point x="1378.2631578947369" y="1260.4210526315787"/>
      <point x="1305.4736842105265" y="1118.7894736842104"/>
      <point x="1228.0" y="969.1578947368421" type="curve"/>
      <point x="980.5263157894736" y="533.6842105263158" type="line"/>
      <point x="958.0526315789474" y="533.6842105263158" type="line"/>
      <point x="885.2631578947369" y="969.1578947368421" type="line"/>
      <point x="868.2631578947369" y="1118.1052631578948"/>
      <point x="852.5789473684212" y="1264.3684210526317"/>
      <point x="834.8947368421053" y="1426.0" type="curve"/>
      <point x="444.3684210526316" y="1426.0" type="line"/>
      <point x="398.94736842105266" y="1267.2631578947369"/>
      <point x="355.5789473684211" y="1116.0000000000002"/>
      <point x="306.8421052631579" y="944.6842105263158" type="curve"/>
      <point x="146.8947368421053" y="464.1578947368421" type="line"/>
      <point x="80.31578947368422" y="292.7894736842105"/>
      <point x="23.73684210526315" y="148.84210526315792"/>
    </contour>
  </outline>
</glyph>
<glyph name="N" format="2">
  <advance width="1515.421052631579"/>
  <unicode hex="004E"/>
  <anchor x="652.6842105263158" y="0.0" name="bottom"/>
  <anchor x="952.6842105263158" y="1426.0" name="top"/>
  <outline>
    <contour>
      <point x="10.684210526315782" y="0.0" type="curve"/>
      <point x="387.3157894736842" y="0.0" type="line"/>
      <point x="410.1052631578947" y="150.1578947368421"/>
      <point x="429.5263157894737" y="280.2105263157894"/>
      <point x="457.6315789473684" y="464.1578947368421" type="curve"/>
      <point x="544.8421052631579" y="878.578947368421" type="line"/>
      <point x="568.6315789473684" y="878.578947368421" type="line"/>
      <point x="724.6842105263158" y="536.8421052631578" type="line"/>
      <point x="806.3157894736844" y="334.05263157894734"/>
      <point x="873.1052631578949" y="166.21052631578945"/>
      <point x="937.1052631578948" y="0.0" type="curve"/>
      <point x="1292.0526315789473" y="0.0" type="line"/>
      <point x="1314.8421052631577" y="150.1578947368421"/>
      <point x="1334.2631578947367" y="280.2105263157894"/>
      <point x="1362.3684210526314" y="464.1578947368421" type="curve"/>
      <point x="1465.0" y="947.3157894736843" type="line"/>
      <point x="1515.5263157894735" y="1137.842105263158"/>
      <point x="1550.7894736842104" y="1269.2631578947369"/>
      <point x="1592.0526315789473" y="1426.0" type="curve"/>
      <point x="1215.421052631579" y="1426.0" type="line"/>
      <point x="1191.3157894736844" y="1270.6315789473686"/>
      <point x="1171.2105263157896" y="1138.4736842105262"/>
      <point x="1141.7894736842106" y="947.3157894736843" type="curve"/>
      <point x="1057.2105263157896" y="550.1578947368421" type="line"/>
      <point x="1032.1052631578948" y="550.1578947368421" type="line"/>
      <point x="880.6842105263158" y="889.2105263157895" type="line"/>
      <point x="817.8421052631579" y="1053.1052631578948"/>
      <point x="751.6842105263158" y="1226.263157894737"/>
      <point x="676.8421052631579" y="1426.0" type="curve"/>
      <point x="310.6842105263158" y="1426.0" type="line"/>
      <point x="286.57894736842104" y="1270.6315789473686"/>
      <point x="266.4736842105263" y="1138.4736842105262"/>
      <point x="237.05263157894734" y="947.3157894736843" type="curve"/>
      <point x="134.42105263157893" y="464.1578947368421" type="line"/>
      <point x="85.89473684210526" y="283.57894736842104"/>
      <point x="51.94736842105262" y="154.15789473684208"/>
    </contour>
  </outline>
</glyph>
<glyph name="S" format="2">
  <advance width="1204.2330097087379"/>
  <unicode hex="0053"/>
  <anchor x="499.9029126213593" y="0.0" name="bottom"/>
  <anchor x="799.9029126213593" y="1426.0" name="top"/>
  <outline>
    <contour>
      <point x="551.1650485436895" y="-26.95145631067961" type="curve" smooth="yes"/>
      <point x="900.8737864077669" y="-26.95145631067961"/>
      <point x="1062.5631067961165" y="90.09708737864081"/>
      <point x="1118.252427184466" y="355.8058252427184" type="curve" smooth="yes"/>
      <point x="1162.4660194174758" y="566.1359223300971"/>
      <point x="1078.990291262136" y="701.7087378640778"/>
      <point x="775.4174757281553" y="826.0194174757281" type="curve" smooth="yes"/>
      <point x="595.6699029126214" y="900.7378640776699"/>
      <point x="535.7864077669904" y="962.0970873786408"/>
      <point x="555.8834951456312" y="1057.5339805825242" type="curve" smooth="yes"/>
      <point x="574.7184466019418" y="1147.1844660194174"/>
      <point x="668.6796116504854" y="1170.757281553398"/>
      <point x="762.8543689320388" y="1174.757281553398" type="curve"/>
      <point x="800.6407766990291" y="1174.757281553398"/>
      <point x="984.854368932039" y="1114.7572815533983"/>
      <point x="1158.5436893203882" y="1046.0194174757282" type="curve"/>
      <point x="1246.4660194174758" y="1351.378640776699" type="line"/>
      <point x="1095.1844660194176" y="1389.378640776699"/>
      <point x="848.3300970873787" y="1455.4757281553398"/>
      <point x="731.2621359223301" y="1455.4757281553398" type="curve" smooth="yes"/>
      <point x="409.5533980582524" y="1455.4757281553398"/>
      <point x="249.0291262135922" y="1331.0485436893202"/>
      <point x="200.0776699029126" y="1094.2912621359224" type="curve" smooth="yes"/>
      <point x="148.3883495145631" y="846.3689320388349"/>
      <point x="272.29126213592235" y="713.0097087378641"/>
      <point x="518.2718446601942" y="612.3883495145631" type="curve" smooth="yes"/>
      <point x="688.1359223300971" y="542.7184466019418"/>
      <point x="782.5436893203884" y="482.83495145631076"/>
      <point x="761.7087378640776" y="382.66019417475735" type="curve" smooth="yes"/>
      <point x="740.3495145631068" y="277.3398058252427"/>
      <point x="652.6019417475728" y="253.55339805825247"/>
      <point x="549.4757281553399" y="249.55339805825247" type="curve"/>
      <point x="490.7572815533982" y="249.55339805825247"/>
      <point x="295.6893203883496" y="316.29126213592235"/>
      <point x="99.99999999999997" y="396.81553398058264" type="curve"/>
      <point x="13.76699029126212" y="97.14563106796116" type="line"/>
      <point x="207.14563106796118" y="36.097087378640786"/>
      <point x="443.6893203883494" y="-26.95145631067961"/>
    </contour>
  </outline>
</glyph>
<glyph name="T" format="2">
  <advance width="1292.421052631579"/>
  <unicode hex="0054"/>
  <anchor x="543.8947368421053" y="0.0" name="bottom"/>
  <anchor x="676.7894736842105" y="637.6842105263158" name="center"/>
  <anchor x="843.8947368421053" y="1426.0" name="top"/>
  <outline>
    <contour>
      <point x="343.42105263157896" y="0.0" type="curve"/>
      <point x="741.1052631578948" y="0.0" type="line"/>
      <point x="763.8947368421053" y="150.1578947368421"/>
      <point x="783.3157894736843" y="280.2105263157894"/>
      <point x="811.421052631579" y="464.1578947368421" type="curve"/>
      <point x="903.5263157894738" y="894.0" type="line"/>
      <point x="943.5263157894739" y="1080.5789473684213"/>
      <point x="981.4210526315791" y="1214.578947368421"/>
      <point x="1031.8947368421052" y="1371.3157894736842" type="curve"/>
      <point x="1042.421052631579" y="1426.0" type="line"/>
      <point x="644.7368421052631" y="1426.0" type="line"/>
      <point x="633.5263157894736" y="1371.3157894736842" type="line"/>
      <point x="618.6315789473684" y="1214.578947368421"/>
      <point x="597.8947368421053" y="1079.8947368421054"/>
      <point x="559.2631578947369" y="894.0" type="curve"/>
      <point x="467.15789473684214" y="464.1578947368421" type="line"/>
      <point x="418.63157894736844" y="283.57894736842104"/>
      <point x="384.68421052631584" y="154.15789473684208"/>
    </contour>
    <contour>
      <point x="176.3684210526316" y="1090.2105263157896" type="line"/>
      <point x="282.52631578947364" y="1100.1052631578948"/>
      <point x="398.63157894736844" y="1112.0"/>
      <point x="547.578947368421" y="1125.842105263158" type="curve"/>
      <point x="665.7894736842105" y="1125.842105263158" type="line"/>
      <point x="728.4736842105264" y="1426.0" type="line"/>
      <point x="246.94736842105263" y="1426.0" type="line"/>
    </contour>
    <contour>
      <point x="894.6315789473684" y="1125.842105263158" type="line"/>
      <point x="1012.8421052631579" y="1125.842105263158" type="line"/>
      <point x="1163.1052631578948" y="1110.6842105263158"/>
      <point x="1270.0" y="1100.1052631578948"/>
      <point x="1368.2631578947369" y="1090.2105263157896" type="curve"/>
      <point x="1438.842105263158" y="1426.0" type="line"/>
      <point x="957.3157894736843" y="1426.0" type="line"/>
    </contour>
  </outline>
</glyph>
<glyph name="V" format="2">
  <advance width="1430.7368421052631"/>
  <unicode hex="0056"/>
  <anchor x="612.0526315789473" y="0.0" name="bottom"/>
  <anchor x="912.0526315789473" y="1426.0" name="top"/>
  <outline>
    <contour>
      <point x="356.1578947368421" y="0.0" type="curve"/>
      <point x="865.4736842105264" y="0.0" type="line"/>
      <point x="931.0526315789474" y="140.05263157894737"/>
      <point x="1012.6842105263158" y="314.7894736842105"/>
      <point x="1076.842105263158" y="452.6842105263158" type="curve"/>
      <point x="1308.6315789473683" y="900.0" type="line"/>
      <point x="1398.6842105263156" y="1053.9999999999998"/>
      <point x="1513.421052631579" y="1250.6842105263158"/>
      <point x="1615.4736842105265" y="1426.0" type="curve"/>
      <point x="1157.7368421052631" y="1426.0" type="line"/>
      <point x="1083.6315789473686" y="1246.0526315789475"/>
      <point x="1000.0526315789473" y="1042.0"/>
      <point x="925.9473684210526" y="860.7368421052632" type="curve"/>
      <point x="689.3157894736843" y="349.63157894736844" type="line"/>
      <point x="664.1578947368422" y="349.63157894736844" type="line"/>
      <point x="635.6315789473684" y="858.0526315789474" type="line"/>
      <point x="631.1578947368422" y="1036.6842105263158"/>
      <point x="624.6315789473684" y="1246.0526315789473"/>
      <point x="620.1578947368421" y="1426.0" type="curve"/>
      <point x="206.63157894736838" y="1426.0" type="line"/>
      <point x="235.36842105263156" y="1254.0"/>
      <point x="268.7894736842105" y="1051.9473684210523"/>
      <point x="293.5263157894737" y="899.3157894736842" type="curve"/>
      <point x="336.0526315789474" y="452.6842105263158" type="line"/>
      <point x="342.9473684210526" y="316.6842105263158"/>
      <point x="350.57894736842104" y="144.63157894736844"/>
    </contour>
  </outline>
</glyph>
<glyph name="W" format="2">
  <advance width="2092.736842105263"/>
  <unicode hex="0057"/>
  <anchor x="936.1052631578948" y="0.0" name="bottom"/>
  <anchor x="1236.1052631578948" y="1426.0" name="top"/>
  <outline>
    <contour>
      <point x="288.6842105263158" y="0.0" type="curve"/>
      <point x="736.9473684210527" y="0.0" type="line"/>
      <point x="794.9473684210526" y="154.21052631578945"/>
      <point x="863.7368421052631" y="339.94736842105266"/>
      <point x="920.421052631579" y="488.89473684210526" type="curve"/>
      <point x="1109.4736842105262" y="930.8421052631579" type="line"/>
      <point x="1134.6315789473686" y="930.8421052631579" type="line"/>
      <point x="1142.578947368421" y="488.89473684210526" type="line"/>
      <point x="1138.8421052631577" y="334.6842105263158"/>
      <point x="1135.1578947368419" y="154.21052631578948"/>
      <point x="1132.1052631578946" y="0.0" type="curve"/>
      <point x="1596.842105263158" y="0.0" type="line"/>
      <point x="1654.9473684210527" y="134.00000000000003"/>
      <point x="1728.421052631579" y="304.6842105263158"/>
      <point x="1791.2105263157896" y="450.6842105263158" type="curve"/>
      <point x="2004.1052631578948" y="900.0" type="line"/>
      <point x="2086.1578947368425" y="1053.421052631579"/>
      <point x="2192.105263157895" y="1254.0"/>
      <point x="2284.1052631578946" y="1426.0" type="curve"/>
      <point x="1832.9473684210525" y="1426.0" type="line"/>
      <point x="1771.578947368421" y="1258.578947368421"/>
      <point x="1700.7368421052631" y="1061.6315789473683"/>
      <point x="1638.7368421052631" y="891.6315789473683" type="curve"/>
      <point x="1443.6315789473683" y="409.5263157894737" type="line"/>
      <point x="1418.4736842105262" y="409.5263157894737" type="line"/>
      <point x="1418.421052631579" y="889.0" type="line"/>
      <point x="1424.1052631578948" y="1061.1052631578946"/>
      <point x="1431.736842105263" y="1255.8947368421052"/>
      <point x="1437.4210526315792" y="1426.0" type="curve"/>
      <point x="1031.3684210526312" y="1426.0" type="line"/>
      <point x="967.421052631579" y="1256.6315789473686"/>
      <point x="891.9999999999999" y="1056.3684210526317"/>
      <point x="830.7368421052631" y="892.3157894736842" type="curve"/>
      <point x="631.7894736842105" y="409.5263157894737" type="line"/>
      <point x="606.6315789473684" y="409.5263157894737" type="line"/>
      <point x="612.421052631579" y="884.2105263157895" type="line"/>
      <point x="621.3684210526316" y="1055.6315789473683"/>
      <point x="632.2631578947369" y="1255.894736842105"/>
      <point x="641.2105263157895" y="1426.0" type="curve"/>
      <point x="202.0" y="1426.0" type="line"/>
      <point x="221.31578947368422" y="1256.6842105263156"/>
      <point x="246.63157894736844" y="1054.6315789473683"/>
      <point x="264.6315789473684" y="896.578947368421" type="curve"/>
      <point x="286.89473684210526" y="450.0" type="line"/>
      <point x="288.3684210526315" y="308.0"/>
      <point x="289.2105263157894" y="143.3157894736842"/>
    </contour>
  </outline>
</glyph>
<glyph name="X" format="2">
  <advance width="1448.2631578947369"/>
  <unicode hex="0058"/>
  <outline>
    <contour>
      <point x="-76.57894736842105" y="0.0" type="curve"/>
      <point x="393.84210526315786" y="0.0" type="line"/>
      <point x="454.00000000000006" y="99.84210526315789"/>
      <point x="507.94736842105266" y="193.421052631579"/>
      <point x="564.0526315789474" y="285.2631578947368" type="curve"/>
      <point x="710.8947368421052" y="501.57894736842104" type="line"/>
      <point x="736.0526315789474" y="501.57894736842104" type="line"/>
      <point x="804.5263157894738" y="285.9473684210526" type="line"/>
      <point x="827.0526315789473" y="200.8421052631579"/>
      <point x="850.2631578947369" y="105.78947368421052"/>
      <point x="874.8947368421052" y="0.0" type="curve"/>
      <point x="1318.157894736842" y="0.0" type="line"/>
      <point x="1247.3157894736842" y="152.0"/>
      <point x="1183.157894736842" y="287.3157894736843"/>
      <point x="1112.3157894736844" y="439.3157894736842" type="curve"/>
      <point x="993.0526315789475" y="751.9473684210526" type="line"/>
      <point x="974.5263157894738" y="661.3684210526316" type="line"/>
      <point x="1227.6842105263158" y="1002.3684210526316" type="line"/>
      <point x="1325.7894736842106" y="1119.0"/>
      <point x="1445.8947368421054" y="1262.8947368421052"/>
      <point x="1581.8947368421054" y="1426.0" type="curve"/>
      <point x="1109.4736842105262" y="1426.0" type="line"/>
      <point x="1044.7368421052631" y="1316.3157894736842"/>
      <point x="980.578947368421" y="1207.2105263157894"/>
      <point x="923.2105263157895" y="1114.157894736842" type="curve"/>
      <point x="799.3157894736843" y="930.1052631578948" type="line"/>
      <point x="774.1578947368422" y="930.1052631578948" type="line"/>
      <point x="718.6315789473684" y="1112.7894736842104" type="line"/>
      <point x="696.7894736842106" y="1203.2105263157891"/>
      <point x="673.5263157894736" y="1312.9473684210525"/>
      <point x="648.9473684210528" y="1426.0" type="curve"/>
      <point x="220.1578947368421" y="1426.0" type="line"/>
      <point x="291.68421052631584" y="1260.7368421052633"/>
      <point x="347.8421052631579" y="1126.7368421052631"/>
      <point x="405.99999999999994" y="992.1052631578947" type="curve"/>
      <point x="510.578947368421" y="696.8421052631579" type="line"/>
      <point x="529.7368421052632" y="780.8421052631579" type="line"/>
      <point x="263.7894736842105" y="419.0526315789474" type="line"/>
      <point x="143.63157894736838" y="271.7894736842105"/>
      <point x="37.47368421052633" y="141.15789473684205"/>
    </contour>
  </outline>
</glyph>
<glyph name="Y" format="2">
  <advance width="1368.5263157894738"/>
  <unicode hex="0059"/>
  <anchor x="583.8947368421053" y="0.0" name="bottom"/>
  <anchor x="886.5263157894738" y="1426.0" name="top"/>
  <anchor x="234.68421052631575" y="1426.0" name="topleft"/>
  <outline>
    <contour>
      <point x="543.0526315789474" y="497.36842105263156" type="line"/>
      <point x="846.4736842105264" y="497.36842105263156" type="line"/>
      <point x="1261.3684210526314" y="1061.2105263157894" type="line"/>
      <point x="1354.6842105263158" y="1174.421052631579"/>
      <point x="1453.3157894736842" y="1294.9473684210525"/>
      <point x="1559.8421052631581" y="1426.0" type="curve"/>
      <point x="1089.4736842105262" y="1426.0" type="line"/>
      <point x="1003.6315789473683" y="1266.6842105263158"/>
      <point x="959.0" y="1186.3157894736842"/>
      <point x="887.3684210526316" y="1053.7894736842106" type="curve"/>
      <point x="764.0526315789474" y="855.6315789473684" type="line"/>
      <point x="740.2105263157895" y="855.6315789473684" type="line"/>
      <point x="692.6315789473684" y="1058.5263157894738" type="line"/>
      <point x="672.0" y="1185.0"/>
      <point x="659.5789473684212" y="1264.6842105263158"/>
      <point x="633.4210526315791" y="1426.0" type="curve"/>
      <point x="204.05263157894734" y="1426.0" type="line"/>
      <point x="266.0" y="1280.8947368421052"/>
      <point x="309.94736842105266" y="1179.0526315789475"/>
      <point x="360.57894736842104" y="1061.2105263157894" type="curve"/>
    </contour>
    <contour>
      <point x="386.0526315789473" y="0.0" type="curve"/>
      <point x="786.3684210526317" y="0.0" type="line"/>
      <point x="809.1578947368421" y="150.1578947368421"/>
      <point x="828.5789473684212" y="280.2105263157894"/>
      <point x="856.6842105263158" y="464.1578947368421" type="curve"/>
      <point x="924.9473684210527" y="787.5263157894738" type="line"/>
      <point x="578.0526315789473" y="787.5263157894738" type="line"/>
      <point x="509.78947368421046" y="464.1578947368421" type="line"/>
      <point x="461.2631578947368" y="283.57894736842104"/>
      <point x="427.31578947368416" y="154.15789473684208"/>
    </contour>
  </outline>
</glyph>
<glyph name="Z" format="2">
  <advance width="1377.2105263157896"/>
  <unicode hex="005A"/>
  <anchor x="583.6315789473684" y="0.0" name="bottom"/>
  <anchor x="733.6315789473684" y="714.0" name="center"/>
  <anchor x="883.6315789473684" y="1426.0" name="top"/>
  <outline>
    <contour>
      <point x="-28.210526315789473" y="0.0" type="line"/>
      <point x="1191.3684210526317" y="0.0" type="line"/>
      <point x="1260.0" y="323.3157894736843" type="line"/>
      <point x="1116.2105263157894" y="313.421052631579"/>
      <point x="892.0526315789473" y="297.5789473684211"/>
      <point x="734.2105263157895" y="285.68421052631584" type="curve"/>
      <point x="413.0526315789474" y="285.68421052631584" type="line"/>
      <point x="444.9473684210527" y="175.78947368421055" type="line"/>
      <point x="1049.5789473684213" y="797.8947368421052" type="line"/>
      <point x="1179.421052631579" y="923.8421052631579"/>
      <point x="1307.9473684210527" y="1050.4736842105265"/>
      <point x="1425.3157894736842" y="1165.2631578947367" type="curve"/>
      <point x="1480.1052631578948" y="1426.0" type="line"/>
      <point x="293.0" y="1426.0" type="line"/>
      <point x="225.05263157894737" y="1098.1052631578946" type="line"/>
      <point x="404.9473684210526" y="1113.2631578947369"/>
      <point x="572.1578947368421" y="1127.7894736842104"/>
      <point x="720.6315789473684" y="1140.3157894736842" type="curve"/>
      <point x="1074.5263157894735" y="1140.3157894736842" type="line"/>
      <point x="1028.5263157894735" y="1244.7368421052631" type="line"/>
      <point x="441.6842105263158" y="632.5263157894736" type="line"/>
      <point x="306.5789473684211" y="501.3157894736842"/>
      <point x="121.3157894736842" y="320.5789473684211"/>
      <point x="18.684210526315795" y="220.5263157894737" type="curve"/>
    </contour>
  </outline>
</glyph>
<glyph name="bracketleft" format="2">
  <advance width="821.578947368421"/>
  <unicode hex="005B"/>
  <outline>
    <contour>
      <point x="-30.68421052631578" y="-247.68421052631578" type="curve"/>
      <point x="303.1578947368422" y="-247.68421052631578" type="line"/>
      <point x="313.68421052631584" y="-193.0" type="line"/>
      <point x="337.7894736842106" y="-40.21052631578947"/>
      <point x="356.5789473684211" y="92.57894736842105"/>
      <point x="384.00000000000006" y="271.8421052631579" type="curve"/>
      <point x="541.421052631579" y="1018.2631578947369" type="line"/>
      <point x="589.9473684210527" y="1202.7894736842106"/>
      <point x="627.2105263157896" y="1338.842105263158"/>
      <point x="668.4736842105264" y="1495.578947368421" type="curve"/>
      <point x="681.0000000000001" y="1550.2631578947369" type="line"/>
      <point x="347.1578947368421" y="1550.2631578947369" type="line"/>
      <point x="320.4210526315789" y="1390.8947368421054"/>
      <point x="298.3157894736842" y="1261.421052631579"/>
      <point x="269.57894736842104" y="1072.9473684210527" type="curve"/>
      <point x="89.10526315789474" y="216.4736842105263" type="line"/>
      <point x="42.52631578947369" y="37.21052631578947"/>
      <point x="7.947368421052641" y="-97.52631578947368"/>
    </contour>
    <contour>
      <point x="237.78947368421052" y="-247.68421052631578" type="line"/>
      <point x="618.0" y="-247.68421052631578" type="line"/>
      <point x="673.421052631579" y="18.263157894736857" type="line"/>
      <point x="580.6842105263157" y="13.000000000000014"/>
      <point x="486.5263157894737" y="7.052631578947382"/>
      <point x="371.157894736842" y="0.47368421052632925" type="curve"/>
      <point x="289.2631578947368" y="0.47368421052632925" type="line"/>
    </contour>
    <contour>
      <point x="541.7894736842105" y="1302.1052631578948" type="line"/>
      <point x="626.8947368421053" y="1302.1052631578948" type="line"/>
      <point x="757.684210526316" y="1295.5263157894738"/>
      <point x="849.1052631578948" y="1289.5789473684213"/>
      <point x="933.8421052631579" y="1284.3157894736842" type="curve"/>
      <point x="989.9473684210527" y="1550.2631578947369" type="line"/>
      <point x="594.578947368421" y="1550.2631578947369" type="line"/>
    </contour>
  </outline>
</glyph>
<glyph name="backslash" format="2">
  <advance width="937.8421052631579"/>
  <unicode hex="005C"/>
  <outline>
    <contour>
      <point x="487.8421052631579" y="0.0" type="curve"/>
      <point x="821.0" y="0.0" type="line"/>
      <point x="783.0" y="151.26315789473685"/>
      <point x="751.0" y="275.94736842105266"/>
      <point x="705.6315789473684" y="456.0" type="curve"/>
      <point x="611.2631578947368" y="951.3157894736842" type="line"/>
      <point x="585.0" y="1140.6842105263158"/>
      <point x="567.4736842105264" y="1272.0526315789475"/>
      <point x="545.9473684210527" y="1426.0" type="curve"/>
      <point x="215.42105263157893" y="1426.0" type="line"/>
      <point x="254.10526315789474" y="1266.0526315789475"/>
      <point x="285.4736842105263" y="1136.0"/>
      <point x="330.84210526315786" y="948.6842105263158" type="curve"/>
      <point x="423.89473684210526" y="456.0" type="line"/>
      <point x="449.4736842105263" y="272.0"/>
      <point x="467.6315789473684" y="148.0"/>
    </contour>
  </outline>
</glyph>
<glyph name="asciicircum" format="2">
  <advance width="1269.4736842105262"/>
  <unicode hex="005E"/>
  <outline>
    <contour>
      <point x="967.578947368421" y="715.6315789473684" type="curve"/>
      <point x="1223.1052631578948" y="718.9473684210526" type="line"/>
      <point x="1149.4736842105262" y="937.9473684210526"/>
      <point x="1076.526315789474" y="1156.8947368421052"/>
      <point x="1002.8947368421053" y="1375.8947368421052" type="curve"/>
      <point x="579.1578947368421" y="1375.8947368421052" type="line"/>
      <point x="433.47368421052624" y="1158.8947368421052"/>
      <point x="286.4736842105263" y="939.9473684210526"/>
      <point x="140.78947368421052" y="722.9473684210526" type="curve"/>
      <point x="429.36842105263156" y="722.9473684210526" type="line"/>
      <point x="538.6842105263157" y="854.157894736842"/>
      <point x="643.421052631579" y="979.4736842105265"/>
      <point x="752.7368421052631" y="1110.6842105263158" type="curve"/>
      <point x="776.578947368421" y="1110.6842105263158" type="line"/>
      <point x="839.578947368421" y="980.1052631578947"/>
      <point x="904.578947368421" y="846.2105263157895"/>
    </contour>
  </outline>
</glyph>
<glyph name="underscore" format="2">
  <advance width="865.2631578947369"/>
  <unicode hex="005F"/>
  <outline>
    <contour>
      <point x="-198.84210526315792" y="-345.7894736842105" type="line"/>
      <point x="-60.47368421052631" y="-341.1578947368421"/>
      <point x="87.36842105263159" y="-336.5263157894737"/>
      <point x="187.63157894736838" y="-333.89473684210526" type="curve"/>
      <point x="326.57894736842104" y="-333.89473684210526" type="line"/>
      <point x="424.2105263157895" y="-336.5263157894737"/>
      <point x="568.0526315789474" y="-341.1578947368421"/>
      <point x="706.4210526315791" y="-345.7894736842105" type="curve"/>
      <point x="765.1578947368421" y="-68.63157894736842" type="line"/>
      <point x="625.4736842105264" y="-73.26315789473684"/>
      <point x="477.63157894736844" y="-77.89473684210526"/>
      <point x="378.6842105263158" y="-80.52631578947368" type="curve"/>
      <point x="239.73684210526312" y="-80.52631578947368" type="line"/>
      <point x="140.78947368421052" y="-77.89473684210526"/>
      <point x="-3.0526315789473575" y="-73.26315789473684"/>
      <point x="-140.10526315789474" y="-68.63157894736842" type="curve"/>
    </contour>
  </outline>
</glyph>
<glyph name="b" format="2">
  <advance width="1190.5263157894735"/>
  <unicode hex="0062"/>
  <outline>
    <contour>
      <point x="656.0526315789474" y="-27.210526315789473" type="curve" smooth="yes"/>
      <point x="892.1578947368422" y="-27.210526315789473"/>
      <point x="1053.7368421052631" y="171.73684210526315"/>
      <point x="1113.7368421052631" y="455.7894736842105" type="curve" smooth="yes"/>
      <point x="1177.0526315789473" y="758.421052631579"/>
      <point x="1079.3684210526314" y="1026.421052631579"/>
      <point x="803.6315789473684" y="1026.421052631579" type="curve" smooth="yes"/>
      <point x="737.3684210526318" y="1026.421052631579"/>
      <point x="628.0526315789473" y="964.0526315789474"/>
      <point x="546.1578947368422" y="897.5263157894738" type="curve"/>
      <point x="521.0" y="897.5263157894738" type="line"/>
      <point x="539.1052631578949" y="986.6842105263158" type="line"/>
      <point x="590.2631578947369" y="1171.157894736842"/>
      <point x="635.4736842105265" y="1338.3684210526314"/>
      <point x="680.7368421052631" y="1495.7894736842104" type="curve"/>
      <point x="277.0" y="1461.9473684210527" type="line"/>
      <point x="262.15789473684214" y="1303.4736842105262"/>
      <point x="245.31578947368422" y="1148.7894736842106"/>
      <point x="226.4736842105263" y="986.6842105263158" type="curve"/>
      <point x="109.1578947368421" y="431.4736842105263" type="line"/>
      <point x="63.26315789473684" y="265.5263157894737"/>
      <point x="31.315789473684205" y="142.10526315789474"/>
      <point x="-7.947368421052635" y="0.0" type="curve"/>
      <point x="261.8947368421053" y="0.0" type="line"/>
      <point x="327.5789473684211" y="131.7894736842105" type="line"/>
      <point x="348.7894736842106" y="131.7894736842105" type="line"/>
      <point x="449.42105263157896" y="40.42105263157895"/>
      <point x="569.7894736842106" y="-27.210526315789473"/>
    </contour>
    <contour>
      <point x="565.2631578947369" y="242.05263157894737" type="curve"/>
      <point x="514.7368421052632" y="247.3684210526316"/>
      <point x="444.8947368421053" y="283.94736842105266"/>
      <point x="402.15789473684214" y="334.1578947368422" type="curve"/>
      <point x="471.36842105263156" y="662.0" type="line"/>
      <point x="523.4736842105264" y="715.9473684210527"/>
      <point x="603.421052631579" y="755.1578947368421"/>
      <point x="646.3684210526317" y="761.1052631578947" type="curve"/>
      <point x="779.5263157894738" y="755.1052631578947"/>
      <point x="827.4736842105264" y="621.3157894736842"/>
      <point x="797.7894736842106" y="479.57894736842104" type="curve" smooth="yes"/>
      <point x="769.5263157894738" y="344.3157894736842"/>
      <point x="692.7894736842106" y="249.3684210526316"/>
    </contour>
  </outline>
</glyph>
<glyph name="c" format="2">
  <advance width="967.1578947368421"/>
  <unicode hex="0063"/>
  <anchor x="453.6315789473684" y="0.0" name="bottom"/>
  <anchor x="658.1052631578947" y="998.5263157894736" name="top"/>
  <outline>
    <contour>
      <point x="571.1052631578947" y="-23.263157894736842" type="curve" smooth="yes"/>
      <point x="631.263157894737" y="-23.263157894736842"/>
      <point x="749.3684210526316" y="5.578947368421051"/>
      <point x="803.3684210526316" y="23.631578947368418" type="curve"/>
      <point x="844.1578947368421" y="297.68421052631584" type="line"/>
      <point x="779.3684210526316" y="270.2105263157895"/>
      <point x="664.578947368421" y="234.8421052631579"/>
      <point x="631.6315789473684" y="234.1578947368421" type="curve" smooth="yes"/>
      <point x="456.3157894736842" y="238.1578947368421"/>
      <point x="349.7368421052632" y="343.8421052631579"/>
      <point x="391.3684210526316" y="532.6842105263158" type="curve" smooth="yes"/>
      <point x="425.00000000000006" y="680.2105263157894"/>
      <point x="524.1052631578947" y="751.1052631578947"/>
      <point x="654.6842105263157" y="761.1052631578947" type="curve"/>
      <point x="680.1578947368423" y="761.1052631578947"/>
      <point x="804.9473684210527" y="723.0526315789474"/>
      <point x="918.4736842105262" y="676.9473684210526" type="curve"/>
      <point x="995.7368421052631" y="947.578947368421" type="line"/>
      <point x="885.4736842105264" y="982.8421052631579"/>
      <point x="713.4736842105262" y="1025.1052631578948"/>
      <point x="654.0526315789474" y="1025.1052631578948" type="curve" smooth="yes"/>
      <point x="338.7894736842105" y="1025.1052631578948"/>
      <point x="135.3684210526316" y="839.0526315789474"/>
      <point x="76.73684210526316" y="560.4736842105262" type="curve" smooth="yes"/>
      <point x="2.8421052631578974" y="207.5263157894737"/>
      <point x="207.0" y="-23.263157894736842"/>
    </contour>
  </outline>
</glyph>
<glyph name="f" format="2">
  <advance width="821.2631578947368"/>
  <unicode hex="0066"/>
  <outline>
    <contour>
      <point x="67.15789473684211" y="0.0" type="curve"/>
      <point x="430.5789473684211" y="0.0" type="line"/>
      <point x="452.6842105263158" y="142.10526315789474"/>
      <point x="471.4736842105263" y="265.5263157894737"/>
      <point x="496.89473684210526" y="431.4736842105263" type="curve"/>
      <point x="605.578947368421" y="946.8421052631579" type="line"/>
      <point x="619.4736842105264" y="998.5263157894736" type="line"/>
      <point x="609.6842105263158" y="1020.578947368421"/>
      <point x="598.0526315789474" y="1073.0000000000002"/>
      <point x="603.4736842105264" y="1099.3684210526314" type="curve" smooth="yes"/>
      <point x="621.7368421052632" y="1185.2631578947369"/>
      <point x="681.3157894736843" y="1237.157894736842"/>
      <point x="775.2105263157896" y="1237.157894736842" type="curve" smooth="yes"/>
      <point x="796.4736842105262" y="1237.157894736842"/>
      <point x="866.6315789473683" y="1219.7894736842104"/>
      <point x="948.4210526315788" y="1196.5263157894738" type="curve"/>
      <point x="1025.6842105263156" y="1460.5789473684208" type="line"/>
      <point x="939.263157894737" y="1476.578947368421"/>
      <point x="811.0" y="1494.578947368421"/>
      <point x="762.0526315789474" y="1494.578947368421" type="curve" smooth="yes"/>
      <point x="561.0" y="1494.578947368421"/>
      <point x="377.0526315789474" y="1409.8947368421052"/>
      <point x="315.2105263157895" y="1126.4736842105262" type="curve" smooth="yes"/>
      <point x="278.2631578947369" y="949.1578947368421"/>
      <point x="239.0" y="697.1578947368421"/>
      <point x="205.57894736842107" y="531.4736842105264" type="curve"/>
      <point x="184.26315789473685" y="431.4736842105263" type="line"/>
      <point x="138.3684210526316" y="265.5263157894737"/>
      <point x="106.42105263157893" y="142.10526315789474"/>
    </contour>
    <contour>
      <point x="86.1578947368421" y="739.1578947368421" type="line"/>
      <point x="343.7368421052631" y="771.5263157894736" type="line"/>
      <point x="483.42105263157896" y="771.5263157894736" type="line"/>
      <point x="598.3684210526317" y="761.6315789473683"/>
      <point x="708.0526315789474" y="751.0526315789473"/>
      <point x="828.9473684210526" y="739.1578947368421" type="curve"/>
      <point x="883.7368421052631" y="998.5263157894736" type="line"/>
      <point x="140.94736842105263" y="998.5263157894736" type="line"/>
    </contour>
  </outline>
</glyph>
<glyph name="g" format="2">
  <advance width="1106.3300970873786"/>
  <unicode hex="0067"/>
  <anchor x="425.6116504854369" y="-384.0" name="bottom"/>
  <anchor x="620.8349514563106" y="998.9514563106795" name="top"/>
  <outline>
    <contour>
      <point x="366.11650485436894" y="-408.21359223300965" type="curve" smooth="yes"/>
      <point x="612.9708737864077" y="-408.21359223300965"/>
      <point x="870.5631067961165" y="-323.6893203883496"/>
      <point x="921.7281553398058" y="-83.55339805825243" type="curve" smooth="yes"/>
      <point x="964.1553398058252" y="117.63106796116507"/>
      <point x="824.9708737864077" y="230.15533980582524"/>
      <point x="584.6796116504853" y="230.15533980582524" type="curve" smooth="yes"/>
      <point x="498.36893203883506" y="230.15533980582524" type="line" smooth="yes"/>
      <point x="439.43689320388347" y="230.15533980582524"/>
      <point x="389.0291262135923" y="242.67961165048544"/>
      <point x="396.29126213592235" y="280.25242718446606" type="curve" smooth="yes"/>
      <point x="402.29126213592235" y="311.3009708737864"/>
      <point x="463.0097087378641" y="328.6601941747573"/>
      <point x="568.3495145631067" y="342.4466019417476" type="curve" smooth="yes"/>
      <point x="742.9708737864078" y="366.44660194174764"/>
      <point x="919.3980582524271" y="436.0194174757282"/>
      <point x="959.3980582524271" y="636.5242718446603" type="curve" smooth="yes"/>
      <point x="980.1359223300971" y="740.0970873786408"/>
      <point x="953.3009708737864" y="827.4563106796116"/>
      <point x="871.3203883495145" y="903.2427184466019" type="curve"/>
      <point x="788.135922330097" y="813.6310679611651" type="line"/>
      <point x="899.495145631068" y="802.2524271844661"/>
      <point x="1007.3786407766991" y="785.8252427184467"/>
      <point x="1124.9514563106795" y="757.0873786407767" type="curve"/>
      <point x="1176.7572815533981" y="1003.1650485436893" type="line"/>
      <point x="861.3009708737864" y="1003.1650485436893" type="line" smooth="yes"/>
      <point x="734.9708737864078" y="1003.1650485436893"/>
      <point x="684.5436893203884" y="1025.9029126213593"/>
      <point x="528.6213592233009" y="1025.9029126213593" type="curve" smooth="yes"/>
      <point x="285.6504854368932" y="1025.9029126213593"/>
      <point x="148.2912621359223" y="905.5728155339806"/>
      <point x="113.76699029126213" y="736.2135922330098" type="curve" smooth="yes"/>
      <point x="85.24271844660194" y="597.5922330097088"/>
      <point x="173.126213592233" y="496.757281553398"/>
      <point x="286.71844660194165" y="391.78640776699035" type="curve"/>
      <point x="286.71844660194165" y="370.83495145631065" type="line"/>
      <point x="199.45631067961165" y="346.3106796116505"/>
      <point x="116.81553398058254" y="307.7864077669903"/>
      <point x="98.81553398058254" y="220.09708737864077" type="curve" smooth="yes"/>
      <point x="78.81553398058254" y="123.88349514563107"/>
      <point x="145.5533980582524" y="70.40776699029125"/>
      <point x="179.14563106796115" y="52.932038834951456" type="curve"/>
      <point x="179.14563106796115" y="33.242718446601934" type="line"/>
      <point x="63.98058252427187" y="-14.85436893203884"/>
      <point x="-32.54368932038836" y="-70.85436893203884"/>
      <point x="-47.06796116504855" y="-136.95145631067962" type="curve" smooth="yes"/>
      <point x="-89.28155339805828" y="-334.3300970873787"/>
      <point x="141.6893203883495" y="-408.21359223300965"/>
    </contour>
    <contour>
      <point x="403.4951456310679" y="-197.22330097087377" type="curve"/>
      <point x="303.8252427184466" y="-193.22330097087377"/>
      <point x="208.48543689320385" y="-155.74757281553394"/>
      <point x="220.0582524271844" y="-102.93203883495144" type="curve" smooth="yes"/>
      <point x="225.32038834951453" y="-76.62135922330097"/>
      <point x="295.20388349514565" y="-42.000000000000014"/>
      <point x="368.5436893203883" y="-7.805825242718452" type="curve"/>
      <point x="440.50485436893206" y="-7.805825242718452" type="line" smooth="yes"/>
      <point x="591.495145631068" y="-7.805825242718452"/>
      <point x="641.4174757281553" y="-55.47572815533981"/>
      <point x="629.4174757281554" y="-106.09708737864078" type="curve" smooth="yes"/>
      <point x="620.8932038834952" y="-143.76699029126212"/>
      <point x="545.9611650485438" y="-185.43689320388344"/>
    </contour>
    <contour>
      <point x="485.4951456310679" y="519.611650485437" type="curve"/>
      <point x="429.20388349514576" y="563.2815533980582"/>
      <point x="378.69902912621365" y="621.0485436893202"/>
      <point x="388.48543689320394" y="672.2912621359225" type="curve" smooth="yes"/>
      <point x="402.0582524271845" y="741.9417475728155"/>
      <point x="465.08737864077665" y="776.3495145631068"/>
      <point x="545.26213592233" y="777.8252427184466" type="curve"/>
      <point x="643.8640776699029" y="774.8737864077669"/>
      <point x="707.6310679611651" y="712.0582524271845"/>
      <point x="689.5339805825242" y="633.3592233009708" type="curve" smooth="yes"/>
      <point x="670.6990291262136" y="550.4466019417476"/>
      <point x="574.9320388349514" y="526.6601941747573"/>
    </contour>
  </outline>
</glyph>
<glyph name="k" format="2">
  <advance width="1164.8947368421052"/>
  <unicode hex="006B"/>
  <anchor x="478.05263157894734" y="0.0" name="bottom"/>
  <anchor x="784.6842105263157" y="1459.157894736842" name="top"/>
  <outline>
    <contour>
      <point x="653.6842105263158" y="0.0" type="curve"/>
      <point x="1060.3157894736844" y="0.0" type="line"/>
      <point x="977.1578947368421" y="121.89473684210526"/>
      <point x="892.6842105263158" y="244.42105263157896"/>
      <point x="809.5263157894738" y="366.3157894736842" type="curve"/>
      <point x="670.8947368421052" y="599.578947368421" type="line"/>
      <point x="716.4210526315791" y="461.57894736842104" type="line"/>
      <point x="883.2105263157895" y="638.1052631578947" type="line"/>
      <point x="1003.0526315789474" y="758.6842105263158"/>
      <point x="1122.2631578947369" y="877.9473684210526"/>
      <point x="1243.4736842105262" y="998.5263157894736" type="curve"/>
      <point x="826.1578947368421" y="998.5263157894736" type="line"/>
      <point x="758.6315789473683" y="912.3684210526316"/>
      <point x="690.4210526315791" y="826.8421052631579"/>
      <point x="622.8947368421053" y="740.6842105263158" type="curve"/>
      <point x="502.2631578947369" y="600.421052631579" type="line"/>
      <point x="431.7368421052632" y="600.421052631579" type="line"/>
      <point x="388.15789473684214" y="394.42105263157896" type="line"/>
      <point x="457.2105263157895" y="394.42105263157896" type="line"/>
      <point x="540.6315789473684" y="242.68421052631578" type="line"/>
      <point x="579.421052631579" y="161.78947368421052"/>
      <point x="616.8947368421052" y="80.89473684210526"/>
    </contour>
    <contour>
      <point x="-7.947368421052635" y="0.0" type="curve"/>
      <point x="355.47368421052636" y="0.0" type="line"/>
      <point x="372.3157894736842" y="126.3157894736842"/>
      <point x="387.7894736842105" y="236.57894736842104"/>
      <point x="408.63157894736844" y="369.63157894736844" type="curve"/>
      <point x="539.1052631578949" y="986.6842105263158" type="line"/>
      <point x="590.2631578947369" y="1171.157894736842"/>
      <point x="635.4736842105265" y="1338.3684210526314"/>
      <point x="680.7368421052631" y="1495.7894736842104" type="curve"/>
      <point x="277.0" y="1461.9473684210527" type="line"/>
      <point x="262.15789473684214" y="1303.4736842105265"/>
      <point x="245.31578947368422" y="1148.7894736842106"/>
      <point x="226.4736842105263" y="986.6842105263158" type="curve"/>
      <point x="109.1578947368421" y="431.4736842105263" type="line"/>
      <point x="63.26315789473684" y="265.5263157894737"/>
      <point x="31.315789473684205" y="142.10526315789474"/>
    </contour>
  </outline>
</glyph>
<glyph name="l" format="2">
  <advance width="560.2105263157895"/>
  <unicode hex="006C"/>
  <anchor x="174.10526315789474" y="0.0" name="bottom"/>
  <anchor x="354.6842105263158" y="818.0" name="center"/>
  <anchor x="471.57894736842104" y="1459.157894736842" name="top"/>
  <anchor x="601.2105263157894" y="998.5263157894736" name="topright"/>
  <outline>
    <contour>
      <point x="-7.947368421052635" y="0.0" type="curve"/>
      <point x="355.47368421052636" y="0.0" type="line"/>
      <point x="377.57894736842104" y="142.10526315789474"/>
      <point x="396.36842105263156" y="265.5263157894737"/>
      <point x="421.7894736842105" y="431.4736842105263" type="curve"/>
      <point x="539.1052631578949" y="986.6842105263158" type="line"/>
      <point x="590.2631578947369" y="1171.157894736842"/>
      <point x="635.4736842105265" y="1338.3684210526314"/>
      <point x="680.7368421052631" y="1495.7894736842104" type="curve"/>
      <point x="277.0" y="1461.9473684210527" type="line"/>
      <point x="262.15789473684214" y="1303.4736842105262"/>
      <point x="245.31578947368422" y="1148.7894736842106"/>
      <point x="226.4736842105263" y="986.6842105263158" type="curve"/>
      <point x="109.1578947368421" y="431.4736842105263" type="line"/>
      <point x="63.26315789473684" y="265.5263157894737"/>
      <point x="31.315789473684205" y="142.10526315789474"/>
    </contour>
  </outline>
</glyph>
<glyph name="m" format="2">
  <advance width="1772.421052631579"/>
  <unicode hex="006D"/>
  <anchor x="792.7368421052632" y="0.0" name="bottom"/>
  <anchor x="1003.3684210526316" y="998.5263157894736" name="top"/>
  <outline>
    <contour>
      <point x="1.4210526315789433" y="0.0" type="curve"/>
      <point x="364.8421052631579" y="0.0" type="line"/>
      <point x="386.9473684210526" y="142.10526315789474"/>
      <point x="405.05263157894734" y="265.5263157894737"/>
      <point x="427.2105263157895" y="414.36842105263156" type="curve"/>
      <point x="472.05263157894734" y="625.1052631578948" type="line"/>
      <point x="537.1052631578947" y="686.7368421052633"/>
      <point x="628.6842105263156" y="741.3684210526316"/>
      <point x="666.7368421052632" y="741.3684210526316" type="curve" smooth="yes"/>
      <point x="753.8421052631579" y="741.3684210526316"/>
      <point x="776.8947368421052" y="664.8947368421052"/>
      <point x="746.0526315789473" y="527.3157894736842" type="curve"/>
      <point x="723.8421052631578" y="414.36842105263156" type="line"/>
      <point x="684.5263157894736" y="265.52631578947364"/>
      <point x="652.5789473684209" y="142.10526315789474"/>
      <point x="614.6315789473683" y="0.0" type="curve"/>
      <point x="975.421052631579" y="0.0" type="line"/>
      <point x="997.5263157894738" y="142.10526315789474"/>
      <point x="1014.3157894736844" y="265.52631578947364"/>
      <point x="1040.421052631579" y="431.4736842105263" type="curve"/>
      <point x="1056.421052631579" y="508.7894736842104"/>
      <point x="1080.2631578947369" y="585.1052631578948"/>
      <point x="1092.2631578947369" y="641.7368421052632" type="curve" smooth="yes"/>
      <point x="1104.8947368421054" y="700.2631578947369"/>
      <point x="1108.2631578947369" y="753.4736842105262"/>
      <point x="1103.0000000000002" y="799.3684210526316" type="curve"/>
      <point x="1090.473684210526" y="802.1052631578947" type="line"/>
      <point x="1081.2105263157896" y="944.3157894736842"/>
      <point x="994.5263157894738" y="1026.421052631579"/>
      <point x="845.0526315789474" y="1026.421052631579" type="curve" smooth="yes"/>
      <point x="758.0000000000001" y="1026.421052631579"/>
      <point x="617.684210526316" y="940.6315789473684"/>
      <point x="509.8947368421052" y="857.3684210526316" type="curve"/>
      <point x="484.1052631578947" y="857.3684210526316" type="line"/>
      <point x="497.0" y="1013.7368421052631" type="line"/>
      <point x="194.15789473684208" y="998.5263157894736" type="line"/>
      <point x="178.15789473684214" y="854.421052631579"/>
      <point x="165.4736842105263" y="716.8421052631579"/>
      <point x="150.78947368421055" y="580.0526315789474" type="curve"/>
      <point x="118.52631578947367" y="431.4736842105263" type="line"/>
      <point x="72.63157894736841" y="265.5263157894737"/>
      <point x="40.68421052631579" y="142.10526315789474"/>
    </contour>
    <contour>
      <point x="1219.7894736842104" y="0.0" type="curve"/>
      <point x="1580.578947368421" y="0.0" type="line"/>
      <point x="1602.6842105263158" y="142.10526315789474"/>
      <point x="1619.4736842105262" y="265.52631578947364"/>
      <point x="1645.578947368421" y="431.4736842105263" type="curve"/>
      <point x="1661.578947368421" y="508.7894736842104"/>
      <point x="1685.421052631579" y="585.1052631578948"/>
      <point x="1697.421052631579" y="641.7368421052632" type="curve" smooth="yes"/>
      <point x="1747.4736842105265" y="875.2105263157895"/>
      <point x="1654.157894736842" y="1026.421052631579"/>
      <point x="1450.2105263157896" y="1026.421052631579" type="curve" smooth="yes"/>
      <point x="1363.157894736842" y="1026.421052631579"/>
      <point x="1218.7894736842106" y="939.2631578947367"/>
      <point x="1105.0526315789475" y="850.6842105263158" type="curve"/>
      <point x="1079.2105263157896" y="850.6842105263158" type="line"/>
      <point x="1077.2105263157896" y="625.1052631578948" type="line"/>
      <point x="1142.2631578947367" y="686.7368421052631"/>
      <point x="1233.842105263158" y="741.3684210526316"/>
      <point x="1271.8947368421052" y="741.3684210526316" type="curve" smooth="yes"/>
      <point x="1359.0000000000002" y="741.3684210526316"/>
      <point x="1382.0526315789473" y="664.8947368421052"/>
      <point x="1351.2105263157894" y="527.3157894736842" type="curve"/>
      <point x="1329.0" y="414.36842105263156" type="line"/>
      <point x="1289.6842105263156" y="265.52631578947364"/>
      <point x="1257.7368421052631" y="142.10526315789474"/>
    </contour>
  </outline>
</glyph>
<glyph name="n" format="2">
  <advance width="1184.842105263158"/>
  <unicode hex="006E"/>
  <anchor x="489.26315789473676" y="0.0" name="bottom"/>
  <anchor x="699.8947368421052" y="998.5263157894736" name="top"/>
  <outline>
    <contour>
      <point x="1.4210526315789433" y="0.0" type="curve"/>
      <point x="364.8421052631579" y="0.0" type="line"/>
      <point x="386.9473684210526" y="142.10526315789474"/>
      <point x="405.05263157894734" y="265.5263157894737"/>
      <point x="427.2105263157895" y="414.36842105263156" type="curve"/>
      <point x="472.05263157894734" y="625.1052631578948" type="line"/>
      <point x="537.1052631578948" y="686.7368421052631"/>
      <point x="634.7368421052632" y="741.3684210526316"/>
      <point x="673.4736842105264" y="741.3684210526316" type="curve" smooth="yes"/>
      <point x="771.4210526315791" y="741.3684210526316"/>
      <point x="794.4736842105264" y="664.8947368421052"/>
      <point x="763.6315789473684" y="527.3157894736842" type="curve"/>
      <point x="741.421052631579" y="414.36842105263156" type="line"/>
      <point x="702.1052631578948" y="265.52631578947364"/>
      <point x="670.1578947368421" y="142.10526315789474"/>
      <point x="632.2105263157895" y="0.0" type="curve"/>
      <point x="993.0" y="0.0" type="line"/>
      <point x="1015.1052631578948" y="142.10526315789474"/>
      <point x="1031.8947368421052" y="265.52631578947364"/>
      <point x="1058.0" y="431.4736842105263" type="curve"/>
      <point x="1074.0" y="508.7894736842104"/>
      <point x="1097.842105263158" y="585.1052631578948"/>
      <point x="1109.842105263158" y="641.7368421052632" type="curve" smooth="yes"/>
      <point x="1159.8947368421054" y="875.2105263157896"/>
      <point x="1066.578947368421" y="1026.421052631579"/>
      <point x="852.4736842105264" y="1026.421052631579" type="curve" smooth="yes"/>
      <point x="764.0526315789474" y="1026.421052631579"/>
      <point x="616.3684210526317" y="940.6315789473684"/>
      <point x="508.578947368421" y="857.3684210526317" type="curve"/>
      <point x="482.78947368421046" y="857.3684210526317" type="line"/>
      <point x="497.6842105263158" y="1013.7368421052631" type="line"/>
      <point x="194.15789473684208" y="998.5263157894736" type="line"/>
      <point x="178.15789473684214" y="854.421052631579"/>
      <point x="165.4736842105263" y="716.8421052631579"/>
      <point x="150.78947368421055" y="580.0526315789474" type="curve"/>
      <point x="118.52631578947367" y="431.4736842105263" type="line"/>
      <point x="72.63157894736841" y="265.5263157894737"/>
      <point x="40.68421052631579" y="142.10526315789474"/>
    </contour>
  </outline>
</glyph>
<glyph name="p" format="2">
  <advance width="1199.8947368421052"/>
  <unicode hex="0070"/>
  <outline>
    <contour>
      <point x="-81.26315789473685" y="-393.2631578947368" type="curve"/>
      <point x="290.7368421052632" y="-384.0" type="line"/>
      <point x="310.2105263157895" y="-241.89473684210526"/>
      <point x="325.6842105263158" y="-118.47368421052632"/>
      <point x="346.52631578947364" y="30.368421052631575" type="curve"/>
      <point x="363.9473684210526" y="110.73684210526316" type="line"/>
      <point x="382.5263157894737" y="110.73684210526316" type="line"/>
      <point x="473.94736842105266" y="32.526315789473685"/>
      <point x="585.7368421052632" y="-27.210526315789473"/>
      <point x="665.421052631579" y="-27.210526315789473" type="curve" smooth="yes"/>
      <point x="901.5263157894736" y="-27.210526315789473"/>
      <point x="1063.1052631578948" y="171.73684210526315"/>
      <point x="1123.1052631578948" y="455.7894736842105" type="curve" smooth="yes"/>
      <point x="1186.421052631579" y="758.421052631579"/>
      <point x="1088.7368421052631" y="1026.421052631579"/>
      <point x="813.0" y="1026.421052631579" type="curve" smooth="yes"/>
      <point x="739.4736842105264" y="1026.421052631579"/>
      <point x="615.0" y="960.1052631578948"/>
      <point x="523.2105263157895" y="877.7368421052632" type="curve"/>
      <point x="495.4210526315789" y="877.7368421052632" type="line"/>
      <point x="507.47368421052624" y="1013.7368421052631" type="line"/>
      <point x="194.1578947368421" y="998.5263157894736" type="line"/>
      <point x="178.1578947368421" y="854.421052631579"/>
      <point x="165.47368421052633" y="716.8421052631579"/>
      <point x="150.78947368421055" y="580.0526315789474" type="curve"/>
      <point x="37.84210526315789" y="47.473684210526315" type="line"/>
      <point x="-6.052631578947372" y="-118.47368421052632"/>
      <point x="-43.315789473684205" y="-251.1578947368421"/>
    </contour>
    <contour>
      <point x="574.6315789473684" y="242.05263157894737" type="curve"/>
      <point x="524.1052631578948" y="247.3684210526316"/>
      <point x="454.2631578947369" y="283.94736842105266"/>
      <point x="411.52631578947364" y="334.1578947368422" type="curve"/>
      <point x="480.7368421052632" y="662.0" type="line"/>
      <point x="532.8421052631579" y="715.9473684210527"/>
      <point x="612.7894736842106" y="755.1578947368421"/>
      <point x="655.7368421052631" y="761.1052631578947" type="curve"/>
      <point x="788.8947368421052" y="755.1052631578947"/>
      <point x="836.8421052631579" y="621.3157894736842"/>
      <point x="807.1578947368421" y="479.57894736842104" type="curve" smooth="yes"/>
      <point x="778.8947368421053" y="344.3157894736842"/>
      <point x="702.1578947368422" y="249.3684210526316"/>
    </contour>
  </outline>
</glyph>
<glyph name="q" format="2">
  <advance width="1177.2631578947369"/>
  <unicode hex="0071"/>
  <outline>
    <contour>
      <point x="540.3684210526317" y="-393.2631578947368" type="curve"/>
      <point x="904.4736842105262" y="-384.0" type="line"/>
      <point x="926.5789473684212" y="-241.89473684210526"/>
      <point x="944.6842105263158" y="-118.47368421052632"/>
      <point x="970.7894736842105" y="47.473684210526315" type="curve"/>
      <point x="1084.3684210526317" y="580.0526315789474" type="line"/>
      <point x="1124.1578947368419" y="721.4736842105264"/>
      <point x="1169.3157894736842" y="865.0"/>
      <point x="1215.7368421052631" y="1013.7368421052631" type="curve"/>
      <point x="903.6842105263158" y="998.5263157894736" type="line"/>
      <point x="861.7368421052631" y="872.9473684210527" type="line"/>
      <point x="836.578947368421" y="872.9473684210527" type="line"/>
      <point x="744.0" y="958.1052631578948"/>
      <point x="620.1578947368421" y="1026.421052631579"/>
      <point x="535.7894736842105" y="1026.421052631579" type="curve" smooth="yes"/>
      <point x="299.6842105263158" y="1026.421052631579"/>
      <point x="138.10526315789474" y="827.4736842105264"/>
      <point x="78.10526315789473" y="543.421052631579" type="curve" smooth="yes"/>
      <point x="14.789473684210519" y="240.78947368421052"/>
      <point x="112.47368421052632" y="-27.210526315789473"/>
      <point x="388.2105263157895" y="-27.210526315789473" type="curve" smooth="yes"/>
      <point x="455.157894736842" y="-27.210526315789473"/>
      <point x="559.6842105263158" y="27.05263157894737"/>
      <point x="646.4210526315788" y="102.63157894736844" type="curve"/>
      <point x="670.2631578947369" y="102.63157894736844" type="line"/>
      <point x="654.2105263157896" y="30.368421052631575" type="line"/>
      <point x="615.5789473684212" y="-118.47368421052632"/>
      <point x="578.3157894736844" y="-251.1578947368421"/>
    </contour>
    <contour>
      <point x="545.4736842105264" y="238.10526315789474" type="curve"/>
      <point x="412.3157894736842" y="243.42105263157896"/>
      <point x="363.68421052631584" y="378.5789473684211"/>
      <point x="394.0526315789474" y="519.6315789473684" type="curve" smooth="yes"/>
      <point x="423.0" y="656.2631578947368"/>
      <point x="499.0526315789474" y="749.8421052631579"/>
      <point x="626.578947368421" y="757.1578947368421" type="curve"/>
      <point x="679.1578947368422" y="752.5263157894736"/>
      <point x="746.9473684210525" y="715.9473684210527"/>
      <point x="791.7368421052632" y="675.3157894736843" type="curve"/>
      <point x="723.2105263157895" y="352.2631578947369" type="line"/>
      <point x="674.5263157894738" y="291.47368421052636"/>
      <point x="602.7894736842104" y="244.73684210526315"/>
    </contour>
  </outline>
</glyph>
<glyph name="r" format="2">
  <advance width="845.8947368421053"/>
  <unicode hex="0072"/>
  <anchor x="168.89473684210526" y="0.0" name="bottom"/>
  <anchor x="575.8947368421052" y="998.5263157894736" name="top"/>
  <outline>
    <contour>
      <point x="1.4210526315789433" y="0.0" type="curve"/>
      <point x="364.8421052631579" y="0.0" type="line"/>
      <point x="386.9473684210526" y="142.10526315789474"/>
      <point x="405.05263157894734" y="265.5263157894737"/>
      <point x="427.2105263157895" y="414.36842105263156" type="curve"/>
      <point x="463.42105263157896" y="576.0" type="line"/>
      <point x="549.263157894737" y="659.8947368421052"/>
      <point x="652.3157894736843" y="711.1052631578947"/>
      <point x="687.3684210526317" y="711.1052631578947" type="curve" smooth="yes"/>
      <point x="704.6842105263157" y="711.1052631578947"/>
      <point x="759.3684210526317" y="697.1052631578947"/>
      <point x="822.5263157894738" y="679.8421052631579" type="curve"/>
      <point x="918.8421052631579" y="1005.7368421052631" type="line"/>
      <point x="874.1052631578947" y="1018.4210526315788"/>
      <point x="814.684210526316" y="1026.421052631579"/>
      <point x="797.9473684210527" y="1026.421052631579" type="curve" smooth="yes"/>
      <point x="714.684210526316" y="1026.421052631579"/>
      <point x="632.1578947368421" y="970.1052631578949"/>
      <point x="506.52631578947376" y="847.7894736842105" type="curve"/>
      <point x="480.7368421052632" y="847.7894736842105" type="line"/>
      <point x="497.0" y="1013.7368421052631" type="line"/>
      <point x="194.15789473684208" y="998.5263157894736" type="line"/>
      <point x="178.15789473684214" y="854.421052631579"/>
      <point x="165.4736842105263" y="716.8421052631579"/>
      <point x="150.78947368421055" y="580.0526315789474" type="curve"/>
      <point x="118.52631578947367" y="431.4736842105263" type="line"/>
      <point x="72.63157894736841" y="265.5263157894737"/>
      <point x="40.68421052631579" y="142.10526315789474"/>
    </contour>
  </outline>
</glyph>
<glyph name="s" format="2">
  <advance width="934.5436893203884"/>
  <unicode hex="0073"/>
  <anchor x="366.1165048543689" y="0.0" name="bottom"/>
  <anchor x="576.8543689320388" y="998.9514563106795" name="top"/>
  <outline>
    <contour>
      <point x="408.8543689320389" y="-26.95145631067961" type="curve" smooth="yes"/>
      <point x="665.3009708737865" y="-26.95145631067961"/>
      <point x="794.252427184466" y="76.42718446601943"/>
      <point x="825.7281553398059" y="228.11650485436897" type="curve" smooth="yes"/>
      <point x="861.7281553398059" y="402.2135922330097"/>
      <point x="779.0097087378642" y="486.5242718446603"/>
      <point x="577.4174757281554" y="572.0" type="curve" smooth="yes"/>
      <point x="455.86407766990294" y="624.4077669902912"/>
      <point x="435.5533980582524" y="659.0291262135922"/>
      <point x="446.6019417475728" y="707.4368932038834" type="curve" smooth="yes"/>
      <point x="459.43689320388347" y="764.0388349514562"/>
      <point x="518.2524271844661" y="775.514563106796"/>
      <point x="569.9223300970874" y="779.514563106796" type="curve"/>
      <point x="596.970873786408" y="779.514563106796"/>
      <point x="720.9708737864078" y="732.0388349514562"/>
      <point x="838.2330097087379" y="679.0873786407768" type="curve"/>
      <point x="911.7281553398059" y="942.4271844660194" type="line"/>
      <point x="798.1359223300971" y="973.9029126213592"/>
      <point x="612.7572815533981" y="1025.1650485436894"/>
      <point x="524.6407766990291" y="1025.1650485436894" type="curve" smooth="yes"/>
      <point x="303.7669902912621" y="1025.1650485436894"/>
      <point x="169.5533980582524" y="930.0"/>
      <point x="133.5533980582524" y="761.2621359223301" type="curve" smooth="yes"/>
      <point x="98.29126213592231" y="599.4757281553398"/>
      <point x="163.43689320388347" y="498.8349514563107"/>
      <point x="344.07766990291265" y="421.57281553398053" type="curve" smooth="yes"/>
      <point x="483.63106796116506" y="361.1650485436893"/>
      <point x="526.4660194174758" y="326.5436893203884"/>
      <point x="512.1553398058253" y="274.34951456310677" type="curve" smooth="yes"/>
      <point x="498.5825242718447" y="223.84466019417476"/>
      <point x="435.02912621359224" y="215.3203883495146"/>
      <point x="374.31067961165047" y="212.58252427184468" type="curve"/>
      <point x="333.16504854368924" y="212.58252427184468"/>
      <point x="201.04854368932035" y="266.7961165048543"/>
      <point x="66.83495145631068" y="331.53398058252435" type="curve"/>
      <point x="-5.708737864077682" y="63.35922330097086" type="line"/>
      <point x="143.88349514563103" y="18.834951456310677"/>
      <point x="320.4271844660194" y="-26.95145631067961"/>
    </contour>
  </outline>
</glyph>
<glyph name="u" format="2">
  <advance width="1158.5263157894735"/>
  <unicode hex="0075"/>
  <anchor x="472.31578947368416" y="0.0" name="bottom"/>
  <anchor x="953.5263157894739" y="0.0" name="ogonek"/>
  <anchor x="681.6315789473683" y="998.5263157894736" name="top"/>
  <anchor x="1216.3157894736842" y="998.5263157894736" name="topright"/>
  <outline>
    <contour>
      <point x="325.15789473684214" y="-27.210526315789473" type="curve" smooth="yes"/>
      <point x="409.4736842105263" y="-27.210526315789473"/>
      <point x="557.1578947368421" y="58.578947368421055"/>
      <point x="664.9473684210526" y="141.84210526315786" type="curve"/>
      <point x="690.7368421052632" y="141.84210526315786" type="line"/>
      <point x="673.1052631578948" y="0.0" type="line"/>
      <point x="961.4210526315791" y="0.0" type="line"/>
      <point x="983.5263157894736" y="142.10526315789474"/>
      <point x="1000.3157894736843" y="265.5263157894737"/>
      <point x="1025.7368421052631" y="431.4736842105263" type="curve"/>
      <point x="1050.3684210526314" y="544.6315789473684" type="line"/>
      <point x="1099.5263157894735" y="731.6315789473684"/>
      <point x="1132.842105263158" y="856.421052631579"/>
      <point x="1170.7894736842106" y="998.5263157894736" type="curve"/>
      <point x="810.6315789473683" y="998.5263157894736" type="line"/>
      <point x="789.8421052631579" y="856.421052631579"/>
      <point x="769.7368421052631" y="731.6315789473684"/>
      <point x="745.6315789473684" y="582.7894736842106" type="curve"/>
      <point x="700.1578947368421" y="367.5263157894737" type="line"/>
      <point x="635.1052631578947" y="305.89473684210526"/>
      <point x="537.4736842105264" y="251.26315789473685"/>
      <point x="502.8421052631579" y="251.26315789473685" type="curve" smooth="yes"/>
      <point x="404.8947368421053" y="251.26315789473685"/>
      <point x="380.52631578947376" y="327.7368421052631"/>
      <point x="411.3684210526316" y="465.3157894736842" type="curve"/>
      <point x="435.52631578947376" y="582.7894736842106" type="line"/>
      <point x="474.15789473684214" y="731.6315789473684"/>
      <point x="510.78947368421063" y="865.6842105263158"/>
      <point x="548.7368421052631" y="1007.7894736842105" type="curve"/>
      <point x="182.63157894736844" y="998.5263157894736" type="line"/>
      <point x="161.8421052631579" y="856.421052631579"/>
      <point x="141.73684210526315" y="731.6315789473686"/>
      <point x="115.0" y="544.6315789473684" type="curve"/>
      <point x="99.00000000000001" y="469.36842105263156"/>
      <point x="83.73684210526316" y="414.10526315789474"/>
      <point x="71.73684210526316" y="357.4736842105263" type="curve" smooth="yes"/>
      <point x="21.68421052631579" y="124.0"/>
      <point x="111.05263157894737" y="-27.210526315789473"/>
    </contour>
  </outline>
</glyph>
<glyph name="v" format="2">
  <advance width="1106.4736842105262"/>
  <unicode hex="0076"/>
  <outline>
    <contour>
      <point x="268.4210526315789" y="0.0" type="curve"/>
      <point x="632.7368421052632" y="0.0" type="line"/>
      <point x="698.8421052631579" y="125.3157894736842"/>
      <point x="762.9473684210526" y="248.6315789473684"/>
      <point x="828.3684210526316" y="373.9473684210526" type="curve"/>
      <point x="929.1052631578948" y="552.5789473684212" type="line"/>
      <point x="1018.4210526315788" y="701.2105263157895"/>
      <point x="1107.7894736842106" y="851.2105263157895"/>
      <point x="1196.4736842105265" y="998.5263157894736" type="curve"/>
      <point x="810.5263157894736" y="998.5263157894736" type="line"/>
      <point x="757.1052631578947" y="872.3684210526316"/>
      <point x="701.7894736842105" y="737.7894736842105"/>
      <point x="643.7368421052631" y="597.1052631578948" type="curve"/>
      <point x="524.4736842105264" y="337.10526315789474" type="line"/>
      <point x="499.3157894736842" y="337.10526315789474" type="line"/>
      <point x="484.6842105263158" y="597.1052631578948" type="line"/>
      <point x="482.94736842105266" y="735.7894736842105"/>
      <point x="481.89473684210526" y="874.3684210526316"/>
      <point x="478.8421052631579" y="1007.7894736842105" type="curve"/>
      <point x="122.00000000000003" y="998.5263157894736" type="line"/>
      <point x="148.68421052631575" y="855.8421052631579"/>
      <point x="176.6842105263158" y="701.8947368421053"/>
      <point x="203.36842105263156" y="555.2631578947369" type="curve"/>
      <point x="229.42105263157896" y="377.94736842105266" type="line"/>
      <point x="241.52631578947367" y="254.68421052631578"/>
      <point x="256.31578947368416" y="123.94736842105262"/>
    </contour>
  </outline>
</glyph>
<glyph name="w" format="2">
  <advance width="1675.2631578947369"/>
  <unicode hex="0077"/>
  <anchor x="726.1052631578947" y="0.0" name="bottom"/>
  <anchor x="935.4210526315788" y="998.5263157894736" name="top"/>
  <outline>
    <contour>
      <point x="218.42105263157893" y="0.0" type="curve"/>
      <point x="572.8947368421053" y="0.0" type="line"/>
      <point x="620.8421052631578" y="116.84210526315789"/>
      <point x="672.8421052631579" y="240.42105263157893"/>
      <point x="720.7894736842105" y="356.57894736842104" type="curve"/>
      <point x="821.2105263157895" y="580.1578947368421" type="line"/>
      <point x="843.7368421052631" y="580.1578947368421" type="line"/>
      <point x="853.4736842105262" y="364.5263157894737" type="line"/>
      <point x="853.0526315789475" y="249.1578947368421"/>
      <point x="854.6842105263158" y="113.42105263157895"/>
      <point x="855.5789473684209" y="0.0" type="curve"/>
      <point x="1243.6842105263156" y="0.0" type="line"/>
      <point x="1302.4210526315792" y="122.63157894736841"/>
      <point x="1361.842105263158" y="249.94736842105263"/>
      <point x="1425.2631578947369" y="381.94736842105266" type="curve"/>
      <point x="1516.6315789473683" y="555.9473684210527" type="line"/>
      <point x="1600.5789473684208" y="705.2105263157895"/>
      <point x="1681.8947368421054" y="849.2105263157895"/>
      <point x="1767.2105263157894" y="998.5263157894736" type="curve"/>
      <point x="1379.9473684210525" y="998.5263157894736" type="line"/>
      <point x="1332.7368421052633" y="877.2631578947368"/>
      <point x="1272.736842105263" y="723.2105263157895"/>
      <point x="1220.1578947368419" y="588.578947368421" type="curve"/>
      <point x="1107.7368421052631" y="323.3157894736842" type="line"/>
      <point x="1084.578947368421" y="323.3157894736842" type="line"/>
      <point x="1079.4210526315787" y="585.2631578947369" type="line"/>
      <point x="1081.7894736842104" y="721.2105263157895"/>
      <point x="1084.7894736842102" y="866.5789473684212"/>
      <point x="1087.157894736842" y="998.5263157894736" type="curve"/>
      <point x="765.7368421052631" y="998.5263157894736" type="line"/>
      <point x="711.7894736842105" y="859.8421052631579"/>
      <point x="659.8421052631579" y="723.8421052631579"/>
      <point x="605.2631578947369" y="583.8947368421052" type="curve"/>
      <point x="494.89473684210526" y="323.3157894736842" type="line"/>
      <point x="471.7368421052632" y="323.3157894736842" type="line"/>
      <point x="465.89473684210526" y="581.1578947368422" type="line"/>
      <point x="468.2631578947368" y="717.1052631578948"/>
      <point x="470.5789473684211" y="870.4736842105264"/>
      <point x="472.2631578947368" y="1007.7894736842105" type="curve"/>
      <point x="113.42105263157897" y="998.5263157894736" type="line"/>
      <point x="135.42105263157893" y="848.5263157894736"/>
      <point x="156.73684210526315" y="704.5789473684212"/>
      <point x="178.05263157894737" y="555.9473684210527" type="curve"/>
      <point x="195.47368421052633" y="379.2631578947369" type="line"/>
      <point x="203.57894736842104" y="250.57894736842107"/>
      <point x="211.00000000000003" y="125.3157894736842"/>
    </contour>
  </outline>
</glyph>
<glyph name="x" format="2">
  <advance width="1155.5263157894738"/>
  <unicode hex="0078"/>
  <outline>
    <contour>
      <point x="-81.36842105263158" y="0.0" type="curve"/>
      <point x="326.47368421052636" y="0.0" type="line"/>
      <point x="369.7894736842105" y="75.63157894736842"/>
      <point x="400.94736842105266" y="129.21052631578948"/>
      <point x="443.5789473684211" y="206.78947368421052" type="curve"/>
      <point x="536.7368421052631" y="348.7368421052631" type="line"/>
      <point x="557.2631578947369" y="348.7368421052631" type="line"/>
      <point x="600.8421052631579" y="198.8421052631579" type="line"/>
      <point x="618.0000000000001" y="125.21052631578947"/>
      <point x="629.6842105263157" y="71.0"/>
      <point x="646.8421052631578" y="0.0" type="curve"/>
      <point x="1030.157894736842" y="0.0" type="line"/>
      <point x="965.3684210526314" y="131.21052631578945"/>
      <point x="923.9473684210526" y="216.4736842105263"/>
      <point x="875.1578947368421" y="313.7894736842105" type="curve"/>
      <point x="771.4736842105264" y="551.578947368421" type="line"/>
      <point x="774.0526315789474" y="485.42105263157896" type="line"/>
      <point x="957.6315789473684" y="702.0" type="line"/>
      <point x="1045.7368421052631" y="801.3157894736842"/>
      <point x="1103.736842105263" y="866.578947368421"/>
      <point x="1220.5263157894733" y="998.5263157894736" type="curve"/>
      <point x="811.3684210526316" y="998.5263157894736" type="line"/>
      <point x="765.421052631579" y="922.8947368421053"/>
      <point x="732.3157894736843" y="866.6842105263158"/>
      <point x="689.1052631578947" y="791.1578947368421" type="curve"/>
      <point x="597.421052631579" y="653.3157894736842" type="line"/>
      <point x="574.9473684210527" y="653.3157894736842" type="line"/>
      <point x="534.2105263157895" y="792.4736842105264" type="line"/>
      <point x="519.1578947368421" y="865.9473684210527"/>
      <point x="504.7894736842106" y="930.842105263158"/>
      <point x="487.0" y="1007.7894736842105" type="curve"/>
      <point x="127.42105263157895" y="998.5263157894736" type="line"/>
      <point x="183.57894736842104" y="874.5789473684212"/>
      <point x="218.3157894736842" y="798.6315789473684"/>
      <point x="264.4736842105263" y="697.9473684210526" type="curve"/>
      <point x="350.8421052631579" y="482.6842105263158" type="line"/>
      <point x="364.05263157894734" y="550.2105263157895" type="line"/>
      <point x="184.31578947368422" y="317.7368421052632" type="line"/>
      <point x="95.5263157894737" y="211.1578947368421"/>
      <point x="33.473684210526315" y="136.57894736842107"/>
    </contour>
  </outline>
</glyph>
<glyph name="y" format="2">
  <advance width="1109.2105263157896"/>
  <unicode hex="0079"/>
  <anchor x="807.2105263157896" y="0.0" name="bottom"/>
  <anchor x="659.9473684210526" y="998.5263157894736" name="top"/>
  <outline>
    <contour>
      <point x="5.4736842105262955" y="-393.2631578947368" type="curve"/>
      <point x="394.05263157894734" y="-384.0" type="line"/>
      <point x="472.1578947368421" y="-240.68421052631578"/>
      <point x="564.8947368421053" y="-72.73684210526315"/>
      <point x="704.4210526315788" y="181.26315789473685" type="curve"/>
      <point x="870.4736842105262" y="461.89473684210526" type="line"/>
      <point x="1020.5263157894735" y="711.8947368421053"/>
      <point x="1095.8421052631577" y="835.8421052631578"/>
      <point x="1193.8947368421052" y="998.5263157894736" type="curve"/>
      <point x="811.8947368421052" y="998.5263157894736" type="line"/>
      <point x="754.5263157894736" y="861.2105263157895"/>
      <point x="699.1578947368421" y="729.8947368421053"/>
      <point x="640.4210526315788" y="590.5263157894738" type="curve"/>
      <point x="516.4736842105264" y="326.5789473684211" type="line"/>
      <point x="491.3157894736843" y="326.5789473684211" type="line"/>
      <point x="478.0526315789474" y="591.1578947368421" type="line"/>
      <point x="477.00000000000006" y="733.1578947368421"/>
      <point x="475.9473684210526" y="865.7894736842105"/>
      <point x="474.89473684210526" y="1007.7894736842105" type="curve"/>
      <point x="118.0526315789474" y="998.5263157894736" type="line"/>
      <point x="144.05263157894737" y="855.2105263157895"/>
      <point x="170.73684210526315" y="703.2105263157895"/>
      <point x="196.73684210526315" y="559.8947368421053" type="curve"/>
      <point x="221.47368421052633" y="379.89473684210526" type="line"/>
      <point x="234.26315789473682" y="242.57894736842107"/>
      <point x="248.3684210526316" y="104.57894736842105"/>
      <point x="261.1578947368421" y="-32.73684210526316" type="curve"/>
      <point x="286.2105263157895" y="36.736842105263165" type="line"/>
      <point x="195.05263157894734" y="-102.42105263157893"/>
      <point x="96.63157894736841" y="-254.10526315789477"/>
    </contour>
  </outline>
</glyph>
<glyph name="z" format="2">
  <advance width="1035.0526315789473"/>
  <unicode hex="007A"/>
  <anchor x="409.5263157894737" y="0.0" name="bottom"/>
  <anchor x="514.8421052631579" y="499.2631578947368" name="center"/>
  <anchor x="620.1578947368421" y="998.5263157894736" name="top"/>
  <outline>
    <contour>
      <point x="-43.631578947368425" y="0.0" type="line"/>
      <point x="870.7894736842106" y="0.0" type="line"/>
      <point x="926.8947368421053" y="264.63157894736844" type="line"/>
      <point x="803.2105263157894" y="252.10526315789477"/>
      <point x="649.2631578947368" y="238.26315789473685"/>
      <point x="555.578947368421" y="229.6842105263158" type="curve"/>
      <point x="348.7894736842106" y="229.6842105263158" type="line"/>
      <point x="381.15789473684214" y="165.6315789473684" type="line"/>
      <point x="695.7368421052631" y="490.2631578947368" type="line"/>
      <point x="798.2105263157895" y="587.5263157894736"/>
      <point x="924.8421052631579" y="707.6315789473683"/>
      <point x="1008.4736842105264" y="786.6842105263157" type="curve"/>
      <point x="1052.6842105263158" y="998.5263157894736" type="line"/>
      <point x="176.21052631578948" y="998.5263157894736" type="line"/>
      <point x="118.78947368421052" y="727.3157894736842" type="line"/>
      <point x="248.52631578947367" y="741.1578947368421"/>
      <point x="410.4210526315789" y="757.6315789473683"/>
      <point x="506.05263157894734" y="767.5263157894736" type="curve"/>
      <point x="696.0526315789474" y="767.5263157894736" type="line"/>
      <point x="651.8421052631579" y="852.2105263157895" type="line"/>
      <point x="324.7894736842105" y="504.57894736842104" type="line"/>
      <point x="227.6842105263158" y="410.05263157894734"/>
      <point x="113.84210526315789" y="298.7894736842105"/>
      <point x="-4.684210526315789" y="184.15789473684214" type="curve"/>
    </contour>
  </outline>
</glyph>
<glyph name="braceleft" format="2">
  <advance width="899.2631578947369"/>
  <unicode hex="007B"/>
  <outline>
    <contour>
      <point x="508.9473684210526" y="-247.68421052631578" type="curve" smooth="yes"/>
      <point x="696.3684210526316" y="-247.68421052631578" type="line"/>
      <point x="749.1578947368421" y="7.736842105263172" type="line"/>
      <point x="681.8421052631579" y="4.421052631578961"/>
      <point x="626.5263157894738" y="1.7894736842105399"/>
      <point x="592.5263157894738" y="0.47368421052632925" type="curve"/>
      <point x="499.7894736842105" y="5.736842105263172"/>
      <point x="470.7894736842105" y="69.36842105263159"/>
      <point x="486.89473684210526" y="160.47368421052633" type="curve" smooth="yes"/>
      <point x="542.6842105263157" y="475.57894736842104" type="line" smooth="yes"/>
      <point x="547.3157894736842" y="502.0526315789473"/>
      <point x="466.2105263157895" y="584.8421052631578"/>
      <point x="395.89473684210526" y="637.3157894736842" type="curve"/>
      <point x="400.52631578947364" y="661.1578947368421" type="line"/>
      <point x="487.47368421052624" y="714.2631578947368"/>
      <point x="611.9473684210526" y="810.4210526315788"/>
      <point x="619.2105263157895" y="840.8421052631579" type="curve" smooth="yes"/>
      <point x="698.2105263157895" y="1166.2105263157896" type="line" smooth="yes"/>
      <point x="720.9473684210526" y="1259.3684210526314"/>
      <point x="769.3157894736842" y="1296.8421052631581"/>
      <point x="859.9473684210526" y="1302.1052631578948" type="curve"/>
      <point x="895.9999999999999" y="1300.7894736842106"/>
      <point x="957.5789473684212" y="1297.4736842105265"/>
      <point x="1012.842105263158" y="1294.842105263158" type="curve"/>
      <point x="1067.6315789473686" y="1550.2631578947369" type="line"/>
      <point x="847.4736842105262" y="1550.2631578947369" type="line" smooth="yes"/>
      <point x="613.0" y="1550.2631578947369"/>
      <point x="452.3684210526316" y="1460.5263157894735"/>
      <point x="415.10526315789474" y="1246.578947368421" type="curve"/>
      <point x="412.42105263157896" y="1231.842105263158"/>
      <point x="362.7894736842106" y="950.1578947368421"/>
      <point x="360.10526315789474" y="936.7368421052631" type="curve"/>
      <point x="337.36842105263156" y="823.0526315789474"/>
      <point x="249.94736842105263" y="761.5263157894736"/>
      <point x="174.78947368421052" y="761.5263157894736" type="curve" smooth="yes"/>
      <point x="88.26315789473685" y="761.5263157894736" type="line"/>
      <point x="42.05263157894737" y="540.3684210526316" type="line"/>
      <point x="128.57894736842104" y="540.3684210526316" type="line" smooth="yes"/>
      <point x="203.73684210526315" y="540.3684210526316"/>
      <point x="265.10526315789474" y="485.6842105263158"/>
      <point x="240.31578947368422" y="365.1578947368421" type="curve"/>
      <point x="237.6315789473684" y="351.7368421052632"/>
      <point x="183.47368421052636" y="133.89473684210526"/>
      <point x="180.78947368421055" y="120.47368421052632" type="curve"/>
      <point x="138.26315789473688" y="-90.10526315789473"/>
      <point x="268.3157894736842" y="-247.68421052631578"/>
    </contour>
  </outline>
</glyph>
<glyph name="asciitilde" format="2">
  <advance width="1159.4736842105262"/>
  <unicode hex="007E"/>
  <outline>
    <contour>
      <point x="823.1052631578948" y="408.10526315789474" type="curve" smooth="yes"/>
      <point x="973.8947368421053" y="408.10526315789474"/>
      <point x="1069.6315789473686" y="545.9473684210526"/>
      <point x="1118.0526315789475" y="774.8421052631579" type="curve"/>
      <point x="933.7368421052631" y="774.8421052631579" type="line"/>
      <point x="906.3157894736842" y="712.8421052631579"/>
      <point x="881.4736842105264" y="682.0"/>
      <point x="828.3684210526316" y="676.6842105263158" type="curve"/>
      <point x="710.0" y="687.2631578947369"/>
      <point x="550.263157894737" y="812.6842105263158"/>
      <point x="395.5263157894737" y="812.6842105263158" type="curve" smooth="yes"/>
      <point x="236.8421052631579" y="812.6842105263158"/>
      <point x="137.78947368421055" y="672.8421052631579"/>
      <point x="88.6842105263158" y="445.9473684210526" type="curve"/>
      <point x="273.0" y="445.9473684210526" type="line"/>
      <point x="300.42105263157896" y="507.9473684210526"/>
      <point x="330.57894736842104" y="538.7894736842105"/>
      <point x="385.63157894736844" y="544.1052631578947" type="curve"/>
      <point x="498.1052631578948" y="533.5263157894736"/>
      <point x="663.1052631578948" y="408.10526315789474"/>
    </contour>
  </outline>
</glyph>
<glyph name="cent" format="2">
  <advance width="967.1578947368421"/>
  <unicode hex="00A2"/>
  <outline>
    <contour>
      <point x="269.8421052631579" y="-274.00000000000006" type="curve"/>
      <point x="521.3684210526316" y="-274.00000000000006" type="line"/>
      <point x="546.6315789473684" y="-133.89473684210532"/>
      <point x="572.578947368421" y="6.315789473684205"/>
      <point x="595.8421052631579" y="136.42105263157896" type="curve"/>
      <point x="369.36842105263156" y="136.42105263157896" type="line"/>
      <point x="337.52631578947364" y="4.94736842105263"/>
      <point x="303.68421052631584" y="-133.21052631578945"/>
    </contour>
    <contour>
      <point x="524.0" y="873.2105263157895" type="curve"/>
      <point x="754.4210526315788" y="873.2105263157895" type="line"/>
      <point x="783.6315789473684" y="996.1052631578948"/>
      <point x="813.5263157894736" y="1121.1052631578946"/>
      <point x="845.3684210526316" y="1252.578947368421" type="curve"/>
      <point x="593.8421052631579" y="1252.578947368421" type="line"/>
      <point x="569.8947368421052" y="1120.3684210526314"/>
      <point x="545.9473684210526" y="994.1052631578948"/>
    </contour>
    <contour>
      <point x="571.1052631578947" y="-23.263157894736842" type="curve" smooth="yes"/>
      <point x="631.263157894737" y="-23.263157894736842"/>
      <point x="749.3684210526316" y="5.578947368421051"/>
      <point x="803.3684210526316" y="23.631578947368418" type="curve"/>
      <point x="844.1578947368421" y="297.68421052631584" type="line"/>
      <point x="779.3684210526316" y="270.2105263157895"/>
      <point x="664.578947368421" y="234.8421052631579"/>
      <point x="631.6315789473684" y="234.1578947368421" type="curve" smooth="yes"/>
      <point x="456.3157894736842" y="238.1578947368421"/>
      <point x="349.7368421052632" y="343.8421052631579"/>
      <point x="391.3684210526316" y="532.6842105263158" type="curve" smooth="yes"/>
      <point x="425.00000000000006" y="680.2105263157894"/>
      <point x="524.1052631578947" y="751.1052631578947"/>
      <point x="654.6842105263157" y="761.1052631578947" type="curve"/>
      <point x="680.1578947368423" y="761.1052631578947"/>
      <point x="804.9473684210527" y="723.0526315789474"/>
      <point x="918.4736842105262" y="676.9473684210526" type="curve"/>
      <point x="995.7368421052631" y="947.578947368421" type="line"/>
      <point x="885.4736842105264" y="982.8421052631579"/>
      <point x="713.4736842105262" y="1025.1052631578948"/>
      <point x="654.0526315789474" y="1025.1052631578948" type="curve" smooth="yes"/>
      <point x="338.7894736842105" y="1025.1052631578948"/>
      <point x="135.3684210526316" y="839.0526315789474"/>
      <point x="76.73684210526316" y="560.4736842105262" type="curve" smooth="yes"/>
      <point x="2.8421052631578974" y="207.5263157894737"/>
      <point x="207.0" y="-23.263157894736842"/>
    </contour>
  </outline>
</glyph>
<glyph name="sterling" format="2">
  <advance width="1215.8947368421052"/>
  <unicode hex="00A3"/>
  <outline>
    <contour>
      <point x="-7.947368421052635" y="0.0" type="line"/>
      <point x="1047.157894736842" y="0.0" type="line"/>
      <point x="1113.7894736842104" y="313.3684210526316" type="line"/>
      <point x="961.6842105263158" y="304.7894736842106"/>
      <point x="736.5263157894736" y="293.5789473684211"/>
      <point x="559.1578947368422" y="283.68421052631584" type="curve"/>
      <point x="290.7894736842105" y="283.68421052631584" type="line"/>
      <point x="372.52631578947364" y="231.21052631578948" type="line"/>
      <point x="536.1578947368421" y="439.15789473684214"/>
      <point x="574.8947368421052" y="501.31578947368416"/>
      <point x="588.2631578947368" y="566.1578947368421" type="curve" smooth="yes"/>
      <point x="654.2105263157894" y="882.2105263157895" type="line" smooth="yes"/>
      <point x="689.1578947368421" y="1047.4736842105262"/>
      <point x="776.8947368421053" y="1123.3684210526314"/>
      <point x="914.578947368421" y="1129.3157894736842" type="curve"/>
      <point x="940.7368421052633" y="1129.3157894736842"/>
      <point x="1069.526315789474" y="1091.2631578947367"/>
      <point x="1187.0526315789475" y="1043.842105263158" type="curve"/>
      <point x="1278.1578947368419" y="1331.578947368421" type="line"/>
      <point x="1148.1052631578946" y="1364.2105263157891"/>
      <point x="947.7368421052631" y="1405.157894736842"/>
      <point x="879.7368421052631" y="1405.157894736842" type="curve" smooth="yes"/>
      <point x="576.8421052631579" y="1405.157894736842"/>
      <point x="385.7894736842105" y="1238.2631578947369"/>
      <point x="321.1578947368421" y="925.1578947368421" type="curve" smooth="yes"/>
      <point x="293.05263157894734" y="793.4210526315788"/>
      <point x="266.8421052631579" y="611.7368421052631"/>
      <point x="235.4736842105263" y="461.5789473684211" type="curve"/>
      <point x="224.78947368421052" y="416.7368421052632"/>
      <point x="186.6842105263158" y="356.47368421052624"/>
      <point x="29.052631578947366" y="176.3684210526316" type="curve"/>
    </contour>
    <contour>
      <point x="125.42105263157895" y="611.6315789473683" type="line"/>
      <point x="265.10526315789474" y="616.2631578947369"/>
      <point x="411.6315789473684" y="620.8947368421052"/>
      <point x="511.8947368421052" y="623.5263157894736" type="curve"/>
      <point x="590.3157894736842" y="623.5263157894736" type="line"/>
      <point x="687.9473684210527" y="620.8947368421052"/>
      <point x="833.1052631578948" y="616.2631578947369"/>
      <point x="970.1578947368422" y="611.6315789473683" type="curve"/>
      <point x="1021.0000000000001" y="851.9473684210527" type="line"/>
      <point x="882.6315789473684" y="847.3157894736842"/>
      <point x="735.4736842105264" y="842.6842105263158"/>
      <point x="635.2105263157895" y="840.0526315789474" type="curve"/>
      <point x="556.7894736842105" y="840.0526315789474" type="line"/>
      <point x="459.1578947368421" y="842.6842105263158"/>
      <point x="314.63157894736844" y="847.3157894736842"/>
      <point x="176.26315789473682" y="851.9473684210527" type="curve"/>
    </contour>
  </outline>
</glyph>
<glyph name="brokenbar" format="2">
  <advance width="568.421052631579"/>
  <unicode hex="00A6"/>
  <outline>
    <contour>
      <point x="195.68421052631578" y="718.8421052631579" type="line"/>
      <point x="466.21052631578954" y="718.8421052631579" type="line"/>
      <point x="505.5263157894737" y="900.8421052631579" type="line"/>
      <point x="524.1578947368421" y="979.4736842105264"/>
      <point x="597.421052631579" y="1283.4736842105265"/>
      <point x="662.6842105263158" y="1558.842105263158" type="curve"/>
      <point x="357.84210526315786" y="1558.842105263158" type="line"/>
      <point x="306.4210526315789" y="1283.4736842105265"/>
      <point x="249.68421052631572" y="978.1578947368421"/>
      <point x="235.0" y="900.8421052631579" type="curve"/>
    </contour>
    <contour>
      <point x="-42.15789473684211" y="-321.1578947368421" type="curve"/>
      <point x="262.68421052631584" y="-321.1578947368421" type="line"/>
      <point x="314.10526315789474" y="-47.789473684210535"/>
      <point x="370.8421052631579" y="259.5263157894737"/>
      <point x="385.5263157894737" y="336.8421052631579" type="curve"/>
      <point x="423.5263157894737" y="518.8421052631579" type="line"/>
      <point x="153.0" y="518.8421052631579" type="line"/>
      <point x="115.0" y="336.8421052631579" type="line"/>
      <point x="97.6842105263158" y="262.15789473684214"/>
      <point x="23.105263157894733" y="-46.47368421052632"/>
    </contour>
  </outline>
</glyph>
<glyph name="section" format="2">
  <advance width="1167.106796116505"/>
  <unicode hex="00A7"/>
  <outline>
    <contour>
      <point x="407.28155339805824" y="-261.90291262135923" type="curve" smooth="yes"/>
      <point x="701.7281553398059" y="-261.90291262135923"/>
      <point x="851.4174757281553" y="-142.52427184466018"/>
      <point x="890.1553398058252" y="39.16504854368932" type="curve" smooth="yes"/>
      <point x="935.6310679611651" y="253.59223300970876"/>
      <point x="824.6990291262136" y="357.37864077669906"/>
      <point x="591.1067961165049" y="455.5922330097087" type="curve" smooth="yes"/>
      <point x="423.7669902912621" y="526.0000000000001"/>
      <point x="398.71844660194176" y="573.3592233009708"/>
      <point x="415.0291262135923" y="645.1262135922331" type="curve" smooth="yes"/>
      <point x="433.33980582524276" y="726.8932038834952"/>
      <point x="523.631067961165" y="766.4660194174758"/>
      <point x="594.252427184466" y="774.4660194174758" type="curve"/>
      <point x="489.7087378640777" y="966.5242718446602" type="line"/>
      <point x="321.0485436893204" y="947.0485436893204"/>
      <point x="139.2427184466019" y="851.7864077669902"/>
      <point x="100.29126213592232" y="671.0291262135922" type="curve" smooth="yes"/>
      <point x="65.76699029126212" y="509.1456310679612"/>
      <point x="127.86407766990293" y="389.5533980582524"/>
      <point x="356.2912621359223" y="288.29126213592235" type="curve" smooth="yes"/>
      <point x="542.7961165048544" y="205.14563106796118"/>
      <point x="599.9417475728156" y="167.57281553398062"/>
      <point x="579.6310679611651" y="78.97087378640776" type="curve" smooth="yes"/>
      <point x="560.0582524271845" y="-5.4174757281553205"/>
      <point x="474.50485436893206" y="-19.20388349514561"/>
      <point x="375.4757281553398" y="-23.941747572815515" type="curve"/>
      <point x="318.3300970873787" y="-23.941747572815515"/>
      <point x="158.2135922330097" y="41.0097087378641"/>
      <point x="3.475728155339821" y="113.74757281553401" type="curve"/>
      <point x="-67.28155339805828" y="-149.59223300970874" type="line"/>
      <point x="104.31067961165049" y="-205.37864077669903"/>
      <point x="304.85436893203894" y="-261.90291262135923"/>
    </contour>
    <contour>
      <point x="758.6601941747574" y="228.83495145631068" type="line"/>
      <point x="949.7281553398058" y="257.04854368932035"/>
      <point x="1085.7475728155339" y="353.7864077669903"/>
      <point x="1120.6990291262136" y="526.3300970873787" type="curve" smooth="yes"/>
      <point x="1158.6990291262136" y="711.9029126213592"/>
      <point x="1052.2912621359226" y="815.6893203883494"/>
      <point x="821.4368932038836" y="913.1650485436893" type="curve" smooth="yes"/>
      <point x="659.5728155339806" y="982.0970873786407"/>
      <point x="627.0485436893205" y="1029.6699029126214"/>
      <point x="643.3592233009709" y="1103.9611650485435" type="curve" smooth="yes"/>
      <point x="662.1941747572816" y="1186.3495145631068"/>
      <point x="760.0582524271844" y="1204.8737864077668"/>
      <point x="817.9417475728155" y="1210.8737864077668" type="curve"/>
      <point x="851.7281553398058" y="1210.8737864077668"/>
      <point x="1008.4660194174758" y="1154.6601941747572"/>
      <point x="1144.990291262136" y="1094.4466019417473" type="curve"/>
      <point x="1218.4854368932038" y="1356.73786407767" type="line"/>
      <point x="1090.8932038834953" y="1394.2135922330096"/>
      <point x="873.5145631067962" y="1455.4757281553398"/>
      <point x="776.6601941747572" y="1455.4757281553398" type="curve" smooth="yes"/>
      <point x="529.7864077669904" y="1455.4757281553398"/>
      <point x="372.3106796116504" y="1346.3106796116504"/>
      <point x="330.0970873786407" y="1149.2427184466019" type="curve" smooth="yes"/>
      <point x="289.3592233009708" y="957.7669902912621"/>
      <point x="374.7184466019417" y="839.1262135922331"/>
      <point x="587.8834951456312" y="747.1262135922331" type="curve" smooth="yes"/>
      <point x="773.6504854368933" y="665.9805825242719"/>
      <point x="829.0097087378642" y="623.8834951456312"/>
      <point x="809.9611650485438" y="533.8058252427185" type="curve" smooth="yes"/>
      <point x="795.4368932038836" y="465.0873786407767"/>
      <point x="713.6699029126214" y="415.2038834951457"/>
      <point x="627.0485436893204" y="405.9417475728156" type="curve"/>
    </contour>
  </outline>
</glyph>
<glyph name="copyright" format="2">
  <advance width="1602.7368421052631"/>
  <unicode hex="00A9"/>
  <outline>
    <contour>
      <point x="848.3684210526316" y="-27.210526315789473" type="curve" smooth="yes"/>
      <point x="1312.578947368421" y="-27.210526315789473"/>
      <point x="1570.1052631578948" y="277.42105263157896"/>
      <point x="1570.1052631578948" y="689.3157894736842" type="curve" smooth="yes"/>
      <point x="1570.1052631578948" y="1085.2631578947369"/>
      <point x="1325.8947368421052" y="1405.157894736842"/>
      <point x="839.1052631578947" y="1405.157894736842" type="curve" smooth="yes"/>
      <point x="359.0" y="1405.157894736842"/>
      <point x="112.63157894736841" y="1088.6315789473683"/>
      <point x="112.63157894736841" y="688.0" type="curve" smooth="yes"/>
      <point x="112.63157894736841" y="308.57894736842104"/>
      <point x="341.57894736842104" y="-27.210526315789473"/>
    </contour>
    <contour>
      <point x="866.3157894736842" y="310.6842105263158" type="curve" smooth="yes"/>
      <point x="920.7368421052631" y="310.6842105263158"/>
      <point x="1032.2631578947369" y="330.84210526315786"/>
      <point x="1088.2105263157896" y="346.89473684210526" type="curve"/>
      <point x="1076.2105263157896" y="541.8947368421053" type="line"/>
      <point x="1023.9473684210525" y="519.6842105263157"/>
      <point x="954.6315789473684" y="499.0"/>
      <point x="922.8947368421053" y="499.0" type="curve"/>
      <point x="795.3684210526316" y="501.6842105263158"/>
      <point x="719.6842105263158" y="571.6842105263158"/>
      <point x="719.6842105263158" y="692.6315789473684" type="curve" smooth="yes"/>
      <point x="719.6842105263158" y="806.5263157894738"/>
      <point x="786.3684210526316" y="867.1052631578948"/>
      <point x="876.6842105263157" y="872.421052631579" type="curve"/>
      <point x="900.2105263157894" y="872.421052631579"/>
      <point x="987.4736842105262" y="849.1578947368421"/>
      <point x="1072.2631578947369" y="815.0" type="curve"/>
      <point x="1089.4736842105265" y="1015.2631578947369" type="line"/>
      <point x="1012.421052631579" y="1039.8947368421054"/>
      <point x="901.9999999999999" y="1066.0"/>
      <point x="850.3684210526316" y="1066.0" type="curve" smooth="yes"/>
      <point x="611.3684210526316" y="1066.0"/>
      <point x="486.63157894736844" y="903.3157894736842"/>
      <point x="486.63157894736844" y="686.0526315789474" type="curve" smooth="yes"/>
      <point x="486.63157894736844" y="468.7894736842105"/>
      <point x="625.1578947368421" y="310.6842105263158"/>
    </contour>
    <contour>
      <point x="847.0526315789474" y="143.3684210526316" type="curve"/>
      <point x="470.7894736842105" y="156.63157894736844"/>
      <point x="293.7368421052632" y="373.4736842105263"/>
      <point x="293.7368421052632" y="688.0" type="curve" smooth="yes"/>
      <point x="293.7368421052632" y="1012.2631578947369"/>
      <point x="480.10526315789474" y="1221.3157894736842"/>
      <point x="840.421052631579" y="1234.578947368421" type="curve"/>
      <point x="1204.0526315789473" y="1221.3157894736842"/>
      <point x="1389.0" y="1012.3157894736843"/>
      <point x="1389.0" y="689.3157894736842" type="curve" smooth="yes"/>
      <point x="1389.0" y="359.05263157894734"/>
      <point x="1196.7894736842104" y="156.63157894736844"/>
    </contour>
  </outline>
</glyph>
<glyph name="ordfeminine" format="2">
  <advance width="810.3300970873787"/>
  <unicode hex="00AA"/>
  <outline>
    <contour>
      <point x="338.7184466019417" y="658.3106796116505" type="curve" smooth="yes"/>
      <point x="385.8640776699029" y="658.3106796116505"/>
      <point x="486.6990291262136" y="718.6213592233012"/>
      <point x="572.1747572815533" y="785.8834951456311" type="curve"/>
      <point x="589.1262135922328" y="785.8834951456311" type="line"/>
      <point x="592.3883495145631" y="675.7864077669904" type="line"/>
      <point x="809.6116504854369" y="675.7864077669904" type="line"/>
      <point x="811.0873786407769" y="764.9514563106796"/>
      <point x="812.5631067961166" y="836.3300970873787"/>
      <point x="816.0388349514565" y="925.4951456310679" type="curve"/>
      <point x="830.3495145631068" y="993.7864077669902" type="line" smooth="yes"/>
      <point x="842.3495145631068" y="1049.0485436893202"/>
      <point x="858.873786407767" y="1100.9320388349513"/>
      <point x="869.0873786407766" y="1155.0485436893202" type="curve" smooth="yes"/>
      <point x="907.8252427184466" y="1339.4757281553398"/>
      <point x="798.0194174757281" y="1455.4757281553398"/>
      <point x="586.4271844660193" y="1455.4757281553398" type="curve" smooth="yes"/>
      <point x="539.3786407766991" y="1455.4757281553398"/>
      <point x="370.31067961165047" y="1424.9514563106795"/>
      <point x="290.62135922330094" y="1409.6893203883494" type="curve"/>
      <point x="256.504854368932" y="1197.3203883495144" type="line"/>
      <point x="386.93203883495147" y="1235.1067961165047"/>
      <point x="498.4077669902913" y="1263.6310679611652"/>
      <point x="518.7184466019417" y="1263.6310679611652" type="curve" smooth="yes"/>
      <point x="621.8640776699029" y="1263.6310679611652"/>
      <point x="670.485436893204" y="1219.5339805825242"/>
      <point x="654.9126213592232" y="1157.980582524272" type="curve"/>
      <point x="422.71844660194176" y="1120.4077669902913" type="line" smooth="yes"/>
      <point x="295.04854368932035" y="1099.3592233009708"/>
      <point x="181.8834951456311" y="1049.9999999999998"/>
      <point x="149.8834951456311" y="902.5242718446602" type="curve" smooth="yes"/>
      <point x="118.62135922330096" y="761.0485436893204"/>
      <point x="201.66990291262135" y="658.3106796116505"/>
    </contour>
    <contour>
      <point x="457.92233009708735" y="835.9417475728155" type="curve" smooth="yes"/>
      <point x="401.41747572815535" y="835.9417475728155"/>
      <point x="357.0097087378641" y="870.5631067961164"/>
      <point x="370.05825242718447" y="933.2815533980582" type="curve" smooth="yes"/>
      <point x="383.1067961165048" y="991.9999999999999"/>
      <point x="437.82524271844665" y="1007.7864077669902"/>
      <point x="494.3300970873787" y="1020.8349514563106" type="curve" smooth="yes"/>
      <point x="583.7669902912621" y="1041.6699029126214"/>
      <point x="608.8155339805825" y="1051.6699029126214"/>
      <point x="632.9126213592234" y="1067.6699029126214" type="curve"/>
      <point x="601.3398058252427" y="926.8543689320388" type="line"/>
      <point x="549.5728155339807" y="871.3009708737866"/>
      <point x="485.06796116504853" y="835.9417475728155"/>
    </contour>
  </outline>
</glyph>
<glyph name="logicalnot" format="2">
  <advance width="1159.4736842105262"/>
  <unicode hex="00AC"/>
  <outline>
    <contour>
      <point x="684.0526315789473" y="102.36842105263158" type="curve"/>
      <point x="986.263157894737" y="102.36842105263158" type="line"/>
      <point x="1011.5789473684212" y="242.10526315789474"/>
      <point x="1037.578947368421" y="385.2631578947368"/>
      <point x="1055.5263157894738" y="482.89473684210526" type="curve"/>
      <point x="1113.2631578947369" y="755.5789473684212" type="line"/>
      <point x="974.8947368421052" y="750.9473684210526"/>
      <point x="827.0526315789473" y="746.3157894736843"/>
      <point x="728.1052631578947" y="743.6842105263158" type="curve"/>
      <point x="536.0" y="743.6842105263158" type="line"/>
      <point x="437.0526315789474" y="746.3157894736843"/>
      <point x="293.2105263157895" y="750.9473684210526"/>
      <point x="154.8421052631579" y="755.5789473684212" type="curve"/>
      <point x="92.1578947368421" y="461.2631578947368" type="line"/>
      <point x="231.8421052631579" y="465.8947368421052"/>
      <point x="379.0" y="470.52631578947364"/>
      <point x="477.9473684210526" y="473.1578947368421" type="curve"/>
      <point x="670.0526315789474" y="473.1578947368421" type="line"/>
      <point x="757.1052631578948" y="470.52631578947364"/>
      <point x="884.4210526315791" y="465.8947368421052"/>
      <point x="1004.2631578947368" y="461.2631578947368" type="curve"/>
      <point x="815.6842105263157" y="665.7894736842105" type="line"/>
      <point x="777.1052631578947" y="484.2105263157895" type="line"/>
      <point x="753.2105263157895" y="385.89473684210526"/>
      <point x="717.9473684210527" y="242.05263157894734"/>
    </contour>
  </outline>
</glyph>
<glyph name="registered" format="2">
  <advance width="1158.2105263157896"/>
  <unicode hex="00AE"/>
  <outline>
    <contour>
      <point x="687.8421052631579" y="478.05263157894734" type="curve" smooth="yes"/>
      <point x="1021.3157894736844" y="478.05263157894734"/>
      <point x="1201.3684210526317" y="695.2105263157895"/>
      <point x="1201.3684210526317" y="987.6315789473684" type="curve" smooth="yes"/>
      <point x="1201.3684210526317" y="1266.7894736842106"/>
      <point x="1033.2631578947369" y="1494.578947368421"/>
      <point x="679.2631578947369" y="1494.578947368421" type="curve" smooth="yes"/>
      <point x="331.2105263157895" y="1494.578947368421"/>
      <point x="163.6842105263158" y="1269.4736842105262"/>
      <point x="163.6842105263158" y="986.3157894736842" type="curve" smooth="yes"/>
      <point x="163.6842105263158" y="719.7368421052631"/>
      <point x="321.1578947368421" y="478.05263157894734"/>
    </contour>
    <contour>
      <point x="459.0" y="717.578947368421" type="curve"/>
      <point x="613.7894736842105" y="717.578947368421" type="line"/>
      <point x="609.1578947368421" y="789.7368421052631"/>
      <point x="606.5263157894736" y="828.7368421052631"/>
      <point x="601.8947368421052" y="905.578947368421" type="curve"/>
      <point x="601.8947368421052" y="1089.578947368421" type="line"/>
      <point x="606.5263157894736" y="1167.0526315789473"/>
      <point x="609.1578947368421" y="1207.421052631579"/>
      <point x="612.4736842105262" y="1266.421052631579" type="curve"/>
      <point x="455.0526315789474" y="1287.578947368421" type="line"/>
      <point x="459.6842105263158" y="1212.7894736842104"/>
      <point x="462.3157894736842" y="1173.7368421052631"/>
      <point x="466.94736842105266" y="1097.578947368421" type="curve"/>
      <point x="466.94736842105266" y="905.578947368421" type="line"/>
      <point x="463.63157894736844" y="826.1052631578947"/>
      <point x="462.3157894736842" y="793.6842105263157"/>
    </contour>
    <contour>
      <point x="686.5263157894738" y="576.2105263157895" type="curve"/>
      <point x="386.36842105263156" y="584.1578947368421"/>
      <point x="271.0526315789474" y="763.7894736842105"/>
      <point x="271.0526315789474" y="986.3157894736842" type="curve" smooth="yes"/>
      <point x="271.0526315789474" y="1222.578947368421"/>
      <point x="394.3157894736842" y="1389.7894736842104"/>
      <point x="680.578947368421" y="1397.7368421052631" type="curve"/>
      <point x="969.4736842105264" y="1389.7894736842104"/>
      <point x="1093.3157894736844" y="1220.0"/>
      <point x="1093.3157894736844" y="987.6315789473684" type="curve" smooth="yes"/>
      <point x="1093.3157894736844" y="746.7368421052631"/>
      <point x="958.9473684210526" y="584.1578947368421"/>
    </contour>
    <contour>
      <point x="782.7368421052631" y="717.578947368421" type="curve"/>
      <point x="961.4736842105264" y="717.578947368421" type="line"/>
      <point x="926.1052631578947" y="766.8421052631579"/>
      <point x="883.9473684210526" y="825.578947368421"/>
      <point x="842.5263157894738" y="884.2105263157895" type="curve"/>
      <point x="766.3157894736843" y="998.8421052631579" type="line"/>
      <point x="712.1052631578948" y="951.7368421052631" type="line"/>
      <point x="856.0526315789474" y="951.7368421052631"/>
      <point x="906.1052631578948" y="1029.0526315789473"/>
      <point x="906.1052631578948" y="1125.0" type="curve" smooth="yes"/>
      <point x="906.1052631578948" y="1240.9473684210527"/>
      <point x="828.1052631578948" y="1292.2105263157894"/>
      <point x="685.8421052631579" y="1292.2105263157894" type="curve"/>
      <point x="591.3684210526317" y="1292.2105263157894"/>
      <point x="516.8421052631579" y="1287.578947368421"/>
      <point x="455.0526315789474" y="1287.578947368421" type="curve"/>
      <point x="558.8947368421052" y="1180.9473684210527" type="line"/>
      <point x="679.8947368421053" y="1180.9473684210527" type="line" smooth="yes"/>
      <point x="711.4736842105264" y="1180.9473684210527"/>
      <point x="765.2105263157895" y="1178.2631578947369"/>
      <point x="765.2105263157895" y="1109.2105263157894" type="curve" smooth="yes"/>
      <point x="765.2105263157895" y="1044.842105263158"/>
      <point x="723.578947368421" y="1024.7368421052631"/>
      <point x="663.1052631578948" y="1024.7368421052631" type="curve" smooth="yes"/>
      <point x="574.7894736842105" y="1024.7368421052631" type="line"/>
      <point x="574.7894736842105" y="937.2105263157895" type="line"/>
      <point x="710.0526315789474" y="937.2105263157895" type="line"/>
      <point x="628.0" y="987.5263157894736" type="line"/>
      <point x="709.6315789473684" y="856.8947368421052" type="line"/>
      <point x="733.1052631578948" y="811.578947368421"/>
      <point x="754.578947368421" y="770.8947368421053"/>
    </contour>
  </outline>
</glyph>
<glyph name="degree" format="2">
  <advance width="1025.1052631578948"/>
  <unicode hex="00B0"/>
  <outline>
    <contour>
      <point x="593.3157894736842" y="594.1578947368421" type="curve" smooth="yes"/>
      <point x="834.0" y="594.1578947368421"/>
      <point x="1001.7894736842105" y="705.421052631579"/>
      <point x="1054.3684210526317" y="952.3684210526316" type="curve" smooth="yes"/>
      <point x="1103.6315789473686" y="1189.3684210526317"/>
      <point x="932.578947368421" y="1405.157894736842"/>
      <point x="643.3684210526317" y="1405.157894736842" type="curve" smooth="yes"/>
      <point x="396.0" y="1405.157894736842"/>
      <point x="232.8421052631579" y="1281.2105263157896"/>
      <point x="185.52631578947367" y="1056.0526315789473" type="curve" smooth="yes"/>
      <point x="129.6315789473684" y="797.2631578947368"/>
      <point x="297.36842105263156" y="594.1578947368421"/>
    </contour>
    <contour>
      <point x="605.8421052631578" y="811.421052631579" type="curve"/>
      <point x="474.7368421052631" y="818.0526315789474"/>
      <point x="411.47368421052636" y="910.0526315789473"/>
      <point x="433.6842105263158" y="1017.7894736842104" type="curve" smooth="yes"/>
      <point x="455.2105263157895" y="1123.4736842105265"/>
      <point x="525.8947368421052" y="1178.6315789473683"/>
      <point x="632.1578947368422" y="1187.8947368421052" type="curve"/>
      <point x="753.8947368421052" y="1178.6315789473683"/>
      <point x="819.2105263157895" y="1078.578947368421"/>
      <point x="798.3157894736842" y="979.4736842105262" type="curve" smooth="yes"/>
      <point x="774.1052631578947" y="865.1578947368421"/>
      <point x="702.8947368421052" y="819.3684210526317"/>
    </contour>
  </outline>
</glyph>
<glyph name="plusminus" format="2">
  <advance width="1159.4736842105262"/>
  <unicode hex="00B1"/>
  <outline>
    <contour>
      <point x="-8.105263157894736" y="-11.894736842105264" type="line"/>
      <point x="131.57894736842104" y="-7.2631578947368425"/>
      <point x="277.42105263157896" y="-2.6315789473684212"/>
      <point x="377.6842105263158" y="0.0" type="curve"/>
      <point x="569.7894736842105" y="0.0" type="line"/>
      <point x="667.4210526315788" y="-2.6315789473684212"/>
      <point x="813.2631578947369" y="-7.2631578947368425"/>
      <point x="950.3157894736843" y="-11.894736842105264" type="curve"/>
      <point x="1013.0" y="282.42105263157896" type="line"/>
      <point x="873.3157894736842" y="277.7894736842106"/>
      <point x="726.1578947368421" y="273.15789473684214"/>
      <point x="627.2105263157895" y="270.5263157894737" type="curve"/>
      <point x="435.10526315789474" y="270.5263157894737" type="line"/>
      <point x="336.15789473684214" y="273.15789473684214"/>
      <point x="191.63157894736844" y="277.7894736842106"/>
      <point x="54.57894736842106" y="282.42105263157896" type="curve"/>
    </contour>
    <contour>
      <point x="147.1578947368421" y="721.7368421052631" type="line"/>
      <point x="286.8421052631579" y="726.3684210526317"/>
      <point x="434.68421052631584" y="731.0"/>
      <point x="533.6315789473684" y="733.6315789473684" type="curve"/>
      <point x="725.7368421052631" y="733.6315789473684" type="line"/>
      <point x="824.6842105263157" y="731.0"/>
      <point x="968.5263157894736" y="726.3684210526317"/>
      <point x="1105.5789473684213" y="721.7368421052631" type="curve"/>
      <point x="1168.2631578947369" y="1016.0526315789474" type="line"/>
      <point x="1029.8947368421052" y="1011.4210526315788"/>
      <point x="882.7368421052631" y="1006.7894736842105"/>
      <point x="783.7894736842105" y="1004.1578947368421" type="curve"/>
      <point x="591.6842105263158" y="1004.1578947368421" type="line"/>
      <point x="492.7368421052632" y="1006.7894736842105"/>
      <point x="348.2105263157895" y="1011.4210526315788"/>
      <point x="209.84210526315792" y="1016.0526315789474" type="curve"/>
    </contour>
    <contour>
      <point x="402.99999999999994" y="389.1578947368421" type="curve"/>
      <point x="707.2105263157895" y="389.1578947368421" type="line"/>
      <point x="732.5263157894736" y="528.8947368421053"/>
      <point x="758.5263157894738" y="673.3684210526316"/>
      <point x="776.4736842105262" y="772.3157894736842" type="curve"/>
      <point x="818.0526315789473" y="965.4736842105264" type="line"/>
      <point x="841.9473684210527" y="1064.421052631579"/>
      <point x="877.2105263157894" y="1210.2631578947369"/>
      <point x="911.1052631578948" y="1348.6315789473683" type="curve"/>
      <point x="606.8947368421052" y="1348.6315789473683" type="line"/>
      <point x="582.2631578947368" y="1210.9473684210527"/>
      <point x="555.578947368421" y="1063.7368421052631"/>
      <point x="537.6315789473683" y="965.4736842105264" type="curve"/>
      <point x="496.05263157894734" y="772.3157894736842" type="line"/>
      <point x="472.8421052631578" y="674.0526315789473"/>
      <point x="437.578947368421" y="528.2105263157896"/>
    </contour>
  </outline>
</glyph>
<glyph name="micro" format="2">
  <advance width="1153.2631578947367"/>
  <unicode hex="00B5"/>
  <outline>
    <contour>
      <point x="-110.73684210526318" y="-393.2631578947368" type="curve"/>
      <point x="261.2631578947369" y="-384.0" type="line"/>
      <point x="280.7368421052632" y="-241.89473684210526"/>
      <point x="296.2105263157895" y="-118.47368421052632"/>
      <point x="317.0526315789474" y="30.368421052631575" type="curve" smooth="yes"/>
      <point x="327.2105263157895" y="79.73684210526315" type="line"/>
      <point x="179.6315789473684" y="79.73684210526315" type="line"/>
      <point x="210.89473684210526" y="11.789473684210522"/>
      <point x="274.52631578947364" y="-27.210526315789473"/>
      <point x="368.57894736842104" y="-27.210526315789473" type="curve" smooth="yes"/>
      <point x="445.0" y="-27.210526315789473"/>
      <point x="579.0000000000001" y="61.31578947368421"/>
      <point x="672.9473684210527" y="145.26315789473685" type="curve"/>
      <point x="698.7368421052631" y="145.26315789473685" type="line"/>
      <point x="704.1052631578948" y="0.0" type="line"/>
      <point x="995.7368421052632" y="0.0" type="line"/>
      <point x="997.6315789473684" y="122.26315789473684"/>
      <point x="1000.2105263157896" y="230.3684210526316"/>
      <point x="1003.4736842105264" y="331.47368421052636" type="curve"/>
      <point x="1049.0526315789473" y="547.2631578947369" type="line"/>
      <point x="1091.6315789473683" y="732.9473684210526"/>
      <point x="1120.3157894736842" y="856.421052631579"/>
      <point x="1153.0" y="998.5263157894736" type="curve"/>
      <point x="809.3157894736842" y="998.5263157894736" type="line"/>
      <point x="787.2105263157895" y="856.421052631579"/>
      <point x="767.1052631578948" y="728.3157894736843"/>
      <point x="744.3157894736843" y="582.7894736842106" type="curve"/>
      <point x="698.8421052631578" y="367.5263157894737" type="line"/>
      <point x="633.7894736842105" y="305.89473684210526"/>
      <point x="536.1578947368421" y="251.26315789473685"/>
      <point x="501.52631578947364" y="251.26315789473685" type="curve" smooth="yes"/>
      <point x="403.57894736842104" y="251.26315789473685"/>
      <point x="380.5263157894737" y="327.7368421052631"/>
      <point x="410.0526315789474" y="465.3157894736842" type="curve"/>
      <point x="434.2105263157895" y="582.7894736842106" type="line"/>
      <point x="468.89473684210526" y="730.9473684210527"/>
      <point x="500.8947368421053" y="865.6842105263158"/>
      <point x="534.8947368421053" y="1007.7894736842105" type="curve"/>
      <point x="181.3157894736842" y="998.5263157894736" type="line"/>
      <point x="160.5263157894737" y="859.0526315789474"/>
      <point x="140.42105263157893" y="730.9473684210527"/>
      <point x="113.68421052631578" y="544.6315789473684" type="curve"/>
      <point x="8.368421052631568" y="47.473684210526315" type="line"/>
      <point x="-35.52631578947369" y="-118.47368421052632"/>
      <point x="-72.78947368421055" y="-251.1578947368421"/>
    </contour>
  </outline>
</glyph>
<glyph name="paragraph" format="2">
  <advance width="1165.0526315789473"/>
  <unicode hex="00B6"/>
  <outline>
    <contour>
      <point x="513.3684210526316" y="561.5263157894736" type="curve" smooth="yes"/>
      <point x="541.6842105263158" y="561.5263157894736" type="line"/>
      <point x="672.2105263157896" y="1426.0" type="line"/>
      <point x="614.578947368421" y="1426.0" type="line"/>
      <point x="377.3157894736842" y="1426.0"/>
      <point x="210.5263157894737" y="1282.842105263158"/>
      <point x="159.89473684210526" y="1038.3684210526317" type="curve" smooth="yes"/>
      <point x="109.26315789473685" y="793.9473684210526"/>
      <point x="239.73684210526318" y="561.5263157894736"/>
    </contour>
    <contour>
      <point x="246.94736842105263" y="-351.94736842105266" type="curve"/>
      <point x="468.8947368421052" y="-351.94736842105266" type="line"/>
      <point x="514.2631578947368" y="-116.63157894736844"/>
      <point x="554.315789473684" y="91.42105263157896"/>
      <point x="595.6842105263157" y="308.05263157894734" type="curve"/>
      <point x="693.0" y="766.0" type="line"/>
      <point x="744.9473684210526" y="984.6842105263158"/>
      <point x="794.2105263157894" y="1190.6315789473683"/>
      <point x="850.1578947368421" y="1426.0" type="curve"/>
      <point x="641.421052631579" y="1426.0" type="line"/>
      <point x="591.421052631579" y="1190.6842105263158"/>
      <point x="547.421052631579" y="983.3157894736842"/>
      <point x="501.42105263157896" y="766.0" type="curve"/>
      <point x="404.10526315789474" y="308.05263157894734" type="line"/>
      <point x="352.1578947368421" y="89.36842105263159"/>
      <point x="302.89473684210526" y="-116.57894736842107"/>
    </contour>
    <contour>
      <point x="589.8421052631579" y="-351.94736842105266" type="curve"/>
      <point x="811.7894736842105" y="-351.94736842105266" type="line"/>
      <point x="855.8421052631578" y="-116.63157894736844"/>
      <point x="894.578947368421" y="91.42105263157896"/>
      <point x="934.6315789473684" y="308.05263157894734" type="curve"/>
      <point x="1031.9473684210527" y="766.0" type="line"/>
      <point x="1083.8947368421052" y="984.6842105263158"/>
      <point x="1133.842105263158" y="1194.0526315789473"/>
      <point x="1189.1052631578948" y="1426.0" type="curve"/>
      <point x="963.2105263157896" y="1426.0" type="line"/>
      <point x="919.1578947368423" y="1190.6842105263158"/>
      <point x="880.4210526315791" y="982.6315789473684"/>
      <point x="840.3684210526317" y="766.0" type="curve"/>
      <point x="743.0526315789474" y="308.05263157894734" type="line"/>
      <point x="692.4210526315791" y="89.36842105263159"/>
      <point x="644.4736842105265" y="-116.57894736842107"/>
    </contour>
    <contour>
      <point x="702.6315789473684" y="1247.578947368421" type="line"/>
      <point x="894.7368421052632" y="1247.578947368421" type="line"/>
      <point x="992.3684210526316" y="1244.9473684210527"/>
      <point x="1137.5263157894738" y="1240.3157894736842"/>
      <point x="1274.5789473684213" y="1235.6842105263158" type="curve"/>
      <point x="1314.8947368421054" y="1426.0" type="line"/>
      <point x="1176.5263157894738" y="1426.0"/>
      <point x="1030.6842105263156" y="1426.0"/>
      <point x="931.7368421052632" y="1426.0" type="curve"/>
      <point x="739.6315789473684" y="1426.0" type="line"/>
    </contour>
  </outline>
</glyph>
<glyph name="AE" format="2">
  <advance width="2003.3009708737864"/>
  <unicode hex="00C6"/>
  <anchor x="1007.8446601941748" y="0.0" name="bottom"/>
  <anchor x="1307.8446601941748" y="1426.0" name="top"/>
  <outline>
    <contour>
      <point x="-100.11650485436894" y="0.0" type="curve"/>
      <point x="322.75728155339806" y="0.0" type="line"/>
      <point x="410.5242718446602" y="151.88349514563106"/>
      <point x="508.0776699029126" y="320.2912621359223"/>
      <point x="594.5825242718447" y="469.6504854368932" type="curve"/>
      <point x="1033.1262135922332" y="1151.0679611650485" type="line"/>
      <point x="1085.7669902912621" y="1151.0679611650485" type="line"/>
      <point x="1309.4174757281553" y="1151.0679611650485" type="line"/>
      <point x="1403.7669902912623" y="1426.0" type="line"/>
      <point x="844.8543689320387" y="1426.0" type="line"/>
      <point x="760.2330097087379" y="1284.7378640776699"/>
      <point x="669.6116504854369" y="1135.2621359223303"/>
      <point x="576.2524271844661" y="979.0485436893204" type="curve"/>
      <point x="246.3883495145631" y="482.0" type="line"/>
      <point x="137.5533980582524" y="330.73786407766994"/>
      <point x="10.194174757281552" y="153.4757281553398"/>
    </contour>
    <contour>
      <point x="396.5631067961165" y="291.32038834951453" type="line"/>
      <point x="1046.3495145631068" y="291.32038834951453" type="line"/>
      <point x="1069.3009708737864" y="549.0873786407767" type="line"/>
      <point x="486.17475728155335" y="549.0873786407767" type="line"/>
    </contour>
    <contour>
      <point x="813.1456310679613" y="0.0" type="curve"/>
      <point x="1203.8058252427184" y="0.0" type="line"/>
      <point x="1216.7572815533981" y="54.757281553398066" type="line"/>
      <point x="1239.8058252427184" y="204.33009708737865"/>
      <point x="1260.3300970873788" y="341.2815533980583"/>
      <point x="1287.378640776699" y="517.8058252427185" type="curve"/>
      <point x="1367.4757281553398" y="895.2427184466019" type="line"/>
      <point x="1417.1650485436894" y="1082.9320388349513"/>
      <point x="1451.3786407766988" y="1214.1941747572814"/>
      <point x="1492.8543689320386" y="1371.2427184466019" type="curve"/>
      <point x="1503.8058252427184" y="1426.0" type="line"/>
      <point x="1113.1456310679612" y="1426.0" type="line"/>
      <point x="1089.3592233009708" y="1270.7378640776699"/>
      <point x="1069.5728155339805" y="1140.9514563106798"/>
      <point x="1039.7864077669904" y="946.73786407767" type="curve"/>
      <point x="938.3106796116505" y="466.8349514563107" type="line"/>
      <point x="889.3592233009709" y="284.09708737864077"/>
      <point x="854.6213592233009" y="155.04854368932038"/>
    </contour>
    <contour>
      <point x="1139.0485436893205" y="0.0" type="line"/>
      <point x="1800.893203883495" y="0.0" type="line"/>
      <point x="1866.912621359223" y="307.14563106796123" type="line"/>
      <point x="1745.5533980582525" y="299.66990291262147"/>
      <point x="1565.2621359223303" y="288.1941747572816"/>
      <point x="1435.0485436893205" y="279.9805825242719" type="curve"/>
      <point x="1198.3300970873788" y="279.9805825242719" type="line"/>
    </contour>
    <contour>
      <point x="1221.3398058252428" y="588.6990291262136" type="line"/>
      <point x="1480.4854368932042" y="588.6990291262136" type="line"/>
      <point x="1608.9126213592235" y="584.4854368932039"/>
      <point x="1791.3009708737868" y="577.747572815534"/>
      <point x="1883.7281553398059" y="574.2718446601942" type="curve"/>
      <point x="1945.5339805825242" y="865.8252427184467" type="line"/>
      <point x="1838.9126213592235" y="861.0873786407768"/>
      <point x="1704.6019417475727" y="855.611650485437"/>
      <point x="1536.0776699029127" y="848.1359223300972" type="curve"/>
      <point x="1275.6699029126214" y="848.1359223300972" type="line"/>
    </contour>
    <contour>
      <point x="1358.6019417475727" y="1146.0194174757282" type="line"/>
      <point x="1592.7961165048541" y="1146.0194174757282" type="line"/>
      <point x="1743.009708737864" y="1137.0679611650485"/>
      <point x="1909.0873786407767" y="1126.3300970873788"/>
      <point x="2029.1844660194179" y="1118.854368932039" type="curve"/>
      <point x="2093.203883495146" y="1426.0" type="line"/>
      <point x="1417.1456310679612" y="1426.0" type="line"/>
    </contour>
  </outline>
</glyph>
<glyph name="multiply" format="2">
  <advance width="1165.8947368421052"/>
  <unicode hex="00D7"/>
  <outline>
    <contour>
      <point x="820.421052631579" y="114.94736842105262" type="curve"/>
      <point x="1044.1578947368423" y="309.6315789473684" type="line"/>
      <point x="960.421052631579" y="404.7368421052632"/>
      <point x="871.2105263157895" y="506.68421052631584"/>
      <point x="811.4736842105264" y="575.1052631578948" type="curve"/>
      <point x="609.6315789473684" y="823.2105263157895" type="line"/>
      <point x="553.1578947368421" y="898.9473684210526"/>
      <point x="474.6315789473685" y="1002.1052631578947"/>
      <point x="396.7894736842106" y="1105.8947368421052" type="curve"/>
      <point x="171.05263157894737" y="908.5789473684209" type="line"/>
      <point x="254.8421052631579" y="813.421052631579"/>
      <point x="342.6842105263158" y="714.8421052631578"/>
      <point x="403.10526315789474" y="645.7368421052631" type="curve"/>
      <point x="606.2631578947369" y="395.0" type="line"/>
      <point x="662.6842105263157" y="322.6315789473685"/>
      <point x="745.2631578947369" y="214.05263157894737"/>
    </contour>
    <contour>
      <point x="211.63157894736847" y="103.05263157894736" type="line"/>
      <point x="330.68421052631584" y="204.1578947368421"/>
      <point x="452.57894736842104" y="308.05263157894734"/>
      <point x="534.8947368421053" y="379.7368421052631" type="curve"/>
      <point x="841.8947368421053" y="626.6315789473684" type="line"/>
      <point x="928.8947368421053" y="692.421052631579"/>
      <point x="1058.6842105263158" y="788.9999999999999"/>
      <point x="1182.3684210526317" y="880.8421052631578" type="curve"/>
      <point x="999.5263157894736" y="1115.1052631578946" type="line"/>
      <point x="883.1052631578948" y="1014.0"/>
      <point x="760.6315789473684" y="908.8421052631579"/>
      <point x="677.5789473684212" y="837.1052631578947" type="curve"/>
      <point x="374.0" y="592.9473684210527" type="line"/>
      <point x="287.6842105263158" y="527.8421052631579"/>
      <point x="154.47368421052633" y="427.842105263158"/>
      <point x="30.78947368421052" y="335.99999999999994" type="curve"/>
    </contour>
  </outline>
</glyph>
